<?xml version="1.0" encoding="UTF-8"?>
<svg xmlns="http://www.w3.org/2000/svg" xmlns:xlink="http://www.w3.org/1999/xlink" width="32pt" height="32pt" viewBox="0 0 32 32" version="1.1">
<g id="surface1">
<path style=" stroke:none;fill-rule:nonzero;fill:rgb(255%,255%,255%);fill-opacity:1;" d="M 1.066406 20.800781 L 11.734375 20.800781 C 12.320312 20.800781 12.800781 20.324219 12.800781 19.734375 L 12.800781 12.265625 C 12.800781 11.679688 12.320312 11.199219 11.734375 11.199219 L 1.066406 11.199219 C 0.476562 11.199219 0 11.679688 0 12.265625 L 0 19.734375 C 0 20.324219 0.476562 20.800781 1.066406 20.800781 Z M 1.066406 12.265625 L 11.734375 12.265625 L 11.734375 19.734375 L 1.066406 19.734375 Z M 1.066406 12.265625 "/>
<path style=" stroke:none;fill-rule:nonzero;fill:rgb(255%,255%,255%);fill-opacity:1;" d="M 1.066406 32 L 5.332031 32 C 5.921875 32 6.398438 31.523438 6.398438 30.933594 L 6.398438 23.464844 C 6.398438 22.878906 5.921875 22.402344 5.332031 22.398438 L 1.066406 22.398438 C 0.476562 22.402344 0 22.878906 0 23.464844 L 0 30.933594 C 0 31.523438 0.476562 32 1.066406 32 Z M 1.066406 23.464844 L 5.332031 23.464844 L 5.335938 30.933594 L 1.066406 30.933594 Z M 1.066406 23.464844 "/>
<path style=" stroke:none;fill-rule:nonzero;fill:rgb(255%,255%,255%);fill-opacity:1;" d="M 30.933594 0 L 1.066406 0 C 0.476562 0 0 0.476562 0 1.066406 L 0 8.535156 C 0 9.121094 0.476562 9.597656 1.066406 9.601562 L 15.75 9.601562 C 16.050781 10.109375 16.3125 10.648438 16.523438 11.199219 L 15.464844 11.199219 C 14.878906 11.199219 14.402344 11.679688 14.398438 12.265625 L 14.398438 19.734375 C 14.402344 20.320312 14.878906 20.800781 15.464844 20.800781 L 16.492188 20.800781 C 16.484375 21.039062 16.472656 21.28125 16.472656 21.519531 C 16.476562 21.804688 16.492188 22.097656 16.511719 22.398438 L 9.066406 22.398438 C 8.476562 22.402344 8 22.878906 8 23.464844 L 8 30.933594 C 8 31.523438 8.476562 32 9.066406 32 L 30.933594 32 C 31.523438 32 32 31.523438 32 30.933594 L 32 1.066406 C 32 0.476562 31.523438 0 30.933594 0 Z M 1.066406 1.066406 L 9.996094 1.066406 C 9.960938 1.8125 9.984375 2.5625 10.070312 3.304688 C 10.363281 4.835938 11.558594 5.609375 12.613281 6.292969 L 12.785156 6.402344 C 13.65625 6.976562 14.417969 7.699219 15.042969 8.535156 L 1.066406 8.535156 Z M 15.464844 12.265625 L 16.867188 12.265625 C 17.109375 13.15625 17.242188 14.074219 17.257812 14.996094 C 17.242188 15.820312 17.128906 16.640625 16.921875 17.4375 C 16.839844 17.796875 16.761719 18.15625 16.695312 18.53125 C 16.625 18.921875 16.582031 19.328125 16.546875 19.734375 L 15.464844 19.734375 Z M 9.066406 23.464844 L 16.617188 23.464844 C 16.898438 26.183594 17.9375 28.769531 19.609375 30.933594 L 9.066406 30.933594 Z M 30.933594 30.933594 L 21.023438 30.933594 C 19.019531 28.707031 17.820312 25.875 17.613281 22.886719 C 17.570312 22.40625 17.546875 21.945312 17.542969 21.507812 C 17.535156 21.109375 17.546875 20.703125 17.574219 20.292969 C 17.597656 19.765625 17.65625 19.238281 17.746094 18.71875 C 17.808594 18.359375 17.886719 18.011719 17.960938 17.664062 C 18.191406 16.789062 18.3125 15.886719 18.324219 14.980469 C 18.304688 13.824219 18.125 12.675781 17.785156 11.574219 C 17.480469 10.59375 17.054688 9.65625 16.511719 8.785156 C 15.71875 7.476562 14.644531 6.355469 13.367188 5.511719 L 13.191406 5.398438 C 12.191406 4.75 11.324219 4.1875 11.117188 3.117188 C 11.054688 2.4375 11.035156 1.75 11.058594 1.066406 L 30.933594 1.066406 Z M 30.933594 30.933594 "/>
<path style=" stroke:none;fill-rule:nonzero;fill:rgb(255%,255%,255%);fill-opacity:1;" d="M 12.1875 3.003906 C 12.347656 3.554688 12.894531 3.933594 13.773438 4.5 L 13.953125 4.617188 C 15.359375 5.546875 16.542969 6.777344 17.414062 8.21875 C 18.007812 9.171875 18.472656 10.195312 18.804688 11.269531 C 18.894531 11.546875 19.191406 11.703125 19.472656 11.617188 C 19.753906 11.527344 19.910156 11.230469 19.824219 10.949219 C 19.464844 9.789062 18.960938 8.683594 18.320312 7.65625 C 17.367188 6.082031 16.074219 4.738281 14.535156 3.722656 L 14.351562 3.605469 C 13.9375 3.375 13.558594 3.082031 13.226562 2.738281 L 13.21875 2.632812 C 13.199219 2.335938 12.945312 2.113281 12.648438 2.132812 C 12.355469 2.152344 12.132812 2.40625 12.152344 2.703125 C 12.160156 2.777344 12.164062 2.847656 12.167969 2.90625 C 12.171875 2.9375 12.179688 2.972656 12.1875 3.003906 Z M 12.1875 3.003906 "/>
<path style=" stroke:none;fill-rule:nonzero;fill:rgb(255%,255%,255%);fill-opacity:1;" d="M 19.390625 14.960938 C 19.378906 15.960938 19.246094 16.957031 18.996094 17.925781 C 18.925781 18.246094 18.855469 18.570312 18.796875 18.902344 C 18.710938 19.386719 18.660156 19.875 18.636719 20.367188 C 18.613281 20.742188 18.601562 21.121094 18.609375 21.496094 C 18.613281 21.902344 18.636719 22.335938 18.675781 22.78125 C 18.851562 25.292969 19.777344 27.691406 21.328125 29.671875 C 21.449219 29.828125 21.644531 29.902344 21.835938 29.871094 C 22.027344 29.84375 22.1875 29.710938 22.253906 29.527344 C 22.320312 29.34375 22.28125 29.140625 22.152344 28.992188 C 20.746094 27.175781 19.90625 24.980469 19.738281 22.683594 C 19.699219 22.265625 19.679688 21.863281 19.675781 21.480469 C 19.667969 21.136719 19.679688 20.785156 19.703125 20.429688 C 19.722656 19.980469 19.769531 19.53125 19.847656 19.085938 C 19.902344 18.769531 19.972656 18.460938 20.046875 18.125 C 20.3125 17.082031 20.449219 16.015625 20.457031 14.941406 C 20.453125 14.652344 20.214844 14.417969 19.925781 14.417969 L 19.917969 14.417969 C 19.773438 14.421875 19.640625 14.480469 19.542969 14.582031 C 19.441406 14.683594 19.390625 14.820312 19.390625 14.960938 Z M 19.390625 14.960938 "/>
</g>
</svg>
