<svg height="32pt" viewBox="0 0 32 32" width="32pt" xmlns="http://www.w3.org/2000/svg"><g fill="#fff"><path d="m.535156 32.050781h25.589844c.292969 0 .53125-.238281.53125-.535156v-4.796875h3.730469c.296875 0 .535156-.238281.535156-.535156v-5.328125c0-.296875-.238281-.535157-.535156-.535157h-3.730469v-4.796874c0-.296876-.238281-.535157-.53125-.535157h-.980469c.074219-.347656-.003906-.710937-.21875-.996093l-2.40625-3.210938 1.109375-.835938c.496094-.371093.773438-.960937.738282-1.578124l-.054688-.960938c-.015625-.261719.101562-.511719.308594-.667969l1.113281-.832031.46875.621094c.085937.113281.210937.1875.351563.210937.023437 0 .050781.003907.074218.003907.117188 0 .226563-.039063.320313-.105469l4.398437-3.300781c.707032-.53125.851563-1.53125.320313-2.238282l-.296875-.398437c-.53125-.70312525-1.53125-.847657-2.238282-.316407l-4.398437 3.296876c-.234375.179687-.285156.511718-.105469.75l.464844.621093-1.109375.835938c-.496094.371093-.773437.960937-.738281 1.578125l.054687.960937c.015625.261719-.101562.511719-.308593.667969l-1.113282.832031-2.410156-3.210937c-.25-.339844-.660156-.527344-1.085938-.496094-.402343.027344-.761718.261719-.953124.617188l-4.382813 8.152343h-12.511719c-.296875 0-.535156.238281-.535156.535157v5.332031c0 .292969.238281.53125.535156.53125h3.730469v4.265625h-3.730469c-.296875 0-.535156.238281-.535156.53125v5.332031c0 .296875.238281.535156.535156.535156zm29.238282-30.816406c.234374-.175781.566406-.128906.746093.105469l.296875.398437c.175782.234375.125.566407-.109375.742188l-3.972656 2.980469-.933594-1.246094zm-20.175782 25.484375h7.460938v4.265625h-7.460938zm4.261719-5.332031h7.464844v4.265625h-7.464844zm11.730469 9.597656h-7.464844v-4.265625h7.464844zm4.265625-5.332031h-7.464844v-4.265625h7.464844zm-4.265625-5.332032h-7.464844v-3.105468l5.457031-1.160156h2.007813zm-7.222656-12.976562c.019531-.039062.054687-.0625.097656-.0625h.011718c.054688 0 .109376.027344.140626.074219l2.40625 3.210937-2.199219 1.648438c-.234375.179687-.28125.511718-.105469.75.175781.234375.511719.28125.746094.105468l2.199218-1.652343 2.410157 3.214843c.039062.046876.050781.109376.027343.164063-.011718.039063-.042968.070313-.085937.078125l-10.578125 2.246094c-.0625.011718-.128906-.015625-.167969-.070313-.042969-.050781-.050781-.121093-.023437-.183593zm-5.949219 10.347656c.285156.390625.769531.574219 1.242187.472656l3.398438-.722656v2.878906h-7.460938v-4.265624h2.875l-.164062.308593c-.226563.425781-.1875.945313.109375 1.328125zm-11.351563.496094h1.066406c.292969 0 .53125-.238281.53125-.53125 0-.296875-.238281-.535156-.53125-.535156h-1.066406v-1.066406h7.464844v4.265624h-7.464844zm4.265625 3.199219h7.464844v4.265625h-7.464844zm-4.265625 5.332031h7.464844v4.265625h-7.464844zm0 0"/><path d="m6.929688 17.65625c0-.296875-.238282-.535156-.53125-.535156h-2.132813c-.296875 0-.535156.238281-.535156.535156 0 .292969.238281.53125.535156.53125h2.132813c.292968 0 .53125-.238281.53125-.53125zm0 0"/></g></svg>