<svg height="32pt" viewBox="0 0 32 32" width="32pt" xmlns="http://www.w3.org/2000/svg"><g fill="#fff"><path d="m1.066406 20.800781h10.667969c.585937 0 1.066406-.476562 1.066406-1.066406v-7.46875c0-.585937-.480469-1.066406-1.066406-1.066406h-10.667969c-.589844 0-1.066406.480469-1.066406 1.066406v7.46875c0 .589844.476562 1.066406 1.066406 1.066406zm0-8.535156h10.667969v7.46875h-10.667969zm0 0"/><path d="m1.066406 32h4.265625c.589844 0 1.066407-.476562 1.066407-1.066406v-7.46875c0-.585938-.476563-1.0625-1.066407-1.066406h-4.265625c-.589844.003906-1.066406.480468-1.066406 1.066406v7.46875c0 .589844.476562 1.066406 1.066406 1.066406zm0-8.535156h4.265625l.003907 7.46875h-4.269532zm0 0"/><path d="m30.933594 0h-29.867188c-.589844 0-1.066406.476562-1.066406 1.066406v7.46875c0 .585938.476562 1.0625 1.066406 1.066406h14.683594c.300781.507813.5625 1.046876.773438 1.597657h-1.058594c-.585938 0-1.0625.480469-1.066406 1.066406v7.46875c.003906.585937.480468 1.066406 1.066406 1.066406h1.027344c-.007813.238281-.019532.480469-.019532.71875.003906.285157.019532.578125.039063.878907h-7.445313c-.589844.003906-1.066406.480468-1.066406 1.066406v7.46875c0 .589844.476562 1.066406 1.066406 1.066406h21.867188c.589844 0 1.066406-.476562 1.066406-1.066406v-29.867188c0-.589844-.476562-1.066406-1.066406-1.066406zm-29.867188 1.066406h8.929688c-.035156.746094-.011719 1.496094.074218 2.238282.292969 1.53125 1.488282 2.304687 2.542969 2.988281l.171875.109375c.871094.574218 1.632813 1.296875 2.257813 2.132812h-13.976563zm14.398438 11.199219h1.402344c.242187.890625.375 1.808594.390624 2.730469-.015624.824218-.128906 1.644531-.335937 2.441406-.082031.359375-.160156.71875-.226563 1.09375-.070312.390625-.113281.796875-.148437 1.203125h-1.082031zm-6.398438 11.199219h7.550782c.28125 2.71875 1.320312 5.304687 2.992187 7.46875h-10.542969zm21.867188 7.46875h-9.910156c-2.003907-2.226563-3.203126-5.058594-3.410157-8.046875-.042969-.480469-.066406-.941407-.070312-1.378907-.007813-.398437.003906-.804687.03125-1.214843.023437-.527344.082031-1.054688.171875-1.574219.0625-.359375.140625-.707031.214844-1.054688.230468-.875.351562-1.777343.363281-2.683593-.019531-1.15625-.199219-2.304688-.539063-3.40625-.304687-.980469-.730468-1.917969-1.273437-2.789063-.792969-1.308594-1.867188-2.429687-3.144531-3.273437l-.175782-.113281c-1-.648438-1.867187-1.210938-2.074218-2.28125-.0625-.679688-.082032-1.367188-.058594-2.050782h19.875zm0 0"/><path d="m12.1875 3.003906c.160156.550782.707031.929688 1.585938 1.496094l.179687.117188c1.40625.929687 2.589844 2.160156 3.460937 3.601562.59375.953125 1.058594 1.976562 1.390626 3.050781.089843.277344.386718.433594.667968.347657.28125-.089844.4375-.386719.351563-.667969-.359375-1.160157-.863281-2.265625-1.503907-3.292969-.953124-1.574219-2.246093-2.917969-3.785156-3.933594l-.183594-.117187c-.414062-.230469-.792968-.523438-1.125-.867188l-.007812-.105469c-.019531-.296874-.273438-.519531-.570312-.5-.292969.019532-.515626.273438-.496094.570313.007812.074219.011718.144531.015625.203125.003906.03125.011719.066406.019531.097656zm0 0"/><path d="m19.390625 14.960938c-.011719 1-.144531 1.996093-.394531 2.964843-.070313.320313-.140625.644531-.199219.976563-.085937.484375-.136719.972656-.160156 1.464844-.023438.375-.035157.753906-.027344 1.128906.003906.40625.027344.839844.066406 1.285156.175781 2.511719 1.101563 4.910156 2.652344 6.890625.121094.15625.316406.230469.507813.199219.191406-.027344.351562-.160156.417968-.34375s.027344-.386719-.101562-.535156c-1.40625-1.816407-2.246094-4.011719-2.414063-6.308594-.039062-.417969-.058593-.820313-.0625-1.203125-.007812-.34375.003907-.695313.027344-1.050781.019531-.449219.066406-.898438.144531-1.34375.054688-.316407.125-.625.199219-.960938.265625-1.042969.402344-2.109375.410156-3.183594-.003906-.289062-.242187-.523437-.53125-.523437h-.007812c-.144531.003906-.277344.0625-.375.164062-.101563.101563-.152344.238281-.152344.378907zm0 0"/></g></svg>