<svg height="24pt" viewBox="0 0 24 24" width="24pt" xmlns="http://www.w3.org/2000/svg"><path d="m22.5 15h-13c-.828125 0-1.5-.671875-1.5-1.5v-3c0-.828125.671875-1.5 1.5-1.5h13c.828125 0 1.5.671875 1.5 1.5v3c0 .828125-.671875 1.5-1.5 1.5zm-13-5c-.277344 0-.5.222656-.5.5v3c0 .277344.222656.5.5.5h13c.277344 0 .5-.222656.5-.5v-3c0-.277344-.222656-.5-.5-.5zm0 0"/><path d="m22.5 24h-13c-.828125 0-1.5-.671875-1.5-1.5v-3c0-.828125.671875-1.5 1.5-1.5h13c.828125 0 1.5.671875 1.5 1.5v3c0 .828125-.671875 1.5-1.5 1.5zm-13-5c-.277344 0-.5.222656-.5.5v3c0 .277344.222656.5.5.5h13c.277344 0 .5-.222656.5-.5v-3c0-.277344-.222656-.5-.5-.5zm0 0"/><path d="m3 15c-1.652344 0-3-1.347656-3-3s1.347656-3 3-3 3 1.347656 3 3-1.347656 3-3 3zm0-5c-1.101562 0-2 .898438-2 2s.898438 2 2 2 2-.898438 2-2-.898438-2-2-2zm0 0"/><path d="m22.5 6h-13c-.828125 0-1.5-.671875-1.5-1.5v-3c0-.828125.671875-1.5 1.5-1.5h13c.828125 0 1.5.671875 1.5 1.5v3c0 .828125-.671875 1.5-1.5 1.5zm-13-5c-.277344 0-.5.222656-.5.5v3c0 .277344.222656.5.5.5h13c.277344 0 .5-.222656.5-.5v-3c0-.277344-.222656-.5-.5-.5zm0 0"/><path d="m3 6c-1.652344 0-3-1.347656-3-3s1.347656-3 3-3 3 1.347656 3 3-1.347656 3-3 3zm0-5c-1.101562 0-2 .898438-2 2s.898438 2 2 2 2-.898438 2-2-.898438-2-2-2zm0 0"/><path d="m3 24c-1.652344 0-3-1.347656-3-3s1.347656-3 3-3 3 1.347656 3 3-1.347656 3-3 3zm0-5c-1.101562 0-2 .898438-2 2s.898438 2 2 2 2-.898438 2-2-.898438-2-2-2zm0 0"/></svg>