<svg height="24pt" viewBox="0 0 24 24" width="24pt" xmlns="http://www.w3.org/2000/svg"><path d="m4.890625 15.953125c2.367187 2.832031 5.214844 5.058594 8.46875 6.632813 1.238281.589843 2.894531 1.285156 4.738281 1.402343.117188.007813.226563.011719.339844.011719 1.238281 0 2.234375-.425781 3.042969-1.308594.003906-.003906.015625-.015625.019531-.023437.289062-.347657.617188-.664063.960938-.996094.234374-.222656.472656-.457031.699218-.695313 1.0625-1.105468 1.0625-2.507812-.007812-3.574218l-2.988282-2.992188c-.507812-.523437-1.117187-.804687-1.75-.804687-.636718 0-1.25.28125-1.773437.800781l-1.777344 1.78125c-.164062-.09375-.335937-.179688-.496093-.257812-.195313-.101563-.382813-.195313-.546876-.300782-1.621093-1.027344-3.089843-2.371094-4.5-4.097656-.710937-.898438-1.1875-1.65625-1.519531-2.425781.464844-.421875.902344-.863281 1.328125-1.296875.148438-.15625.300782-.308594.457032-.464844.535156-.535156.824218-1.15625.824218-1.789062 0-.632813-.28125-1.253907-.824218-1.789063l-1.484376-1.484375c-.171874-.171875-.335937-.339844-.503906-.515625-.328125-.339844-.671875-.6875-1.011718-1-.511719-.503906-1.113282-.765625-1.75-.765625-.632813 0-1.238282.261719-1.769532.769531l-1.859375 1.859375c-.679687.679688-1.0625 1.5-1.1406248 2.449219-.09375 1.1875.1249998 2.449219.6914058 3.976563.871094 2.363281 2.183594 4.554687 4.132813 6.898437zm-3.609375-10.769531c.058594-.664063.3125-1.214844.789062-1.691406l1.851563-1.851563c.289063-.277344.605469-.421875.914063-.421875.304687 0 .613281.144531.894531.433594.332031.308594.648437.628906.984375.972656.167968.175781.34375.347656.519531.527344l1.480469 1.484375c.308594.304687.46875.621093.46875.929687s-.160156.621094-.46875.929688c-.152344.152344-.308594.3125-.460938.464844-.464844.46875-.898437.910156-1.375 1.335937-.007812.007813-.015625.011719-.023437.023437-.414063.414063-.347657.804688-.25 1.105469.003906.011719.011719.023438.015625.039063.382812.917968.914062 1.792968 1.746094 2.839844 1.492187 1.839843 3.0625 3.265624 4.792968 4.363281.214844.140625.441406.25.65625.359375.199219.101562.382813.195312.546875.296875.019531.011719.035157.023437.054688.03125.164062.085937.324219.125.484375.125.398437 0 .65625-.253907.738281-.339844l1.863281-1.859375c.285156-.289062.601563-.441406.910156-.441406.375 0 .683594.234375.878907.441406l3 2.996094c.59375.59375.589843 1.242187-.015625 1.875-.210938.222656-.429688.4375-.664063.660156-.347656.339844-.710937.6875-1.039062 1.078125-.570313.617187-1.25.90625-2.132813.90625-.082031 0-.171875-.003906-.257812-.011719-1.632813-.101562-3.148438-.738281-4.285156-1.28125-3.09375-1.496094-5.808594-3.621094-8.0625-6.316406-1.855469-2.234375-3.105469-4.3125-3.929688-6.539062-.511719-1.367188-.707031-2.46875-.625-3.464844zm0 0"/></svg>