<svg height="24pt" viewBox="0 0 24 24" width="24pt" xmlns="http://www.w3.org/2000/svg"><g fill="#222"><path d="m12 0c-6.621094 0-12 5.378906-12 12s5.378906 12 12 12 12-5.378906 12-12-5.378906-12-12-12zm0 22.789062c-5.945312 0-10.789062-4.84375-10.789062-10.789062s4.84375-10.789062 10.789062-10.789062 10.789062 4.84375 10.789062 10.789062-4.84375 10.789062-10.789062 10.789062zm0 0"/><path d="m12.84375 11.945312 3.523438-3.523437c.222656-.226563.222656-.617187 0-.84375-.226563-.226563-.621094-.226563-.847657 0l-3.519531 3.519531-3.519531-3.519531c-.226563-.226563-.621094-.226563-.847657 0-.222656.226563-.222656.617187 0 .84375l3.523438 3.523437-3.523438 3.492188c-.222656.222656-.222656.617188 0 .84375.113282.113281.28125.167969.421876.167969.140624 0 .3125-.054688.425781-.167969l3.519531-3.519531 3.519531 3.519531c.113281.113281.285157.167969.425781.167969.140626 0 .308594-.054688.421876-.167969.222656-.226562.222656-.621094 0-.84375zm0 0"/></g></svg>