<svg height="32pt" viewBox="0 0 32 32" width="32pt" xmlns="http://www.w3.org/2000/svg"><g fill="#fff"><path d="m27.199219.535156c-2.441407 0-4.492188 1.835938-4.769531 4.265625h-22.429688v1.066407h2.132812v1.066406h-2.132812v1.066406h2.132812v1.066406h-2.132812v1.066406h2.132812v1.066407h-2.132812v1.066406h2.132812v1.066406h-2.132812v1.066407h2.132812v1.066406h-2.132812v1.070312h2.132812v1.066406h-2.132812v1.066407h2.132812v1.066406h-2.132812v1.066406h2.132812v1.066407h-2.132812v1.066406h2.132812v1.066406h-2.132812v1.066406h2.132812v1.066406h-2.132812v1.066407h2.132812v1.066406h-2.132812v1.066406h2.132812v1.066407h-2.132812v1.066406h27.199219c2.652343 0 4.796875-2.148438 4.800781-4.796875v-21.335938c0-1.273437-.503906-2.492187-1.402344-3.394531-.902344-.902344-2.125-1.40625-3.398437-1.402344zm-4.675781 27.199219h-13.988282v-2.132813c0-.296874-.242187-.535156-.535156-.535156h-2.132812v-13.867187h2.132812c.292969 0 .535156-.238281.535156-.53125v-2.132813h13.863282v1.597656h-11.730469c-.296875 0-.535157.238282-.535157.535157v2.132812h-2.132812c-.292969 0-.535156.238281-.535156.53125v9.601563c0 .292968.242187.53125.535156.53125h2.132812v2.136718c0 .292969.238282.53125.535157.53125h11.730469v.535157c.003906.359375.042968.714843.125 1.066406zm-.125-5.335937h-8.53125v-2.132813c0-.292969-.238282-.53125-.535157-.53125h-2.132812v-3.199219h2.132812c.296875 0 .535157-.242187.535157-.535156v-2.132812h8.53125zm0-9.597657h-9.066407c-.292969 0-.53125.238281-.53125.53125v2.132813h-2.132812c-.296875 0-.535157.242187-.535157.535156v4.265625c0 .296875.238282.535156.535157.535156h2.132812v2.132813c0 .292968.238281.53125.53125.53125h9.066407v1.601562h-11.199219v-2.132812c0-.292969-.238281-.535156-.53125-.535156h-2.132813v-8.53125h2.132813c.292969 0 .53125-.238282.53125-.535157v-2.132812h11.199219zm-19.199219 17.597657v-24.53125h19.199219v1.597656h-14.398438c-.292969 0-.535156.242187-.535156.535156v2.132812h-2.132813c-.292969 0-.53125.238282-.53125.535157v14.933593c0 .292969.238281.53125.53125.53125h2.132813v2.132813c0 .296875.242187.535156.535156.535156h14.90625c.308594.617188.746094 1.164063 1.285156 1.597657zm24 0c-2.0625 0-3.734375-1.667969-3.734375-3.730469s1.671875-3.734375 3.734375-3.734375 3.734375 1.671875 3.734375 3.734375c-.003906 2.058593-1.671875 3.730469-3.734375 3.730469zm3.734375-6.742188c-.910156-1.132812-2.28125-1.789062-3.734375-1.789062-1.449219 0-2.824219.65625-3.734375 1.789062v-18.324219c0-2.0625 1.671875-3.730469 3.734375-3.730469s3.734375 1.667969 3.734375 3.730469zm0 0"/><path d="m4.800781 7.464844h1.066407v1.070312h-1.066407zm0 0"/><path d="m4.800781 27.734375h1.066407v1.066406h-1.066407zm0 0"/><path d="m27.199219 24c-1.472657 0-2.664063 1.195312-2.664063 2.667969 0 1.472656 1.191406 2.664062 2.664063 2.664062 1.472656 0 2.667969-1.191406 2.667969-2.664062-.003907-1.472657-1.195313-2.667969-2.667969-2.667969zm0 4.265625c-.882813 0-1.597657-.714844-1.597657-1.597656 0-.886719.714844-1.601563 1.597657-1.601563.882812 0 1.601562.714844 1.601562 1.601563 0 .882812-.71875 1.597656-1.601562 1.597656zm0 0"/></g></svg>