<?xml version="1.0" encoding="UTF-8"?>
<svg xmlns="http://www.w3.org/2000/svg" xmlns:xlink="http://www.w3.org/1999/xlink" width="32pt" height="32pt" viewBox="0 0 32 32" version="1.1">
<g id="surface1">
<path style=" stroke:none;fill-rule:nonzero;fill:rgb(255,255,255);fill-opacity:1;" d="M 27.199219 0.535156 C 24.757812 0.535156 22.707031 2.371094 22.429688 4.800781 L 0 4.800781 L 0 5.867188 L 2.132812 5.867188 L 2.132812 6.933594 L 0 6.933594 L 0 8 L 2.132812 8 L 2.132812 9.066406 L 0 9.066406 L 0 10.132812 L 2.132812 10.132812 L 2.132812 11.199219 L 0 11.199219 L 0 12.265625 L 2.132812 12.265625 L 2.132812 13.332031 L 0 13.332031 L 0 14.398438 L 2.132812 14.398438 L 2.132812 15.464844 L 0 15.464844 L 0 16.535156 L 2.132812 16.535156 L 2.132812 17.601562 L 0 17.601562 L 0 18.667969 L 2.132812 18.667969 L 2.132812 19.734375 L 0 19.734375 L 0 20.800781 L 2.132812 20.800781 L 2.132812 21.867188 L 0 21.867188 L 0 22.933594 L 2.132812 22.933594 L 2.132812 24 L 0 24 L 0 25.066406 L 2.132812 25.066406 L 2.132812 26.132812 L 0 26.132812 L 0 27.199219 L 2.132812 27.199219 L 2.132812 28.265625 L 0 28.265625 L 0 29.332031 L 2.132812 29.332031 L 2.132812 30.398438 L 0 30.398438 L 0 31.464844 L 27.199219 31.464844 C 29.851562 31.464844 31.996094 29.316406 32 26.667969 L 32 5.332031 C 32 4.058594 31.496094 2.839844 30.597656 1.9375 C 29.695312 1.035156 28.472656 0.53125 27.199219 0.535156 Z M 22.523438 27.734375 L 8.535156 27.734375 L 8.535156 25.601562 C 8.535156 25.304688 8.292969 25.066406 8 25.066406 L 5.867188 25.066406 L 5.867188 11.199219 L 8 11.199219 C 8.292969 11.199219 8.535156 10.960938 8.535156 10.667969 L 8.535156 8.535156 L 22.398438 8.535156 L 22.398438 10.132812 L 10.667969 10.132812 C 10.371094 10.132812 10.132812 10.371094 10.132812 10.667969 L 10.132812 12.800781 L 8 12.800781 C 7.707031 12.800781 7.464844 13.039062 7.464844 13.332031 L 7.464844 22.933594 C 7.464844 23.226562 7.707031 23.464844 8 23.464844 L 10.132812 23.464844 L 10.132812 25.601562 C 10.132812 25.894531 10.371094 26.132812 10.667969 26.132812 L 22.398438 26.132812 L 22.398438 26.667969 C 22.402344 27.027344 22.441406 27.382812 22.523438 27.734375 Z M 22.398438 22.398438 L 13.867188 22.398438 L 13.867188 20.265625 C 13.867188 19.972656 13.628906 19.734375 13.332031 19.734375 L 11.199219 19.734375 L 11.199219 16.535156 L 13.332031 16.535156 C 13.628906 16.535156 13.867188 16.292969 13.867188 16 L 13.867188 13.867188 L 22.398438 13.867188 Z M 22.398438 12.800781 L 13.332031 12.800781 C 13.039062 12.800781 12.800781 13.039062 12.800781 13.332031 L 12.800781 15.464844 L 10.667969 15.464844 C 10.371094 15.464844 10.132812 15.707031 10.132812 16 L 10.132812 20.265625 C 10.132812 20.5625 10.371094 20.800781 10.667969 20.800781 L 12.800781 20.800781 L 12.800781 22.933594 C 12.800781 23.226562 13.039062 23.464844 13.332031 23.464844 L 22.398438 23.464844 L 22.398438 25.066406 L 11.199219 25.066406 L 11.199219 22.933594 C 11.199219 22.640625 10.960938 22.398438 10.667969 22.398438 L 8.535156 22.398438 L 8.535156 13.867188 L 10.667969 13.867188 C 10.960938 13.867188 11.199219 13.628906 11.199219 13.332031 L 11.199219 11.199219 L 22.398438 11.199219 Z M 3.199219 30.398438 L 3.199219 5.867188 L 22.398438 5.867188 L 22.398438 7.464844 L 8 7.464844 C 7.707031 7.464844 7.464844 7.707031 7.464844 8 L 7.464844 10.132812 L 5.332031 10.132812 C 5.039062 10.132812 4.800781 10.371094 4.800781 10.667969 L 4.800781 25.601562 C 4.800781 25.894531 5.039062 26.132812 5.332031 26.132812 L 7.464844 26.132812 L 7.464844 28.265625 C 7.464844 28.5625 7.707031 28.800781 8 28.800781 L 22.90625 28.800781 C 23.214844 29.417969 23.652344 29.964844 24.191406 30.398438 Z M 27.199219 30.398438 C 25.136719 30.398438 23.464844 28.730469 23.464844 26.667969 C 23.464844 24.605469 25.136719 22.933594 27.199219 22.933594 C 29.261719 22.933594 30.933594 24.605469 30.933594 26.667969 C 30.929688 28.726562 29.261719 30.398438 27.199219 30.398438 Z M 30.933594 23.65625 C 30.023438 22.523438 28.652344 21.867188 27.199219 21.867188 C 25.75 21.867188 24.375 22.523438 23.464844 23.65625 L 23.464844 5.332031 C 23.464844 3.269531 25.136719 1.601562 27.199219 1.601562 C 29.261719 1.601562 30.933594 3.269531 30.933594 5.332031 Z M 30.933594 23.65625 "/>
<path style=" stroke:none;fill-rule:nonzero;fill:rgb(255,255,255);fill-opacity:1;" d="M 4.800781 7.464844 L 5.867188 7.464844 L 5.867188 8.535156 L 4.800781 8.535156 Z M 4.800781 7.464844 "/>
<path style=" stroke:none;fill-rule:nonzero;fill:rgb(255,255,255);fill-opacity:1;" d="M 4.800781 27.734375 L 5.867188 27.734375 L 5.867188 28.800781 L 4.800781 28.800781 Z M 4.800781 27.734375 "/>
<path style=" stroke:none;fill-rule:nonzero;fill:rgb(255,255,255);fill-opacity:1;" d="M 27.199219 24 C 25.726562 24 24.535156 25.195312 24.535156 26.667969 C 24.535156 28.140625 25.726562 29.332031 27.199219 29.332031 C 28.671875 29.332031 29.867188 28.140625 29.867188 26.667969 C 29.863281 25.195312 28.671875 24 27.199219 24 Z M 27.199219 28.265625 C 26.316406 28.265625 25.601562 27.550781 25.601562 26.667969 C 25.601562 25.78125 26.316406 25.066406 27.199219 25.066406 C 28.082031 25.066406 28.800781 25.78125 28.800781 26.667969 C 28.800781 27.550781 28.082031 28.265625 27.199219 28.265625 Z M 27.199219 28.265625 "/>
</g>
</svg>
