<svg height="32pt" viewBox="0 0 32 32" width="32pt" xmlns="http://www.w3.org/2000/svg"><g fill="#fff"><path d="m30.5 5h-15.5v1h2.292969l-1.648438 1.644531.710938.710938 2.351562-2.355469h2.085938l-3.148438 3.144531.710938.710938 3.851562-3.855469h2.085938l-3.148438 3.144531.710938.710938 3.851562-3.855469h2.085938l-2.148438 2.144531.710938.710938 2.851562-2.855469h.792969v1.292969l-7.855469 7.851562.710938.710938 7.144531-7.148438v2.085938l-7.855469 7.851562.710938.710938 7.144531-7.148438v2.085938l-8.355469 8.351562.710938.710938 7.644531-7.648438v2.085938l-10.207031 10.207031h-2.085938l3.648438-3.644531-.710938-.710938-4.351562 4.355469h-2.085938l.648438-.644531-.710938-.710938-1.351562 1.355469h-6.292969c-1.378906 0-2.5-1.121094-2.5-2.5s1.121094-2.5 2.5-2.5h2c.277344 0 .5.222656.5.5s-.222656.5-.5.5h-2.5c-.277344 0-.5.222656-.5.5v2c0 .277344.222656.5.5.5h2.5c1.933594-.003906 3.496094-1.566406 3.5-3.5v-19c-.003906-1.933594-1.566406-3.496094-3.5-3.5h-2c-3.035156.003906-5.496094 2.464844-5.5 5.5v19c.003906 3.035156 2.464844 5.496094 5.5 5.5h24c.277344 0 .5-.222656.5-.5v-25c0-.277344-.222656-.5-.5-.5zm-.5 23h-1.792969l1.792969-1.792969zm0-8.792969v2.085938l-3.355469 3.351562.710938.710938 2.644531-2.648438v2.085938l-3.207031 3.207031h-2.085938l1.648438-1.644531-.710938-.710938-2.351562 2.355469h-2.085938zm-28-12.707031c.003906-2.484375 2.015625-4.496094 4.5-4.5h2c1.378906 0 2.5 1.121094 2.5 2.5v1.054688c-.65625-.675782-1.558594-1.054688-2.5-1.054688h-1.5v1h1.5c1.378906 0 2.5 1.121094 2.5 2.5v.554688c-.65625-.675782-1.558594-1.054688-2.5-1.054688h-1.5v1h1.5c1.378906 0 2.5 1.121094 2.5 2.5v.554688c-.65625-.675782-1.558594-1.054688-2.5-1.054688h-1.5v1h1.5c1.378906 0 2.5 1.121094 2.5 2.5v.554688c-.65625-.675782-1.558594-1.054688-2.5-1.054688h-1.5v1h1.5c1.378906 0 2.5 1.121094 2.5 2.5v.554688c-.65625-.675782-1.558594-1.054688-2.5-1.054688h-1.5v1h1.5c1.378906 0 2.5 1.121094 2.5 2.5v1.054688c-.65625-.675782-1.558594-1.054688-2.5-1.054688h-2c-1.792969 0-3.472656.875-4.5 2.339844zm28 23.5h-23.5c-2.484375 0-4.5-2.015625-4.5-4.5s2.015625-4.5 4.5-4.5h2c1.378906 0 2.5 1.121094 2.5 2.5s-1.121094 2.5-2.5 2.5h-2v-1h2c.828125 0 1.5-.671875 1.5-1.5s-.671875-1.5-1.5-1.5h-2c-1.933594 0-3.5 1.566406-3.5 3.5s1.566406 3.5 3.5 3.5h23.5zm0 0"/><path d="m13 5h1v1h-1zm0 0"/><path d="m5 4.5h1v1h-1zm0 0"/><path d="m5 7.5h1v1h-1zm0 0"/><path d="m5 10.5h1v1h-1zm0 0"/><path d="m5 13.5h1v1h-1zm0 0"/><path d="m5 16.5h1v1h-1zm0 0"/><path d="m15.644531 14.644531 4.5-4.496093.707031.703124-4.5 4.5zm0 0"/><path d="m13.144531 17.144531 1.5-1.5.707031.707031-1.5 1.5zm0 0"/><path d="m13.144531 13.644531 3.5-3.5.707031.707031-3.5 3.5zm0 0"/><path d="m13.144531 10.144531 1.5-1.5.707031.707031-1.5 1.5zm0 0"/><path d="m13.644531 20.144531 10.996094-10.996093.707031.707031-10.996094 10.996093zm0 0"/><path d="m15.144531 22.144531 5.996094-5.996093.707031.707031-5.996094 5.996093zm0 0"/><path d="m13.144531 24.144531 1-1 .707031.707031-1 1zm0 0"/><path d="m15.140625 25.644531 6-6 .707031.707031-6 6zm0 0"/></g></svg>