<svg fill="#0e4ed5" height="24pt" viewBox="0 0 24 24" width="24pt" xmlns="http://www.w3.org/2000/svg"><path d="m12 0c-6.617188 0-12 5.382812-12 12 0 2.308594.648438 4.523438 1.871094 6.433594l-1.8164065 4.539062c-.1132813.277344-.046875.59375.1640625.808594.144531.140625.335938.21875.53125.21875.09375 0 .1875-.019531.277344-.054688l4.539062-1.816406c1.910156 1.222656 4.125 1.871094 6.433594 1.871094 6.617188 0 12-5.382812 12-12s-5.382812-12-12-12zm0 22.5c-2.140625 0-4.1875-.632812-5.917969-1.832031-.128906-.089844-.277343-.132813-.425781-.132813-.097656 0-.191406.019532-.28125.054688l-3.277344 1.3125 1.3125-3.277344c.09375-.234375.0625-.5-.078125-.707031-1.199219-1.730469-1.832031-3.777344-1.832031-5.917969 0-5.789062 4.710938-10.5 10.5-10.5s10.5 4.710938 10.5 10.5-4.710938 10.5-10.5 10.5zm0 0"/></svg>