<?xml version="1.0" encoding="UTF-8"?>
<svg xmlns="http://www.w3.org/2000/svg" xmlns:xlink="http://www.w3.org/1999/xlink" width="12pt" height="12pt" viewBox="0 0 12 12" version="1.1" fill="#3273f5">
<g id="surface1">
<path d="M 11.488281 0.300781 L 3.109375 0.300781 C 2.828125 0.300781 2.597656 0.527344 2.597656 0.808594 L 2.597656 3.121094 L 2.214844 2.546875 C 2.039062 2.28125 1.6875 2.203125 1.414062 2.367188 L 0.625 2.839844 C 0.367188 2.992188 0.179688 3.238281 0.0976562 3.527344 C -0.191406 4.574219 0.0234375 6.378906 2.671875 9.027344 C 4.777344 11.132812 6.347656 11.699219 7.429688 11.699219 C 7.683594 11.699219 7.929688 11.667969 8.171875 11.601562 C 8.460938 11.523438 8.707031 11.332031 8.859375 11.074219 L 9.332031 10.285156 C 9.496094 10.015625 9.417969 9.660156 9.152344 9.484375 L 7.265625 8.226562 C 7.003906 8.054688 6.660156 8.113281 6.464844 8.355469 L 5.917969 9.0625 C 5.859375 9.140625 5.753906 9.160156 5.671875 9.117188 L 5.566406 9.058594 C 5.222656 8.871094 4.792969 8.636719 3.929688 7.769531 C 3.835938 7.675781 3.75 7.589844 3.671875 7.507812 L 11.488281 7.507812 C 11.769531 7.507812 12 7.28125 12 7 L 12 0.808594 C 12 0.527344 11.769531 0.300781 11.488281 0.300781 Z M 5.375 9.410156 L 5.476562 9.464844 C 5.734375 9.609375 6.054688 9.542969 6.234375 9.308594 L 6.78125 8.601562 C 6.84375 8.523438 6.957031 8.503906 7.042969 8.558594 L 8.929688 9.820312 C 9.015625 9.875 9.042969 9.992188 8.988281 10.078125 L 8.515625 10.867188 C 8.417969 11.039062 8.257812 11.164062 8.066406 11.214844 C 7.121094 11.476562 5.46875 11.257812 2.957031 8.746094 C 0.441406 6.234375 0.222656 4.578125 0.484375 3.632812 C 0.539062 3.445312 0.660156 3.285156 0.832031 3.183594 L 1.621094 2.710938 C 1.710938 2.65625 1.824219 2.683594 1.882812 2.769531 L 3.140625 4.65625 C 3.195312 4.742188 3.175781 4.855469 3.097656 4.917969 L 2.390625 5.46875 C 2.160156 5.644531 2.09375 5.96875 2.234375 6.222656 L 2.292969 6.324219 C 2.492188 6.691406 2.738281 7.148438 3.648438 8.054688 C 4.554688 8.960938 5.007812 9.210938 5.375 9.410156 Z M 11.601562 7 C 11.597656 7.058594 11.550781 7.105469 11.488281 7.105469 L 3.308594 7.105469 C 3.050781 6.808594 2.828125 6.484375 2.644531 6.132812 L 2.585938 6.027344 C 2.539062 5.945312 2.5625 5.839844 2.636719 5.785156 L 3.34375 5.234375 C 3.589844 5.042969 3.644531 4.695312 3.472656 4.4375 L 2.996094 3.722656 L 2.996094 0.808594 C 2.996094 0.78125 3.007812 0.753906 3.03125 0.730469 C 3.050781 0.710938 3.078125 0.699219 3.109375 0.699219 L 11.488281 0.699219 C 11.519531 0.699219 11.546875 0.710938 11.566406 0.730469 C 11.589844 0.753906 11.601562 0.78125 11.601562 0.808594 Z M 11.601562 7 "/>
<path d="M 10.800781 1.226562 L 7.457031 3.761719 C 7.363281 3.832031 7.234375 3.832031 7.140625 3.761719 L 3.796875 1.226562 C 3.710938 1.160156 3.585938 1.175781 3.519531 1.265625 C 3.449219 1.351562 3.46875 1.480469 3.554688 1.546875 L 6.898438 4.082031 C 7.136719 4.257812 7.460938 4.257812 7.699219 4.082031 L 11.042969 1.546875 C 11.085938 1.511719 11.113281 1.464844 11.121094 1.414062 C 11.128906 1.359375 11.113281 1.308594 11.082031 1.265625 C 11.015625 1.175781 10.890625 1.160156 10.800781 1.226562 Z M 10.800781 1.226562 "/>
<path d="M 5.589844 4.097656 L 3.542969 6.292969 C 3.46875 6.375 3.472656 6.5 3.550781 6.574219 C 3.632812 6.648438 3.757812 6.644531 3.835938 6.566406 L 5.882812 4.371094 C 5.953125 4.289062 5.945312 4.167969 5.867188 4.09375 C 5.789062 4.023438 5.667969 4.023438 5.589844 4.097656 Z M 5.589844 4.097656 "/>
<path d="M 9.019531 4.097656 C 8.945312 4.015625 8.816406 4.011719 8.738281 4.085938 C 8.65625 4.164062 8.652344 4.289062 8.726562 4.371094 L 10.773438 6.566406 C 10.851562 6.644531 10.976562 6.652344 11.058594 6.574219 C 11.140625 6.5 11.144531 6.375 11.066406 6.292969 Z M 9.019531 4.097656 "/>
</g>
</svg>
