<svg fill="#3273f5" height="12pt" viewBox="0 0 12 12" width="12pt" xmlns="http://www.w3.org/2000/svg"><path d="m11.488281.300781h-8.378906c-.28125 0-.511719.226563-.511719.507813v2.3125l-.382812-.574219c-.175782-.265625-.527344-.34375-.800782-.179687l-.789062.472656c-.257812.152344-.445312.398437-.5273438.6875-.2890622 1.046875-.0742187 2.851562 2.5742188 5.5 2.105469 2.105468 3.675781 2.671875 4.757813 2.671875.253906 0 .5-.03125.742187-.097657.289063-.078124.535156-.269531.6875-.527343l.472656-.789063c.164063-.269531.085938-.625-.179687-.800781l-1.886719-1.257813c-.261719-.171874-.605469-.113281-.800781.128907l-.546875.707031c-.058594.078125-.164063.097656-.246094.054688l-.105469-.058594c-.34375-.1875-.773437-.421875-1.636718-1.289063-.09375-.09375-.179688-.179687-.257813-.261719h7.816406c.28125 0 .511719-.226562.511719-.507812v-6.191406c0-.28125-.230469-.507813-.511719-.507813zm-6.113281 9.109375.101562.054688c.257813.144531.578126.078125.757813-.15625l.546875-.707032c.0625-.078124.175781-.097656.261719-.042968l1.886719 1.261718c.085937.054688.113281.171876.058593.257813l-.472656.789063c-.097656.171874-.257813.296874-.449219.347656-.945312.261718-2.597656.042968-5.109375-2.46875-2.515625-2.511719-2.734375-4.167969-2.472656-5.113282.054687-.1875.175781-.347656.347656-.449218l.789063-.472656c.089844-.054688.203125-.027344.261718.058593l1.257813 1.886719c.054687.085938.035156.199219-.042969.261719l-.707031.550781c-.230469.175781-.296875.5-.15625.753906l.058594.101563c.199219.367187.445312.824219 1.355469 1.730469.90625.90625 1.359374 1.15625 1.726562 1.355468zm6.226562-2.410156c-.003906.058594-.050781.105469-.113281.105469h-8.179687c-.257813-.296875-.480469-.621094-.664063-.972657l-.058593-.105468c-.046876-.082032-.023438-.1875.050781-.242188l.707031-.550781c.246094-.191406.300781-.539063.128906-.796875l-.476562-.714844v-2.914062c0-.027344.011718-.054688.035156-.078125.019531-.019531.046875-.03125.078125-.03125h8.378906c.03125 0 .058594.011719.078125.03125.023438.023437.035156.050781.035156.078125zm0 0"/><path d="m10.800781 1.226562-3.34375 2.535157c-.09375.070312-.222656.070312-.316406 0l-3.34375-2.535157c-.085937-.066406-.210937-.050781-.277344.039063-.070312.085937-.050781.214844.035157.28125l3.34375 2.535156c.238281.175781.5625.175781.800781 0l3.34375-2.535156c.042969-.035156.070312-.082031.078125-.132813.007812-.054687-.007813-.105468-.039063-.148437-.066406-.089844-.191406-.105469-.28125-.039063zm0 0"/><path d="m5.589844 4.097656-2.046875 2.195313c-.074219.082031-.070313.207031.007812.28125.082031.074219.207031.070312.285157-.007813l2.046874-2.195312c.070313-.082032.0625-.203125-.015624-.277344-.078126-.070312-.199219-.070312-.277344.003906zm0 0"/><path d="m9.019531 4.097656c-.074219-.082031-.203125-.085937-.28125-.011718-.082031.078124-.085937.203124-.011719.285156l2.046876 2.195312c.078124.078125.203124.085938.285156.007813.082031-.074219.085937-.199219.007812-.28125zm0 0"/></svg>