<?xml version="1.0" encoding="UTF-8"?>
<svg xmlns="http://www.w3.org/2000/svg" xmlns:xlink="http://www.w3.org/1999/xlink" width="32pt" height="32pt" viewBox="0 0 32 32" version="1.1">
<g id="surface1">
<path style=" stroke:none;fill-rule:nonzero;fill:rgb(255,255,255);fill-opacity:1;" d="M 27.542969 10.195312 C 27.289062 10.042969 26.976562 10.027344 26.710938 10.160156 L 16.472656 15.28125 C 16.183594 15.425781 16 15.71875 16 16.042969 L 16 27.988281 C 16 28.285156 16.152344 28.558594 16.40625 28.714844 C 16.542969 28.800781 16.699219 28.84375 16.851562 28.84375 C 16.984375 28.84375 17.113281 28.8125 17.234375 28.753906 L 27.476562 23.632812 C 27.765625 23.488281 27.945312 23.191406 27.945312 22.871094 L 27.945312 10.921875 C 27.945312 10.625 27.792969 10.351562 27.542969 10.195312 Z M 26.238281 22.34375 L 17.707031 26.609375 L 17.707031 16.570312 L 26.238281 12.304688 Z M 26.238281 22.34375 "/>
<path style=" stroke:none;fill-rule:nonzero;fill:rgb(255,255,255);fill-opacity:1;" d="M 27.09375 8.335938 C 27.082031 8 26.875 7.699219 26.5625 7.574219 L 15.9375 3.222656 C 15.726562 3.132812 15.484375 3.136719 15.269531 3.230469 L 5.414062 7.582031 C 5.117188 7.714844 4.917969 8.003906 4.90625 8.332031 C 4.894531 8.660156 5.070312 8.964844 5.363281 9.117188 L 15.21875 14.324219 C 15.34375 14.386719 15.480469 14.421875 15.617188 14.421875 C 15.746094 14.421875 15.871094 14.390625 15.992188 14.335938 L 26.617188 9.128906 C 26.917969 8.980469 27.105469 8.671875 27.09375 8.335938 Z M 15.628906 12.609375 L 7.71875 8.429688 L 15.628906 4.9375 L 24.160156 8.433594 Z M 15.628906 12.609375 "/>
<path style=" stroke:none;fill-rule:nonzero;fill:rgb(255,255,255);fill-opacity:1;" d="M 14.703125 15.292969 L 5.316406 10.171875 C 5.050781 10.03125 4.730469 10.035156 4.472656 10.1875 C 4.210938 10.34375 4.054688 10.621094 4.054688 10.921875 L 4.054688 22.871094 C 4.054688 23.183594 4.222656 23.46875 4.496094 23.617188 L 13.882812 28.738281 C 14.011719 28.808594 14.152344 28.84375 14.292969 28.84375 C 14.445312 28.84375 14.59375 28.800781 14.730469 28.722656 C 14.988281 28.570312 15.148438 28.289062 15.148438 27.988281 L 15.148438 16.042969 C 15.148438 15.730469 14.976562 15.441406 14.703125 15.292969 Z M 6.5 22.765625 L 13.441406 17.71875 L 13.441406 20.03125 L 8.316406 23.757812 Z M 5.761719 18.882812 L 10.882812 15.15625 L 12.699219 16.144531 L 5.761719 21.195312 Z M 9.226562 14.25 L 5.761719 16.773438 L 5.761719 12.359375 Z M 9.972656 24.660156 L 13.441406 22.140625 L 13.441406 26.550781 Z M 9.972656 24.660156 "/>
</g>
</svg>
