<svg height="32pt" viewBox="0 0 32 32" width="32pt" xmlns="http://www.w3.org/2000/svg"><g fill="#fff"><path d="m27.542969 10.195312c-.253907-.152343-.566407-.167968-.832031-.035156l-10.238282 5.121094c-.289062.144531-.472656.4375-.472656.761719v11.945312c0 .296875.152344.570313.40625.726563.136719.085937.292969.128906.445312.128906.132813 0 .261719-.03125.382813-.089844l10.242187-5.121094c.289063-.144531.46875-.441406.46875-.761718v-11.949219c0-.296875-.152343-.570313-.402343-.726563zm-1.304688 12.148438-8.53125 4.265625v-10.039063l8.53125-4.265624zm0 0"/><path d="m27.09375 8.335938c-.011719-.335938-.21875-.636719-.53125-.761719l-10.625-4.351563c-.210938-.089844-.453125-.085937-.667969.007813l-9.855469 4.351562c-.296874.132813-.496093.421875-.507812.75s.164062.632813.457031.785157l9.855469 5.207031c.125.0625.261719.097656.398438.097656.128906 0 .253906-.03125.375-.085937l10.625-5.207032c.300781-.148437.488281-.457031.476562-.792968zm-11.464844 4.273437-7.910156-4.179687 7.910156-3.492188 8.53125 3.496094zm0 0"/><path d="m14.703125 15.292969-9.386719-5.121094c-.265625-.140625-.585937-.136719-.84375.015625-.261718.15625-.417968.433594-.417968.734375v11.949219c0 .3125.167968.597656.441406.746094l9.386718 5.121093c.128907.070313.269532.105469.410157.105469.152343 0 .300781-.042969.4375-.121094.257812-.152344.417969-.433594.417969-.734375v-11.945312c0-.3125-.171876-.601563-.445313-.75zm-8.203125 7.472656 6.941406-5.046875v2.3125l-5.125 3.726562zm-.738281-3.882813 5.121093-3.726562 1.816407.988281-6.9375 5.050781zm3.464843-4.632812-3.464843 2.523438v-4.414063zm.746094 10.410156 3.46875-2.519531v4.410156zm0 0"/></g></svg>