<?xml version="1.0" encoding="UTF-8"?>
<svg xmlns="http://www.w3.org/2000/svg" xmlns:xlink="http://www.w3.org/1999/xlink" width="32pt" height="32pt" viewBox="0 0 32 32" version="1.1">
<g id="surface1">

<!-- <path style=" stroke:none;fill-rule:nonzero;fill:rgb(95%,95%,95%);fill-opacity:1;" d="M 9.066406 17.601562 L 22.933594 17.601562 L 22.933594 18.667969 L 9.066406 18.667969 Z M 9.066406 17.601562 "/>
<path style=" stroke:none;fill-rule:nonzero;fill:rgb(95%,95%,95%);fill-opacity:1;" d="M 9.066406 20.265625 L 22.933594 20.265625 L 22.933594 21.332031 L 9.066406 21.332031 Z M 9.066406 20.265625 "/>
<path style=" stroke:none;fill-rule:nonzero;fill:rgb(95%,95%,95%);fill-opacity:1;" d="M 9.066406 22.933594 L 22.933594 22.933594 L 22.933594 24 L 9.066406 24 Z M 9.066406 22.933594 "/>
<path style=" stroke:none;fill-rule:nonzero;fill:rgb(95%,95%,95%);fill-opacity:1;" d="M 9.066406 25.601562 L 18.132812 25.601562 L 18.132812 26.667969 L 9.066406 26.667969 Z M 9.066406 25.601562 "/> -->
<path style=" stroke:none;fill-rule:nonzero;fill:rgb(95%,95%,95%);fill-opacity:1;" d="M 20.800781 14.1875 L 20.800781 7.679688 L 16 5.28125 L 11.199219 7.679688 L 11.199219 14.1875 L 16 16.585938 Z M 16 10.027344 L 14.667969 9.226562 L 17.867188 7.414062 L 19.199219 8.054688 Z M 16.691406 6.828125 L 13.652344 8.585938 L 12.800781 8.054688 L 16 6.453125 Z M 12.265625 8.960938 L 15.464844 10.933594 L 15.464844 14.027344 L 16.535156 14.027344 L 16.535156 10.933594 L 19.734375 8.960938 L 19.734375 13.546875 L 16 15.414062 L 12.265625 13.546875 Z M 12.265625 8.960938 "/>
</g>
</svg>
