<svg height="24pt" viewBox="0 0 24 24" width="24pt" xmlns="http://www.w3.org/2000/svg"><g fill="#fff"><path d="m14.183594 2.183594c0 1.203125-.980469 2.179687-2.183594 2.179687s-2.183594-.976562-2.183594-2.179687c0-1.207032.980469-2.183594 2.183594-2.183594s2.183594.976562 2.183594 2.183594zm0 0"/><path d="m7.636719 2.183594c0 1.203125-.976563 2.179687-2.183594 2.179687-1.203125 0-2.179687-.976562-2.179687-2.179687 0-1.207032.976562-2.183594 2.179687-2.183594 1.207031 0 2.183594.976562 2.183594 2.183594zm0 0"/><path d="m20.726562 2.183594c0 1.203125-.976562 2.179687-2.179687 2.179687-1.207031 0-2.183594-.976562-2.183594-2.179687 0-1.207032.976563-2.183594 2.183594-2.183594 1.203125 0 2.179687.976562 2.179687 2.183594zm0 0"/><path d="m14.183594 8.726562c0 1.207032-.980469 2.183594-2.183594 2.183594s-2.183594-.976562-2.183594-2.183594c0-1.203124.980469-2.179687 2.183594-2.179687s2.183594.976563 2.183594 2.179687zm0 0"/><path d="m7.636719 8.726562c0 1.207032-.976563 2.183594-2.183594 2.183594-1.203125 0-2.179687-.976562-2.179687-2.183594 0-1.203124.976562-2.179687 2.179687-2.179687 1.207031 0 2.183594.976563 2.183594 2.179687zm0 0"/><path d="m20.726562 8.726562c0 1.207032-.976562 2.183594-2.179687 2.183594-1.207031 0-2.183594-.976562-2.183594-2.183594 0-1.203124.976563-2.179687 2.183594-2.179687 1.203125 0 2.179687.976563 2.179687 2.179687zm0 0"/><path d="m14.183594 15.273438c0 1.203124-.980469 2.179687-2.183594 2.179687s-2.183594-.976563-2.183594-2.179687c0-1.207032.980469-2.183594 2.183594-2.183594s2.183594.976562 2.183594 2.183594zm0 0"/><path d="m14.183594 21.816406c0 1.207032-.980469 2.183594-2.183594 2.183594s-2.183594-.976562-2.183594-2.183594c0-1.203125.980469-2.179687 2.183594-2.179687s2.183594.976562 2.183594 2.179687zm0 0"/><path d="m7.636719 15.273438c0 1.203124-.976563 2.179687-2.183594 2.179687-1.203125 0-2.179687-.976563-2.179687-2.179687 0-1.207032.976562-2.183594 2.179687-2.183594 1.207031 0 2.183594.976562 2.183594 2.183594zm0 0"/><path d="m20.726562 15.273438c0 1.203124-.976562 2.179687-2.179687 2.179687-1.207031 0-2.183594-.976563-2.183594-2.179687 0-1.207032.976563-2.183594 2.183594-2.183594 1.203125 0 2.179687.976562 2.179687 2.183594zm0 0"/></g></svg>