<svg height="32pt" viewBox="0 0 32 32" width="32pt" xmlns="http://www.w3.org/2000/svg"><g fill="#fff"><path d="m30.96875 17.90625-8.378906-8.375 4.371094-4.371094c.128906-.125.199218-.300781.199218-.480468 0-.179688-.074218-.351563-.199218-.476563l-4.070313-4.007813c-.261719-.2617182-.6875-.257812-.949219.003907l-3.535156 3.53125-3.53125-3.53125c-.128906-.1289065-.300781-.199219-.476562-.199219-.179688 0-.351563.0703125-.476563.199219l-8.859375 8.855469-4.03125 4.03125c-.261719.261718-.261719.6875 0 .953124l8.382812 8.382813-4.371093 4.371094c-.125.125-.195313.296875-.195313.476562 0 .179688.070313.347657.195313.476563l4.058593 4.054687c.132813.132813.304688.199219.476563.199219s.34375-.066406.476563-.199219l3.5625-3.5625 3.507812 3.511719c.128906.125.300781.195312.476562.195312.179688 0 .351563-.070312.480469-.195312l12.886719-12.886719c.261719-.265625.261719-.691406 0-.957031zm-12.085938-12.746094 3.539063-3.535156 3.105469 3.0625-7.929688 7.929688-3.085937-3.082032zm2.628907 13.277344-3.058594 3.058594-3.578125-3.582032-4.375-4.371093 3.058594-3.054688 3.5625 3.558594zm-7.113281-16.808594 3.054687 3.054688-2.058594 2.0625-2.3125 2.308594-3.535156 3.535156-3.054687-3.058594zm-11.9375 11.933594 1.0625-1.0625 5.121093 5.121094c.132813.132812.304688.199218.476563.199218s.34375-.066406.476562-.199218c.261719-.261719.261719-.6875 0-.953125l-5.121094-5.121094 1.0625-1.058594 7.902344 7.902344-1.074218 1.078125-2 2zm10.679687 13.246094-3.5625 3.5625-3.105469-3.101563 7.925782-7.925781 2.847656 2.851562.253906.253907zm4.460937 3.511718-3.03125-3.035156 7.894532-7.894531 3.03125 3.035156zm8.847657-8.847656-3.507813-3.511718-4.390625-4.390626 1.027344-1.027343 5.175781 5.175781c.132813.132812.304688.195312.476563.195312s.347656-.0625.476562-.195312c.265625-.265625.265625-.691406 0-.953125l-5.175781-5.175781 1.105469-1.105469 7.902343 7.898437zm0 0"/><path d="m11.226562 18.460938c-.007812-.042969-.019531-.085938-.035156-.128907-.019531-.039062-.039062-.078125-.0625-.117187-.027344-.035156-.054687-.070313-.085937-.101563s-.066407-.058593-.101563-.082031-.074218-.046875-.117187-.0625c-.039063-.015625-.082031-.03125-.125-.039062-.085938-.015626-.175781-.015626-.265625 0-.042969.007812-.082032.023437-.125.039062-.039063.015625-.078125.039062-.117188.0625-.035156.023438-.070312.050781-.101562.082031s-.058594.066407-.082032.101563c-.027343.039062-.046874.078125-.0625.117187-.015624.042969-.03125.085938-.039062.128907-.007812.042968-.011719.085937-.011719.128906 0 .046875.003907.089844.011719.132812.007812.042969.019531.085938.039062.125.015626.042969.035157.082032.0625.117188.023438.035156.050782.070312.082032.101562s.066406.0625.101562.085938c.039063.023437.078125.042968.117188.0625.042968.015625.082031.027344.125.035156.046875.011719.089844.015625.132812.015625.042969 0 .089844-.003906.132813-.015625.042969-.007812.085937-.019531.125-.035156.042969-.019532.082031-.039063.117187-.0625.035156-.023438.070313-.054688.101563-.085938s.058593-.066406.085937-.101562c.023438-.035156.042969-.074219.0625-.117188.015625-.039062.027344-.082031.035156-.125.011719-.042968.015626-.085937.015626-.132812 0-.042969-.003907-.085938-.015626-.128906zm0 0"/><path d="m27.339844 18.554688c-.011719-.042969-.023438-.085938-.039063-.125-.019531-.042969-.039062-.082032-.0625-.117188-.023437-.035156-.054687-.070312-.085937-.101562s-.0625-.058594-.101563-.085938c-.035156-.023438-.074219-.042969-.117187-.0625-.039063-.015625-.082032-.027344-.125-.035156-.085938-.019532-.175782-.019532-.261719 0-.042969.007812-.085937.019531-.128906.035156-.039063.019531-.078125.039062-.113281.0625-.039063.027344-.074219.054688-.105469.085938s-.058594.066406-.082031.101562c-.023438.035156-.046876.074219-.0625.117188-.015626.039062-.03125.082031-.039063.125-.007813.042968-.011719.089843-.011719.132812s.003906.085938.011719.132812c.007813.042969.023437.082032.039063.125.015624.039063.039062.078126.0625.117188.023437.035156.050781.070312.082031.101562s.066406.058594.105469.082032c.035156.023437.074218.046875.113281.0625.042969.015625.085937.03125.128906.039062.042969.007813.085937.011719.128906.011719.046875 0 .089844-.003906.132813-.011719.042968-.007812.085937-.023437.125-.039062.042968-.015625.082031-.039063.117187-.0625.039063-.023438.070313-.050782.101563-.082032.125-.125.199218-.300781.199218-.476562 0-.042969-.003906-.089844-.011718-.132812zm0 0"/></g></svg>