<svg height="24pt" viewBox="0 0 24 24" width="24pt" xmlns="http://www.w3.org/2000/svg"><path d="m21.75 3h-19.5c-1.242188 0-2.25 1.007812-2.25 2.25v13.5c0 1.242188 1.007812 2.25 2.25 2.25h19.5c1.242188 0 2.25-1.007812 2.25-2.25v-13.5c0-1.242188-1.007812-2.25-2.25-2.25zm0 1.5c.101562 0 .199219.019531.289062.058594l-10.039062 8.699218-10.039062-8.699218c.089843-.039063.1875-.058594.289062-.058594zm0 15h-19.5c-.414062 0-.75-.335938-.75-.75v-12.605469l10.007812 8.671875c.140626.121094.316407.183594.492188.183594s.351562-.0625.492188-.183594l10.007812-8.671875v12.605469c0 .414062-.335938.75-.75.75zm0 0"/></svg>