<svg height="32pt" viewBox="0 0 32 32" width="32pt" xmlns="http://www.w3.org/2000/svg"><g fill="#fff"><path d="m30.976562 16.515625c.113282.085937.25.128906.382813.128906.097656 0 .195313-.023437.289063-.070312.214843-.105469.351562-.328125.351562-.570313v-2.566406c0-.199219-.09375-.390625-.253906-.511719l-2.96875-2.226562c0-.007813 0-.015625 0-.023438v-5.492187c0-.351563-.285156-.636719-.636719-.636719h-4.425781c-.351563 0-.640625.285156-.640625.636719v1.238281l-6.664063-5.003906c-.226562-.167969-.539062-.167969-.765625 0l-15.335937 11.507812c-.160156.121094-.2539065.3125-.2539065.511719v2.566406c0 .242188.1367185.464844.3515625.570313.21875.109375.476562.085937.671875-.058594l.253906-.191406v13.105469h-.691406c-.355469 0-.640625.285156-.640625.640624 0 .351563.285156.636719.640625.636719h30.71875c.351563 0 .640625-.285156.640625-.636719 0-.355468-.289062-.640624-.640625-.640624h-.636719v-13.105469zm-6.625-10.691406h3.148438v3.917969l-3.148438-2.363282zm-23.019531 7.933593 14.695313-11.027343 14.695312 11.027343v.96875l-14.3125-10.742187c-.113281-.082031-.246094-.125-.382812-.125-.136719 0-.269532.042969-.382813.125l-14.3125 10.742187zm17.199219 15.671876h-5.0625c0-.019532 0-.042969 0-.0625v-10.738282h5.058594v10.738282c0 .019531 0 .042968.003906.0625zm10.914062-13.929688v13.929688h-9.640624c0-.019532 0-.042969 0-.0625v-11.378907c0-.351562-.285157-.636719-.636719-.636719h-6.335938c-.355469 0-.640625.285157-.640625.636719v11.378907c0 .019531.003906.042968.003906.0625h-9.585937v-13.929688c0-.042969-.003906-.085938-.011719-.125l13.429688-10.078125 13.429687 10.078125c-.007812.039062-.011719.082031-.011719.125zm0 0"/><path d="m14.761719 23.671875c-.167969 0-.332031.066406-.453125.1875-.117188.117187-.1875.285156-.1875.449219 0 .171875.070312.335937.1875.453125.121094.121093.285156.1875.453125.1875s.332031-.066407.449219-.1875c.121093-.117188.191406-.28125.191406-.453125 0-.164063-.070313-.332032-.191406-.449219-.117188-.117187-.28125-.1875-.449219-.1875zm0 0"/><path d="m12.796875 12.191406c0 1.769532 1.4375 3.203125 3.203125 3.203125s3.203125-1.433593 3.203125-3.203125c0-1.765625-1.4375-3.199218-3.203125-3.199218s-3.203125 1.433593-3.203125 3.199218zm3.203125 1.925782c-.839844 0-1.550781-.535157-1.816406-1.285157h3.632812c-.265625.75-.980468 1.285157-1.816406 1.285157zm1.816406-2.5625h-3.632812c.265625-.75.976562-1.285157 1.816406-1.285157.835938 0 1.550781.535157 1.816406 1.285157zm0 0"/><path d="m10.289062 24.996094v-7.007813c0-.351562-.285156-.636719-.640624-.636719h-4.480469c-.351563 0-.640625.285157-.640625.636719v7.007813c-.34375.007812-.617188.289062-.617188.636718 0 .351563.285156.640626.636719.640626h5.730469c.351562 0 .640625-.289063.640625-.640626 0-.347656-.28125-.632812-.628907-.636718zm-1.277343-6.367188v1.277344h-3.203125v-1.277344zm-3.203125 6.367188v-3.8125h3.203125v3.8125zm0 0"/><path d="m21.78125 26.273438h5.730469c.351562 0 .636719-.289063.636719-.640626 0-.347656-.277344-.628906-.621094-.636718v-7.007813c0-.351562-.289063-.636719-.640625-.636719h-4.480469c-.355469 0-.640625.285157-.640625.636719v7.007813c-.34375.007812-.625.289062-.625.636718 0 .351563.289063.640626.640625.640626zm1.261719-1.277344v-3.8125h3.207031v3.8125zm3.207031-6.367188v1.277344h-3.207031v-1.277344zm0 0"/></g></svg>