<?xml version="1.0" encoding="UTF-8"?>
<svg xmlns="http://www.w3.org/2000/svg" xmlns:xlink="http://www.w3.org/1999/xlink" width="32pt" height="32pt" viewBox="0 0 32 32" version="1.1">
<g id="surface1">
<path style=" stroke:none;fill-rule:nonzero;fill:rgb(255,255,255);fill-opacity:1;" d="M 30.976562 16.515625 C 31.089844 16.601562 31.226562 16.644531 31.359375 16.644531 C 31.457031 16.644531 31.554688 16.621094 31.648438 16.574219 C 31.863281 16.46875 32 16.246094 32 16.003906 L 32 13.4375 C 32 13.238281 31.90625 13.046875 31.746094 12.925781 L 28.777344 10.699219 C 28.777344 10.691406 28.777344 10.683594 28.777344 10.675781 L 28.777344 5.183594 C 28.777344 4.832031 28.492188 4.546875 28.140625 4.546875 L 23.714844 4.546875 C 23.363281 4.546875 23.074219 4.832031 23.074219 5.183594 L 23.074219 6.421875 L 16.410156 1.417969 C 16.183594 1.25 15.871094 1.25 15.644531 1.417969 L 0.308594 12.925781 C 0.148438 13.046875 0.0546875 13.238281 0.0546875 13.4375 L 0.0546875 16.003906 C 0.0546875 16.246094 0.191406 16.46875 0.40625 16.574219 C 0.625 16.683594 0.882812 16.660156 1.078125 16.515625 L 1.332031 16.324219 L 1.332031 29.429688 L 0.640625 29.429688 C 0.285156 29.429688 0 29.714844 0 30.070312 C 0 30.421875 0.285156 30.707031 0.640625 30.707031 L 31.359375 30.707031 C 31.710938 30.707031 32 30.421875 32 30.070312 C 32 29.714844 31.710938 29.429688 31.359375 29.429688 L 30.722656 29.429688 L 30.722656 16.324219 Z M 24.351562 5.824219 L 27.5 5.824219 L 27.5 9.742188 L 24.351562 7.378906 Z M 1.332031 13.757812 L 16.027344 2.730469 L 30.722656 13.757812 L 30.722656 14.726562 L 16.410156 3.984375 C 16.296875 3.902344 16.164062 3.859375 16.027344 3.859375 C 15.890625 3.859375 15.757812 3.902344 15.644531 3.984375 L 1.332031 14.726562 Z M 18.53125 29.429688 L 13.46875 29.429688 C 13.46875 29.410156 13.46875 29.386719 13.46875 29.367188 L 13.46875 18.628906 L 18.527344 18.628906 L 18.527344 29.367188 C 18.527344 29.386719 18.527344 29.410156 18.53125 29.429688 Z M 29.445312 15.5 L 29.445312 29.429688 L 19.804688 29.429688 C 19.804688 29.410156 19.804688 29.386719 19.804688 29.367188 L 19.804688 17.988281 C 19.804688 17.636719 19.519531 17.351562 19.167969 17.351562 L 12.832031 17.351562 C 12.476562 17.351562 12.191406 17.636719 12.191406 17.988281 L 12.191406 29.367188 C 12.191406 29.386719 12.195312 29.410156 12.195312 29.429688 L 2.609375 29.429688 L 2.609375 15.5 C 2.609375 15.457031 2.605469 15.414062 2.597656 15.375 L 16.027344 5.296875 L 29.457031 15.375 C 29.449219 15.414062 29.445312 15.457031 29.445312 15.5 Z M 29.445312 15.5 "/>
<path style=" stroke:none;fill-rule:nonzero;fill:rgb(255,255,255);fill-opacity:1;" d="M 14.761719 23.671875 C 14.59375 23.671875 14.429688 23.738281 14.308594 23.859375 C 14.191406 23.976562 14.121094 24.144531 14.121094 24.308594 C 14.121094 24.480469 14.191406 24.644531 14.308594 24.761719 C 14.429688 24.882812 14.59375 24.949219 14.761719 24.949219 C 14.929688 24.949219 15.09375 24.882812 15.210938 24.761719 C 15.332031 24.644531 15.402344 24.480469 15.402344 24.308594 C 15.402344 24.144531 15.332031 23.976562 15.210938 23.859375 C 15.09375 23.742188 14.929688 23.671875 14.761719 23.671875 Z M 14.761719 23.671875 "/>
<path style=" stroke:none;fill-rule:nonzero;fill:rgb(255,255,255);fill-opacity:1;" d="M 12.796875 12.191406 C 12.796875 13.960938 14.234375 15.394531 16 15.394531 C 17.765625 15.394531 19.203125 13.960938 19.203125 12.191406 C 19.203125 10.425781 17.765625 8.992188 16 8.992188 C 14.234375 8.992188 12.796875 10.425781 12.796875 12.191406 Z M 16 14.117188 C 15.160156 14.117188 14.449219 13.582031 14.183594 12.832031 L 17.816406 12.832031 C 17.550781 13.582031 16.835938 14.117188 16 14.117188 Z M 17.816406 11.554688 L 14.183594 11.554688 C 14.449219 10.804688 15.160156 10.269531 16 10.269531 C 16.835938 10.269531 17.550781 10.804688 17.816406 11.554688 Z M 17.816406 11.554688 "/>
<path style=" stroke:none;fill-rule:nonzero;fill:rgb(255,255,255);fill-opacity:1;" d="M 10.289062 24.996094 L 10.289062 17.988281 C 10.289062 17.636719 10.003906 17.351562 9.648438 17.351562 L 5.167969 17.351562 C 4.816406 17.351562 4.527344 17.636719 4.527344 17.988281 L 4.527344 24.996094 C 4.183594 25.003906 3.910156 25.285156 3.910156 25.632812 C 3.910156 25.984375 4.195312 26.273438 4.546875 26.273438 L 10.277344 26.273438 C 10.628906 26.273438 10.917969 25.984375 10.917969 25.632812 C 10.917969 25.285156 10.636719 25 10.289062 24.996094 Z M 9.011719 18.628906 L 9.011719 19.90625 L 5.808594 19.90625 L 5.808594 18.628906 Z M 5.808594 24.996094 L 5.808594 21.183594 L 9.011719 21.183594 L 9.011719 24.996094 Z M 5.808594 24.996094 "/>
<path style=" stroke:none;fill-rule:nonzero;fill:rgb(255,255,255);fill-opacity:1;" d="M 21.78125 26.273438 L 27.511719 26.273438 C 27.863281 26.273438 28.148438 25.984375 28.148438 25.632812 C 28.148438 25.285156 27.871094 25.003906 27.527344 24.996094 L 27.527344 17.988281 C 27.527344 17.636719 27.238281 17.351562 26.886719 17.351562 L 22.40625 17.351562 C 22.050781 17.351562 21.765625 17.636719 21.765625 17.988281 L 21.765625 24.996094 C 21.421875 25.003906 21.140625 25.285156 21.140625 25.632812 C 21.140625 25.984375 21.429688 26.273438 21.78125 26.273438 Z M 23.042969 24.996094 L 23.042969 21.183594 L 26.25 21.183594 L 26.25 24.996094 Z M 26.25 18.628906 L 26.25 19.90625 L 23.042969 19.90625 L 23.042969 18.628906 Z M 26.25 18.628906 "/>
</g>
</svg>
