<svg height="32pt" viewBox="0 0 32 32" width="32pt" xmlns="http://www.w3.org/2000/svg"><g fill="#fff"><path d="m31.53125 7.765625c.257812 0 .46875-.210937.46875-.46875v-6.828125c0-.257812-.210938-.46875-.46875-.46875h-22.359375c-.257813 0-.46875.210938-.46875.46875s.210937.46875.46875.46875h6.359375v14.59375h-14.59375v-6.359375c0-.257813-.210938-.46875-.46875-.46875s-.46875.210937-.46875.46875v22.359375c0 .257812.210938.46875.46875.46875h22.359375c.257813 0 .46875-.210938.46875-.46875s-.210937-.46875-.46875-.46875h-6.359375v-14.59375h14.59375v14.59375h-6.359375c-.257813 0-.46875.210938-.46875.46875s.210937.46875.46875.46875h6.828125c.257812 0 .46875-.210938.46875-.46875v-22.359375c0-.257813-.210938-.46875-.46875-.46875s-.46875.210937-.46875.46875v6.359375h-14.59375v-14.59375h14.59375v6.359375c0 .257813.210938.46875.46875.46875zm-30.59375 8.703125h14.59375v14.59375h-14.59375zm0 0"/><path d="m27.035156 15.300781c.257813 0 .46875-.210937.46875-.46875v-1.183593l1.675782-1.675782h1.183593c.257813 0 .46875-.207031.46875-.46875 0-.257812-.210937-.46875-.46875-.46875h-1.378906c-.125 0-.242187.050782-.332031.136719l-1.949219 1.949219c-.085937.089844-.136719.207031-.136719.332031v1.378906c0 .257813.210938.46875.46875.46875zm0 0"/><path d="m20.496094 15.300781c.257812 0 .46875-.210937.46875-.46875v-1.378906c0-.125-.050782-.242187-.136719-.332031l-1.949219-1.949219c-.089844-.085937-.207031-.136719-.332031-.136719h-1.378906c-.257813 0-.46875.210938-.46875.46875 0 .261719.210937.46875.46875.46875h1.183593l1.675782 1.675782v1.183593c0 .257813.207031.46875.46875.46875zm0 0"/><path d="m17.167969 5.433594h1.378906c.125 0 .242187-.050782.332031-.136719l1.949219-1.949219c.085937-.089844.136719-.207031.136719-.332031v-1.378906c0-.257813-.210938-.46875-.46875-.46875-.261719 0-.46875.210937-.46875.46875v1.183593l-1.675782 1.675782h-1.183593c-.257813 0-.46875.207031-.46875.46875 0 .257812.210937.46875.46875.46875zm0 0"/><path d="m30.363281 4.496094h-1.183593l-1.675782-1.675782v-1.183593c0-.257813-.207031-.46875-.46875-.46875-.257812 0-.46875.210937-.46875.46875v1.378906c0 .125.050782.242187.136719.332031l1.949219 1.949219c.089844.085937.207031.136719.332031.136719h1.378906c.257813 0 .46875-.210938.46875-.46875 0-.261719-.210937-.46875-.46875-.46875zm0 0"/><path d="m22.414062 11.648438.273438-.273438c.59375-.59375 1.5625-.59375 2.15625 0l.273438.273438c.089843.089843.210937.136718.332031.136718.117187 0 .238281-.046875.332031-.136718l1.398438-1.398438c.085937-.089844.136718-.207031.136718-.332031s-.050781-.246094-.136718-.332031l-.273438-.273438c-.59375-.59375-.59375-1.5625 0-2.15625l.273438-.273438c.085937-.085937.136718-.207031.136718-.332031s-.050781-.242187-.136718-.332031l-1.398438-1.398438c-.183594-.183593-.480469-.183593-.664062 0l-.273438.273438c-.59375.59375-1.5625.59375-2.15625 0l-.273438-.273438c-.183593-.183593-.480468-.183593-.664062 0l-1.398438 1.398438c-.085937.089844-.136718.207031-.136718.332031s.050781.246094.136718.332031l.273438.273438c.59375.59375.59375 1.5625 0 2.15625l-.273438.273438c-.085937.085937-.136718.207031-.136718.332031s.050781.242187.136718.332031l1.398438 1.398438c.183594.183593.480469.183593.664062 0zm-1.066406-5.09375.734375-.738282c.945313.882813 2.421875.882813 3.363281 0l.738282.738282c-.882813.941406-.882813 2.417968 0 3.359374l-.738282.738282c-.46875-.441406-1.074218-.660156-1.679687-.660156s-1.210937.21875-1.683594.660156l-.734375-.738282c.882813-.941406.882813-2.417968 0-3.359374zm0 0"/><path d="m.46875 7.765625c.257812 0 .46875-.210937.46875-.46875v-6.359375h6.359375c.257813 0 .46875-.210938.46875-.46875s-.210937-.46875-.46875-.46875h-6.828125c-.257812 0-.46875.210938-.46875.46875v6.828125c0 .257813.210938.46875.46875.46875zm0 0"/><path d="m14.832031 11.035156h-1.378906c-.125 0-.242187.050782-.332031.136719l-1.949219 1.949219c-.085937.089844-.136719.207031-.136719.332031v1.378906c0 .257813.210938.46875.46875.46875.261719 0 .46875-.210937.46875-.46875v-1.183593l1.675782-1.675782h1.183593c.257813 0 .46875-.207031.46875-.46875 0-.257812-.210937-.46875-.46875-.46875zm0 0"/><path d="m4.964844 15.300781c.257812 0 .46875-.210937.46875-.46875v-1.378906c0-.125-.050782-.242187-.136719-.332031l-1.949219-1.949219c-.089844-.085937-.207031-.136719-.332031-.136719h-1.378906c-.257813 0-.46875.210938-.46875.46875 0 .261719.210937.46875.46875.46875h1.183593l1.675782 1.675782v1.183593c0 .257813.207031.46875.46875.46875zm0 0"/><path d="m1.636719 5.433594h1.378906c.125 0 .242187-.050782.332031-.136719l1.949219-1.949219c.085937-.089844.136719-.207031.136719-.332031v-1.378906c0-.257813-.210938-.46875-.46875-.46875-.261719 0-.46875.210937-.46875.46875v1.183593l-1.675782 1.675782h-1.183593c-.257813 0-.46875.207031-.46875.46875 0 .257812.210937.46875.46875.46875zm0 0"/><path d="m11.503906 1.167969c-.257812 0-.46875.210937-.46875.46875v1.378906c0 .125.050782.242187.136719.332031l1.949219 1.949219c.089844.085937.207031.136719.332031.136719h1.378906c.257813 0 .46875-.210938.46875-.46875 0-.261719-.210937-.46875-.46875-.46875h-1.183593l-1.675782-1.675782v-1.183593c0-.257813-.207031-.46875-.46875-.46875zm0 0"/><path d="m9.585938 4.820312-.273438.273438c-.59375.59375-1.5625.59375-2.15625 0l-.273438-.273438c-.183593-.179687-.480468-.179687-.664062 0l-1.398438 1.398438c-.085937.089844-.136718.207031-.136718.332031s.050781.246094.136718.332031l.273438.273438c.59375.59375.59375 1.5625 0 2.15625l-.273438.273438c-.085937.085937-.136718.207031-.136718.332031s.050781.242187.136718.332031l1.398438 1.398438c.183594.179687.480469.179687.664062 0l.273438-.273438c.59375-.59375 1.5625-.59375 2.15625 0l.273438.273438c.089843.089843.210937.136718.332031.136718.117187 0 .238281-.046875.332031-.136718l1.398438-1.398438c.085937-.089844.136718-.207031.136718-.332031s-.050781-.246094-.136718-.332031l-.273438-.273438c-.59375-.59375-.59375-1.5625 0-2.15625l.273438-.273438c.085937-.085937.136718-.207031.136718-.332031s-.050781-.242187-.136718-.332031l-1.398438-1.398438c-.183594-.179687-.480469-.179687-.664062 0zm1.066406 5.09375-.738282.738282c-.46875-.441406-1.074218-.660156-1.679687-.660156s-1.210937.21875-1.679687.660156l-.738282-.738282c.882813-.941406.882813-2.417968 0-3.359374l.738282-.738282c.941406.882813 2.417968.882813 3.359374 0l.738282.738282c-.882813.941406-.882813 2.417968 0 3.359374zm0 0"/><path d="m30.363281 26.566406h-1.378906c-.125 0-.242187.050782-.332031.136719l-1.949219 1.949219c-.085937.089844-.136719.207031-.136719.332031v1.378906c0 .257813.210938.46875.46875.46875.261719 0 .46875-.210937.46875-.46875v-1.183593l1.675782-1.675782h1.183593c.257813 0 .46875-.207031.46875-.46875 0-.257812-.210937-.46875-.46875-.46875zm0 0"/><path d="m20.496094 30.832031c.257812 0 .46875-.210937.46875-.46875v-1.378906c0-.125-.050782-.242187-.136719-.332031l-1.949219-1.949219c-.089844-.085937-.207031-.136719-.332031-.136719h-1.378906c-.257813 0-.46875.210938-.46875.46875 0 .261719.210937.46875.46875.46875h1.183593l1.675782 1.675782v1.183593c0 .257813.207031.46875.46875.46875zm0 0"/><path d="m17.167969 20.964844h1.378906c.125 0 .242187-.050782.332031-.136719l1.949219-1.949219c.085937-.089844.136719-.207031.136719-.332031v-1.378906c0-.257813-.210938-.46875-.46875-.46875-.261719 0-.46875.210937-.46875.46875v1.183593l-1.675782 1.675782h-1.183593c-.257813 0-.46875.207031-.46875.46875 0 .257812.210937.46875.46875.46875zm0 0"/><path d="m27.035156 16.699219c-.257812 0-.46875.210937-.46875.46875v1.378906c0 .125.050782.242187.136719.332031l1.949219 1.949219c.089844.085937.207031.136719.332031.136719h1.378906c.257813 0 .46875-.210938.46875-.46875 0-.261719-.210937-.46875-.46875-.46875h-1.183593l-1.675782-1.675782v-1.183593c0-.257813-.210937-.46875-.46875-.46875zm0 0"/><path d="m22.414062 27.179688.273438-.273438c.59375-.59375 1.5625-.59375 2.15625 0l.273438.273438c.089843.089843.210937.136718.332031.136718.117187 0 .238281-.046875.332031-.136718l1.398438-1.398438c.085937-.089844.136718-.207031.136718-.332031s-.050781-.246094-.136718-.332031l-.273438-.273438c-.59375-.59375-.59375-1.5625 0-2.15625l.273438-.273438c.085937-.085937.136718-.207031.136718-.332031s-.050781-.242187-.136718-.332031l-1.398438-1.398438c-.183594-.183593-.480469-.183593-.664062 0l-.273438.273438c-.59375.59375-1.5625.59375-2.15625 0l-.273438-.273438c-.183593-.183593-.480468-.183593-.664062 0l-1.398438 1.398438c-.085937.089844-.136718.207031-.136718.332031s.050781.246094.136718.332031l.273438.273438c.59375.59375.59375 1.5625 0 2.15625l-.273438.273438c-.085937.085937-.136718.207031-.136718.332031s.050781.242187.136718.332031l1.398438 1.398438c.183594.179687.480469.179687.664062 0zm-1.066406-5.09375.734375-.738282c.945313.882813 2.421875.882813 3.363281 0l.738282.738282c-.882813.941406-.882813 2.417968 0 3.359374l-.738282.738282c-.46875-.441406-1.074218-.660156-1.679687-.660156s-1.210937.21875-1.683594.660156l-.734375-.738282c.882813-.941406.882813-2.417968 0-3.359374zm0 0"/><path d="m14.832031 26.566406h-1.378906c-.125 0-.242187.050782-.332031.136719l-1.949219 1.949219c-.085937.089844-.136719.207031-.136719.332031v1.378906c0 .257813.210938.46875.46875.46875.261719 0 .46875-.210937.46875-.46875v-1.183593l1.675782-1.675782h1.183593c.257813 0 .46875-.207031.46875-.46875 0-.257812-.210937-.46875-.46875-.46875zm0 0"/><path d="m3.347656 26.703125c-.089844-.085937-.207031-.136719-.332031-.136719h-1.378906c-.257813 0-.46875.210938-.46875.46875 0 .261719.210937.46875.46875.46875h1.183593l1.675782 1.675782v1.183593c0 .257813.207031.46875.46875.46875.257812 0 .46875-.210937.46875-.46875v-1.378906c0-.125-.050782-.242187-.136719-.332031zm0 0"/><path d="m1.636719 20.964844h1.378906c.125 0 .242187-.050782.332031-.136719l1.949219-1.949219c.085937-.089844.136719-.207031.136719-.332031v-1.378906c0-.257813-.210938-.46875-.46875-.46875-.261719 0-.46875.210937-.46875.46875v1.183593l-1.675782 1.675782h-1.183593c-.257813 0-.46875.207031-.46875.46875 0 .257812.210937.46875.46875.46875zm0 0"/><path d="m14.832031 20.027344h-1.183593l-1.675782-1.675782v-1.183593c0-.257813-.207031-.46875-.46875-.46875-.257812 0-.46875.210937-.46875.46875v1.378906c0 .125.050782.242187.136719.332031l1.949219 1.949219c.089844.085937.207031.136719.332031.136719h1.378906c.257813 0 .46875-.210938.46875-.46875 0-.261719-.210937-.46875-.46875-.46875zm0 0"/><path d="m11.785156 25.449219c0-.125-.050781-.246094-.136718-.332031l-.273438-.273438c-.59375-.59375-.59375-1.5625 0-2.15625l.273438-.273438c.085937-.085937.136718-.207031.136718-.332031s-.050781-.242187-.136718-.332031l-1.398438-1.398438c-.183594-.179687-.480469-.179687-.664062 0l-.273438.273438c-.59375.59375-1.5625.59375-2.15625 0l-.273438-.273438c-.183593-.179687-.480468-.179687-.664062 0l-1.398438 1.398438c-.085937.089844-.136718.207031-.136718.332031s.050781.246094.136718.332031l.273438.273438c.59375.59375.59375 1.5625 0 2.15625l-.273438.273438c-.085937.085937-.136718.207031-.136718.332031s.050781.242187.136718.332031l1.398438 1.398438c.183594.183593.480469.183593.664062 0l.273438-.273438c.59375-.59375 1.5625-.59375 2.15625 0l.273438.273438c.089843.089843.210937.136718.332031.136718.121093 0 .238281-.046875.332031-.136718l1.398438-1.398438c.085937-.089844.136718-.207031.136718-.332031zm-1.871094.734375c-.46875-.441406-1.074218-.660156-1.679687-.660156s-1.210937.21875-1.679687.660156l-.738282-.734375c.882813-.945313.882813-2.421875 0-3.363281l.738282-.738282c.941406.882813 2.417968.882813 3.359374 0l.738282.738282c-.882813.941406-.882813 2.417968 0 3.363281zm0 0"/></g></svg>