<?xml version="1.0" encoding="UTF-8"?>
<svg xmlns="http://www.w3.org/2000/svg" xmlns:xlink="http://www.w3.org/1999/xlink" width="32pt" height="32pt" viewBox="0 0 32 32" version="1.1">
<g id="surface1">
<path style=" stroke:none;fill-rule:nonzero;fill:rgb(255%,255%,255%);fill-opacity:1;" d="M 31.53125 7.765625 C 31.789062 7.765625 32 7.554688 32 7.296875 L 32 0.46875 C 32 0.210938 31.789062 0 31.53125 0 L 9.171875 0 C 8.914062 0 8.703125 0.210938 8.703125 0.46875 C 8.703125 0.726562 8.914062 0.9375 9.171875 0.9375 L 15.53125 0.9375 L 15.53125 15.53125 L 0.9375 15.53125 L 0.9375 9.171875 C 0.9375 8.914062 0.726562 8.703125 0.46875 8.703125 C 0.210938 8.703125 0 8.914062 0 9.171875 L 0 31.53125 C 0 31.789062 0.210938 32 0.46875 32 L 22.828125 32 C 23.085938 32 23.296875 31.789062 23.296875 31.53125 C 23.296875 31.273438 23.085938 31.0625 22.828125 31.0625 L 16.46875 31.0625 L 16.46875 16.46875 L 31.0625 16.46875 L 31.0625 31.0625 L 24.703125 31.0625 C 24.445312 31.0625 24.234375 31.273438 24.234375 31.53125 C 24.234375 31.789062 24.445312 32 24.703125 32 L 31.53125 32 C 31.789062 32 32 31.789062 32 31.53125 L 32 9.171875 C 32 8.914062 31.789062 8.703125 31.53125 8.703125 C 31.273438 8.703125 31.0625 8.914062 31.0625 9.171875 L 31.0625 15.53125 L 16.46875 15.53125 L 16.46875 0.9375 L 31.0625 0.9375 L 31.0625 7.296875 C 31.0625 7.554688 31.273438 7.765625 31.53125 7.765625 Z M 0.9375 16.46875 L 15.53125 16.46875 L 15.53125 31.0625 L 0.9375 31.0625 Z M 0.9375 16.46875 "/>
<path style=" stroke:none;fill-rule:nonzero;fill:rgb(255%,255%,255%);fill-opacity:1;" d="M 27.035156 15.300781 C 27.292969 15.300781 27.503906 15.089844 27.503906 14.832031 L 27.503906 13.648438 L 29.179688 11.972656 L 30.363281 11.972656 C 30.621094 11.972656 30.832031 11.765625 30.832031 11.503906 C 30.832031 11.246094 30.621094 11.035156 30.363281 11.035156 L 28.984375 11.035156 C 28.859375 11.035156 28.742188 11.085938 28.652344 11.171875 L 26.703125 13.121094 C 26.617188 13.210938 26.566406 13.328125 26.566406 13.453125 L 26.566406 14.832031 C 26.566406 15.089844 26.777344 15.300781 27.035156 15.300781 Z M 27.035156 15.300781 "/>
<path style=" stroke:none;fill-rule:nonzero;fill:rgb(255%,255%,255%);fill-opacity:1;" d="M 20.496094 15.300781 C 20.753906 15.300781 20.964844 15.089844 20.964844 14.832031 L 20.964844 13.453125 C 20.964844 13.328125 20.914062 13.210938 20.828125 13.121094 L 18.878906 11.171875 C 18.789062 11.085938 18.671875 11.035156 18.546875 11.035156 L 17.167969 11.035156 C 16.910156 11.035156 16.699219 11.246094 16.699219 11.503906 C 16.699219 11.765625 16.910156 11.972656 17.167969 11.972656 L 18.351562 11.972656 L 20.027344 13.648438 L 20.027344 14.832031 C 20.027344 15.089844 20.234375 15.300781 20.496094 15.300781 Z M 20.496094 15.300781 "/>
<path style=" stroke:none;fill-rule:nonzero;fill:rgb(255%,255%,255%);fill-opacity:1;" d="M 17.167969 5.433594 L 18.546875 5.433594 C 18.671875 5.433594 18.789062 5.382812 18.878906 5.296875 L 20.828125 3.347656 C 20.914062 3.257812 20.964844 3.140625 20.964844 3.015625 L 20.964844 1.636719 C 20.964844 1.378906 20.753906 1.167969 20.496094 1.167969 C 20.234375 1.167969 20.027344 1.378906 20.027344 1.636719 L 20.027344 2.820312 L 18.351562 4.496094 L 17.167969 4.496094 C 16.910156 4.496094 16.699219 4.703125 16.699219 4.964844 C 16.699219 5.222656 16.910156 5.433594 17.167969 5.433594 Z M 17.167969 5.433594 "/>
<path style=" stroke:none;fill-rule:nonzero;fill:rgb(255%,255%,255%);fill-opacity:1;" d="M 30.363281 4.496094 L 29.179688 4.496094 L 27.503906 2.820312 L 27.503906 1.636719 C 27.503906 1.378906 27.296875 1.167969 27.035156 1.167969 C 26.777344 1.167969 26.566406 1.378906 26.566406 1.636719 L 26.566406 3.015625 C 26.566406 3.140625 26.617188 3.257812 26.703125 3.347656 L 28.652344 5.296875 C 28.742188 5.382812 28.859375 5.433594 28.984375 5.433594 L 30.363281 5.433594 C 30.621094 5.433594 30.832031 5.222656 30.832031 4.964844 C 30.832031 4.703125 30.621094 4.496094 30.363281 4.496094 Z M 30.363281 4.496094 "/>
<path style=" stroke:none;fill-rule:nonzero;fill:rgb(255%,255%,255%);fill-opacity:1;" d="M 22.414062 11.648438 L 22.6875 11.375 C 23.28125 10.78125 24.25 10.78125 24.84375 11.375 L 25.117188 11.648438 C 25.207031 11.738281 25.328125 11.785156 25.449219 11.785156 C 25.566406 11.785156 25.6875 11.738281 25.78125 11.648438 L 27.179688 10.25 C 27.265625 10.160156 27.316406 10.042969 27.316406 9.917969 C 27.316406 9.792969 27.265625 9.671875 27.179688 9.585938 L 26.90625 9.3125 C 26.3125 8.71875 26.3125 7.75 26.90625 7.15625 L 27.179688 6.882812 C 27.265625 6.796875 27.316406 6.675781 27.316406 6.550781 C 27.316406 6.425781 27.265625 6.308594 27.179688 6.21875 L 25.78125 4.820312 C 25.597656 4.636719 25.300781 4.636719 25.117188 4.820312 L 24.84375 5.09375 C 24.25 5.6875 23.28125 5.6875 22.6875 5.09375 L 22.414062 4.820312 C 22.230469 4.636719 21.933594 4.636719 21.75 4.820312 L 20.351562 6.21875 C 20.265625 6.308594 20.214844 6.425781 20.214844 6.550781 C 20.214844 6.675781 20.265625 6.796875 20.351562 6.882812 L 20.625 7.15625 C 21.21875 7.75 21.21875 8.71875 20.625 9.3125 L 20.351562 9.585938 C 20.265625 9.671875 20.214844 9.792969 20.214844 9.917969 C 20.214844 10.042969 20.265625 10.160156 20.351562 10.25 L 21.75 11.648438 C 21.933594 11.832031 22.230469 11.832031 22.414062 11.648438 Z M 21.347656 6.554688 L 22.082031 5.816406 C 23.027344 6.699219 24.503906 6.699219 25.445312 5.816406 L 26.183594 6.554688 C 25.300781 7.496094 25.300781 8.972656 26.183594 9.914062 L 25.445312 10.652344 C 24.976562 10.210938 24.371094 9.992188 23.765625 9.992188 C 23.160156 9.992188 22.554688 10.210938 22.082031 10.652344 L 21.347656 9.914062 C 22.230469 8.972656 22.230469 7.496094 21.347656 6.554688 Z M 21.347656 6.554688 "/>
<path style=" stroke:none;fill-rule:nonzero;fill:rgb(255%,255%,255%);fill-opacity:1;" d="M 0.46875 7.765625 C 0.726562 7.765625 0.9375 7.554688 0.9375 7.296875 L 0.9375 0.9375 L 7.296875 0.9375 C 7.554688 0.9375 7.765625 0.726562 7.765625 0.46875 C 7.765625 0.210938 7.554688 0 7.296875 0 L 0.46875 0 C 0.210938 0 0 0.210938 0 0.46875 L 0 7.296875 C 0 7.554688 0.210938 7.765625 0.46875 7.765625 Z M 0.46875 7.765625 "/>
<path style=" stroke:none;fill-rule:nonzero;fill:rgb(255%,255%,255%);fill-opacity:1;" d="M 14.832031 11.035156 L 13.453125 11.035156 C 13.328125 11.035156 13.210938 11.085938 13.121094 11.171875 L 11.171875 13.121094 C 11.085938 13.210938 11.035156 13.328125 11.035156 13.453125 L 11.035156 14.832031 C 11.035156 15.089844 11.246094 15.300781 11.503906 15.300781 C 11.765625 15.300781 11.972656 15.089844 11.972656 14.832031 L 11.972656 13.648438 L 13.648438 11.972656 L 14.832031 11.972656 C 15.089844 11.972656 15.300781 11.765625 15.300781 11.503906 C 15.300781 11.246094 15.089844 11.035156 14.832031 11.035156 Z M 14.832031 11.035156 "/>
<path style=" stroke:none;fill-rule:nonzero;fill:rgb(255%,255%,255%);fill-opacity:1;" d="M 4.964844 15.300781 C 5.222656 15.300781 5.433594 15.089844 5.433594 14.832031 L 5.433594 13.453125 C 5.433594 13.328125 5.382812 13.210938 5.296875 13.121094 L 3.347656 11.171875 C 3.257812 11.085938 3.140625 11.035156 3.015625 11.035156 L 1.636719 11.035156 C 1.378906 11.035156 1.167969 11.246094 1.167969 11.503906 C 1.167969 11.765625 1.378906 11.972656 1.636719 11.972656 L 2.820312 11.972656 L 4.496094 13.648438 L 4.496094 14.832031 C 4.496094 15.089844 4.703125 15.300781 4.964844 15.300781 Z M 4.964844 15.300781 "/>
<path style=" stroke:none;fill-rule:nonzero;fill:rgb(255%,255%,255%);fill-opacity:1;" d="M 1.636719 5.433594 L 3.015625 5.433594 C 3.140625 5.433594 3.257812 5.382812 3.347656 5.296875 L 5.296875 3.347656 C 5.382812 3.257812 5.433594 3.140625 5.433594 3.015625 L 5.433594 1.636719 C 5.433594 1.378906 5.222656 1.167969 4.964844 1.167969 C 4.703125 1.167969 4.496094 1.378906 4.496094 1.636719 L 4.496094 2.820312 L 2.820312 4.496094 L 1.636719 4.496094 C 1.378906 4.496094 1.167969 4.703125 1.167969 4.964844 C 1.167969 5.222656 1.378906 5.433594 1.636719 5.433594 Z M 1.636719 5.433594 "/>
<path style=" stroke:none;fill-rule:nonzero;fill:rgb(255%,255%,255%);fill-opacity:1;" d="M 11.503906 1.167969 C 11.246094 1.167969 11.035156 1.378906 11.035156 1.636719 L 11.035156 3.015625 C 11.035156 3.140625 11.085938 3.257812 11.171875 3.347656 L 13.121094 5.296875 C 13.210938 5.382812 13.328125 5.433594 13.453125 5.433594 L 14.832031 5.433594 C 15.089844 5.433594 15.300781 5.222656 15.300781 4.964844 C 15.300781 4.703125 15.089844 4.496094 14.832031 4.496094 L 13.648438 4.496094 L 11.972656 2.820312 L 11.972656 1.636719 C 11.972656 1.378906 11.765625 1.167969 11.503906 1.167969 Z M 11.503906 1.167969 "/>
<path style=" stroke:none;fill-rule:nonzero;fill:rgb(255%,255%,255%);fill-opacity:1;" d="M 9.585938 4.820312 L 9.3125 5.09375 C 8.71875 5.6875 7.75 5.6875 7.15625 5.09375 L 6.882812 4.820312 C 6.699219 4.640625 6.402344 4.640625 6.21875 4.820312 L 4.820312 6.21875 C 4.734375 6.308594 4.683594 6.425781 4.683594 6.550781 C 4.683594 6.675781 4.734375 6.796875 4.820312 6.882812 L 5.09375 7.15625 C 5.6875 7.75 5.6875 8.71875 5.09375 9.3125 L 4.820312 9.585938 C 4.734375 9.671875 4.683594 9.792969 4.683594 9.917969 C 4.683594 10.042969 4.734375 10.160156 4.820312 10.25 L 6.21875 11.648438 C 6.402344 11.828125 6.699219 11.828125 6.882812 11.648438 L 7.15625 11.375 C 7.75 10.78125 8.71875 10.78125 9.3125 11.375 L 9.585938 11.648438 C 9.675781 11.738281 9.796875 11.785156 9.917969 11.785156 C 10.035156 11.785156 10.15625 11.738281 10.25 11.648438 L 11.648438 10.25 C 11.734375 10.160156 11.785156 10.042969 11.785156 9.917969 C 11.785156 9.792969 11.734375 9.671875 11.648438 9.585938 L 11.375 9.3125 C 10.78125 8.71875 10.78125 7.75 11.375 7.15625 L 11.648438 6.882812 C 11.734375 6.796875 11.785156 6.675781 11.785156 6.550781 C 11.785156 6.425781 11.734375 6.308594 11.648438 6.21875 L 10.25 4.820312 C 10.066406 4.640625 9.769531 4.640625 9.585938 4.820312 Z M 10.652344 9.914062 L 9.914062 10.652344 C 9.445312 10.210938 8.839844 9.992188 8.234375 9.992188 C 7.628906 9.992188 7.023438 10.210938 6.554688 10.652344 L 5.816406 9.914062 C 6.699219 8.972656 6.699219 7.496094 5.816406 6.554688 L 6.554688 5.816406 C 7.496094 6.699219 8.972656 6.699219 9.914062 5.816406 L 10.652344 6.554688 C 9.769531 7.496094 9.769531 8.972656 10.652344 9.914062 Z M 10.652344 9.914062 "/>
<path style=" stroke:none;fill-rule:nonzero;fill:rgb(255%,255%,255%);fill-opacity:1;" d="M 30.363281 26.566406 L 28.984375 26.566406 C 28.859375 26.566406 28.742188 26.617188 28.652344 26.703125 L 26.703125 28.652344 C 26.617188 28.742188 26.566406 28.859375 26.566406 28.984375 L 26.566406 30.363281 C 26.566406 30.621094 26.777344 30.832031 27.035156 30.832031 C 27.296875 30.832031 27.503906 30.621094 27.503906 30.363281 L 27.503906 29.179688 L 29.179688 27.503906 L 30.363281 27.503906 C 30.621094 27.503906 30.832031 27.296875 30.832031 27.035156 C 30.832031 26.777344 30.621094 26.566406 30.363281 26.566406 Z M 30.363281 26.566406 "/>
<path style=" stroke:none;fill-rule:nonzero;fill:rgb(255%,255%,255%);fill-opacity:1;" d="M 20.496094 30.832031 C 20.753906 30.832031 20.964844 30.621094 20.964844 30.363281 L 20.964844 28.984375 C 20.964844 28.859375 20.914062 28.742188 20.828125 28.652344 L 18.878906 26.703125 C 18.789062 26.617188 18.671875 26.566406 18.546875 26.566406 L 17.167969 26.566406 C 16.910156 26.566406 16.699219 26.777344 16.699219 27.035156 C 16.699219 27.296875 16.910156 27.503906 17.167969 27.503906 L 18.351562 27.503906 L 20.027344 29.179688 L 20.027344 30.363281 C 20.027344 30.621094 20.234375 30.832031 20.496094 30.832031 Z M 20.496094 30.832031 "/>
<path style=" stroke:none;fill-rule:nonzero;fill:rgb(255%,255%,255%);fill-opacity:1;" d="M 17.167969 20.964844 L 18.546875 20.964844 C 18.671875 20.964844 18.789062 20.914062 18.878906 20.828125 L 20.828125 18.878906 C 20.914062 18.789062 20.964844 18.671875 20.964844 18.546875 L 20.964844 17.167969 C 20.964844 16.910156 20.753906 16.699219 20.496094 16.699219 C 20.234375 16.699219 20.027344 16.910156 20.027344 17.167969 L 20.027344 18.351562 L 18.351562 20.027344 L 17.167969 20.027344 C 16.910156 20.027344 16.699219 20.234375 16.699219 20.496094 C 16.699219 20.753906 16.910156 20.964844 17.167969 20.964844 Z M 17.167969 20.964844 "/>
<path style=" stroke:none;fill-rule:nonzero;fill:rgb(255%,255%,255%);fill-opacity:1;" d="M 27.035156 16.699219 C 26.777344 16.699219 26.566406 16.910156 26.566406 17.167969 L 26.566406 18.546875 C 26.566406 18.671875 26.617188 18.789062 26.703125 18.878906 L 28.652344 20.828125 C 28.742188 20.914062 28.859375 20.964844 28.984375 20.964844 L 30.363281 20.964844 C 30.621094 20.964844 30.832031 20.753906 30.832031 20.496094 C 30.832031 20.234375 30.621094 20.027344 30.363281 20.027344 L 29.179688 20.027344 L 27.503906 18.351562 L 27.503906 17.167969 C 27.503906 16.910156 27.292969 16.699219 27.035156 16.699219 Z M 27.035156 16.699219 "/>
<path style=" stroke:none;fill-rule:nonzero;fill:rgb(255%,255%,255%);fill-opacity:1;" d="M 22.414062 27.179688 L 22.6875 26.90625 C 23.28125 26.3125 24.25 26.3125 24.84375 26.90625 L 25.117188 27.179688 C 25.207031 27.269531 25.328125 27.316406 25.449219 27.316406 C 25.566406 27.316406 25.6875 27.269531 25.78125 27.179688 L 27.179688 25.78125 C 27.265625 25.691406 27.316406 25.574219 27.316406 25.449219 C 27.316406 25.324219 27.265625 25.203125 27.179688 25.117188 L 26.90625 24.84375 C 26.3125 24.25 26.3125 23.28125 26.90625 22.6875 L 27.179688 22.414062 C 27.265625 22.328125 27.316406 22.207031 27.316406 22.082031 C 27.316406 21.957031 27.265625 21.839844 27.179688 21.75 L 25.78125 20.351562 C 25.597656 20.167969 25.300781 20.167969 25.117188 20.351562 L 24.84375 20.625 C 24.25 21.21875 23.28125 21.21875 22.6875 20.625 L 22.414062 20.351562 C 22.230469 20.167969 21.933594 20.167969 21.75 20.351562 L 20.351562 21.75 C 20.265625 21.839844 20.214844 21.957031 20.214844 22.082031 C 20.214844 22.207031 20.265625 22.328125 20.351562 22.414062 L 20.625 22.6875 C 21.21875 23.28125 21.21875 24.25 20.625 24.84375 L 20.351562 25.117188 C 20.265625 25.203125 20.214844 25.324219 20.214844 25.449219 C 20.214844 25.574219 20.265625 25.691406 20.351562 25.78125 L 21.75 27.179688 C 21.933594 27.359375 22.230469 27.359375 22.414062 27.179688 Z M 21.347656 22.085938 L 22.082031 21.347656 C 23.027344 22.230469 24.503906 22.230469 25.445312 21.347656 L 26.183594 22.085938 C 25.300781 23.027344 25.300781 24.503906 26.183594 25.445312 L 25.445312 26.183594 C 24.976562 25.742188 24.371094 25.523438 23.765625 25.523438 C 23.160156 25.523438 22.554688 25.742188 22.082031 26.183594 L 21.347656 25.445312 C 22.230469 24.503906 22.230469 23.027344 21.347656 22.085938 Z M 21.347656 22.085938 "/>
<path style=" stroke:none;fill-rule:nonzero;fill:rgb(255%,255%,255%);fill-opacity:1;" d="M 14.832031 26.566406 L 13.453125 26.566406 C 13.328125 26.566406 13.210938 26.617188 13.121094 26.703125 L 11.171875 28.652344 C 11.085938 28.742188 11.035156 28.859375 11.035156 28.984375 L 11.035156 30.363281 C 11.035156 30.621094 11.246094 30.832031 11.503906 30.832031 C 11.765625 30.832031 11.972656 30.621094 11.972656 30.363281 L 11.972656 29.179688 L 13.648438 27.503906 L 14.832031 27.503906 C 15.089844 27.503906 15.300781 27.296875 15.300781 27.035156 C 15.300781 26.777344 15.089844 26.566406 14.832031 26.566406 Z M 14.832031 26.566406 "/>
<path style=" stroke:none;fill-rule:nonzero;fill:rgb(255%,255%,255%);fill-opacity:1;" d="M 3.347656 26.703125 C 3.257812 26.617188 3.140625 26.566406 3.015625 26.566406 L 1.636719 26.566406 C 1.378906 26.566406 1.167969 26.777344 1.167969 27.035156 C 1.167969 27.296875 1.378906 27.503906 1.636719 27.503906 L 2.820312 27.503906 L 4.496094 29.179688 L 4.496094 30.363281 C 4.496094 30.621094 4.703125 30.832031 4.964844 30.832031 C 5.222656 30.832031 5.433594 30.621094 5.433594 30.363281 L 5.433594 28.984375 C 5.433594 28.859375 5.382812 28.742188 5.296875 28.652344 Z M 3.347656 26.703125 "/>
<path style=" stroke:none;fill-rule:nonzero;fill:rgb(255%,255%,255%);fill-opacity:1;" d="M 1.636719 20.964844 L 3.015625 20.964844 C 3.140625 20.964844 3.257812 20.914062 3.347656 20.828125 L 5.296875 18.878906 C 5.382812 18.789062 5.433594 18.671875 5.433594 18.546875 L 5.433594 17.167969 C 5.433594 16.910156 5.222656 16.699219 4.964844 16.699219 C 4.703125 16.699219 4.496094 16.910156 4.496094 17.167969 L 4.496094 18.351562 L 2.820312 20.027344 L 1.636719 20.027344 C 1.378906 20.027344 1.167969 20.234375 1.167969 20.496094 C 1.167969 20.753906 1.378906 20.964844 1.636719 20.964844 Z M 1.636719 20.964844 "/>
<path style=" stroke:none;fill-rule:nonzero;fill:rgb(255%,255%,255%);fill-opacity:1;" d="M 14.832031 20.027344 L 13.648438 20.027344 L 11.972656 18.351562 L 11.972656 17.167969 C 11.972656 16.910156 11.765625 16.699219 11.503906 16.699219 C 11.246094 16.699219 11.035156 16.910156 11.035156 17.167969 L 11.035156 18.546875 C 11.035156 18.671875 11.085938 18.789062 11.171875 18.878906 L 13.121094 20.828125 C 13.210938 20.914062 13.328125 20.964844 13.453125 20.964844 L 14.832031 20.964844 C 15.089844 20.964844 15.300781 20.753906 15.300781 20.496094 C 15.300781 20.234375 15.089844 20.027344 14.832031 20.027344 Z M 14.832031 20.027344 "/>
<path style=" stroke:none;fill-rule:nonzero;fill:rgb(255%,255%,255%);fill-opacity:1;" d="M 11.785156 25.449219 C 11.785156 25.324219 11.734375 25.203125 11.648438 25.117188 L 11.375 24.84375 C 10.78125 24.25 10.78125 23.28125 11.375 22.6875 L 11.648438 22.414062 C 11.734375 22.328125 11.785156 22.207031 11.785156 22.082031 C 11.785156 21.957031 11.734375 21.839844 11.648438 21.75 L 10.25 20.351562 C 10.066406 20.171875 9.769531 20.171875 9.585938 20.351562 L 9.3125 20.625 C 8.71875 21.21875 7.75 21.21875 7.15625 20.625 L 6.882812 20.351562 C 6.699219 20.171875 6.402344 20.171875 6.21875 20.351562 L 4.820312 21.75 C 4.734375 21.839844 4.683594 21.957031 4.683594 22.082031 C 4.683594 22.207031 4.734375 22.328125 4.820312 22.414062 L 5.09375 22.6875 C 5.6875 23.28125 5.6875 24.25 5.09375 24.84375 L 4.820312 25.117188 C 4.734375 25.203125 4.683594 25.324219 4.683594 25.449219 C 4.683594 25.574219 4.734375 25.691406 4.820312 25.78125 L 6.21875 27.179688 C 6.402344 27.363281 6.699219 27.363281 6.882812 27.179688 L 7.15625 26.90625 C 7.75 26.3125 8.71875 26.3125 9.3125 26.90625 L 9.585938 27.179688 C 9.675781 27.269531 9.796875 27.316406 9.917969 27.316406 C 10.039062 27.316406 10.15625 27.269531 10.25 27.179688 L 11.648438 25.78125 C 11.734375 25.691406 11.785156 25.574219 11.785156 25.449219 Z M 9.914062 26.183594 C 9.445312 25.742188 8.839844 25.523438 8.234375 25.523438 C 7.628906 25.523438 7.023438 25.742188 6.554688 26.183594 L 5.816406 25.449219 C 6.699219 24.503906 6.699219 23.027344 5.816406 22.085938 L 6.554688 21.347656 C 7.496094 22.230469 8.972656 22.230469 9.914062 21.347656 L 10.652344 22.085938 C 9.769531 23.027344 9.769531 24.503906 10.652344 25.449219 Z M 9.914062 26.183594 "/>
</g>
</svg>
