<?xml version="1.0" encoding="UTF-8"?>
<svg xmlns="http://www.w3.org/2000/svg" xmlns:xlink="http://www.w3.org/1999/xlink" width="32pt" height="32pt" viewBox="0 0 32 32" version="1.1">
<g id="surface1">
<path style=" stroke:none;fill-rule:nonzero;fill:rgb(255%,255%,255%);fill-opacity:1;" d="M 16.207031 11.875 C 14.402344 11.875 12.941406 13.335938 12.941406 15.140625 C 12.941406 16.941406 14.402344 18.402344 16.207031 18.402344 C 18.007812 18.402344 19.46875 16.941406 19.46875 15.140625 C 19.46875 13.335938 18.007812 11.875 16.207031 11.875 Z M 16.207031 16.851562 C 15.261719 16.851562 14.496094 16.085938 14.496094 15.140625 C 14.496094 14.195312 15.261719 13.429688 16.207031 13.429688 C 17.148438 13.429688 17.914062 14.195312 17.914062 15.140625 C 17.914062 16.085938 17.148438 16.851562 16.207031 16.851562 Z M 16.207031 16.851562 "/>
<path style=" stroke:none;fill-rule:nonzero;fill:rgb(255%,255%,255%);fill-opacity:1;" d="M 29.222656 4.414062 L 8.007812 2.003906 C 7.183594 1.886719 6.347656 2.128906 5.714844 2.667969 C 5.078125 3.160156 4.671875 3.886719 4.585938 4.6875 L 4.199219 7.875 L 2.992188 7.875 C 1.285156 7.875 0 9.390625 0 11.097656 L 0 26.992188 C -0.0429688 28.621094 1.246094 29.980469 2.875 30.023438 C 2.914062 30.023438 2.953125 30.023438 2.992188 30.023438 L 24.328125 30.023438 C 26.035156 30.023438 27.589844 28.703125 27.589844 26.992188 L 27.589844 26.371094 C 28.121094 26.269531 28.625 26.054688 29.066406 25.75 C 29.699219 25.21875 30.101562 24.46875 30.195312 23.648438 L 31.980469 7.875 C 32.164062 6.160156 30.933594 4.617188 29.222656 4.414062 Z M 26.035156 26.992188 C 26.035156 27.847656 25.183594 28.46875 24.328125 28.46875 L 2.992188 28.46875 C 2.222656 28.492188 1.578125 27.882812 1.554688 27.113281 C 1.550781 27.070312 1.554688 27.03125 1.554688 26.992188 L 1.554688 24.117188 L 7.578125 19.6875 C 8.300781 19.132812 9.320312 19.179688 9.988281 19.804688 L 14.222656 23.535156 C 14.867188 24.074219 15.675781 24.375 16.515625 24.386719 C 17.171875 24.398438 17.820312 24.222656 18.382812 23.882812 L 26.035156 19.453125 Z M 26.035156 17.628906 L 17.566406 22.5625 C 16.839844 22.992188 15.917969 22.914062 15.273438 22.367188 L 11 18.597656 C 9.773438 17.546875 7.984375 17.480469 6.683594 18.441406 L 1.554688 22.171875 L 1.554688 11.097656 C 1.554688 10.242188 2.136719 9.429688 2.992188 9.429688 L 24.328125 9.429688 C 25.238281 9.464844 25.976562 10.1875 26.035156 11.097656 Z M 30.429688 7.664062 C 30.429688 7.667969 30.429688 7.675781 30.425781 7.679688 L 28.601562 23.457031 C 28.605469 23.863281 28.417969 24.253906 28.097656 24.503906 C 27.941406 24.660156 27.589844 24.738281 27.589844 24.816406 L 27.589844 11.097656 C 27.53125 9.328125 26.097656 7.914062 24.328125 7.875 L 5.753906 7.875 L 6.101562 4.84375 C 6.179688 4.449219 6.382812 4.09375 6.683594 3.832031 C 7.027344 3.597656 7.4375 3.488281 7.851562 3.519531 L 29.027344 5.96875 C 29.882812 6.050781 30.511719 6.808594 30.429688 7.664062 Z M 30.429688 7.664062 "/>
</g>
</svg>
