<svg height="32pt" viewBox="0 0 32 32" width="32pt" xmlns="http://www.w3.org/2000/svg"><g fill="#fff"><path d="m16.207031 11.875c-1.804687 0-3.265625 1.460938-3.265625 3.265625 0 1.800781 1.460938 3.261719 3.265625 3.261719 1.800781 0 3.261719-1.460938 3.261719-3.261719 0-1.804687-1.460938-3.265625-3.261719-3.265625zm0 4.976562c-.945312 0-1.710937-.765624-1.710937-1.710937s.765625-1.710937 1.710937-1.710937c.941407 0 1.707031.765624 1.707031 1.710937s-.765624 1.710937-1.707031 1.710937zm0 0"/><path d="m29.222656 4.414062-21.214844-2.410156c-.824218-.117187-1.660156.125-2.292968.664063-.636719.492187-1.042969 1.21875-1.128906 2.019531l-.386719 3.1875h-1.207031c-1.707032 0-2.992188 1.515625-2.992188 3.222656v15.894532c-.0429688 1.628906 1.246094 2.988281 2.875 3.03125h.117188 21.335937c1.707031 0 3.261719-1.320313 3.261719-3.03125v-.621094c.53125-.101563 1.035156-.316406 1.476562-.621094.632813-.53125 1.035156-1.28125 1.128906-2.101562l1.785157-15.773438c.183593-1.714844-1.046875-3.257812-2.757813-3.460938zm-3.1875 22.578126c0 .855468-.851562 1.476562-1.707031 1.476562h-21.335937c-.769532.023438-1.414063-.585938-1.4375-1.355469-.003907-.042969 0-.082031 0-.121093v-2.875l6.023437-4.429688c.722656-.554688 1.742187-.507812 2.410156.117188l4.234375 3.730468c.644532.539063 1.453125.839844 2.292969.851563.65625.011719 1.304687-.164063 1.867187-.503907l7.652344-4.429687zm0-9.363282-8.46875 4.933594c-.726562.429688-1.648437.351562-2.292968-.195312l-4.273438-3.769532c-1.226562-1.050781-3.015625-1.117187-4.316406-.15625l-5.128906 3.730469v-11.074219c0-.855468.582031-1.667968 1.4375-1.667968h21.335937c.910156.035156 1.648437.757812 1.707031 1.667968zm4.394532-9.964844c0 .003907 0 .011719-.003907.015626l-1.824219 15.777343c.003907.40625-.183593.796875-.503906 1.046875-.15625.15625-.507812.234375-.507812.3125v-13.71875c-.058594-1.769531-1.492188-3.183594-3.261719-3.222656h-18.574219l.347656-3.03125c.078126-.394531.28125-.75.582032-1.011719.34375-.234375.753906-.34375 1.167968-.3125l21.175782 2.449219c.855468.082031 1.484375.839844 1.402344 1.695312zm0 0"/></g></svg>