<?xml version="1.0" encoding="UTF-8"?>
<svg xmlns="http://www.w3.org/2000/svg" xmlns:xlink="http://www.w3.org/1999/xlink" width="32pt" height="32pt" viewBox="0 0 32 32" version="1.1">
<g id="surface1">
<path style=" stroke:none;fill-rule:nonzero;fill:rgb(255,255,255);fill-opacity:1;" d="M 31.898438 19.421875 L 18.03125 0.222656 C 17.933594 0.0820312 17.769531 0 17.601562 0 L 14.398438 0 C 14.230469 0 14.066406 0.0820312 13.96875 0.222656 L 0.101562 19.421875 C 0.0351562 19.511719 0 19.621094 0 19.734375 L 0 31.464844 C 0 31.609375 0.0546875 31.742188 0.15625 31.84375 C 0.257812 31.945312 0.390625 32 0.535156 32 L 31.464844 32 C 31.609375 32 31.742188 31.945312 31.84375 31.84375 C 31.945312 31.742188 32 31.609375 32 31.464844 L 32 19.734375 C 32 19.621094 31.964844 19.511719 31.898438 19.421875 Z M 1.066406 22.398438 L 2.132812 22.398438 L 2.132812 28.800781 L 1.066406 28.800781 Z M 30.933594 30.933594 L 1.066406 30.933594 L 1.066406 29.867188 L 30.933594 29.867188 Z M 13.957031 28.800781 L 11.824219 28.800781 L 3.199219 23.175781 L 3.199219 22.398438 L 4.144531 22.398438 Z M 6.097656 22.398438 L 14.398438 22.398438 L 14.398438 27.816406 Z M 9.871094 28.800781 L 3.199219 28.800781 L 3.199219 24.449219 Z M 15.464844 28.800781 L 15.464844 22.398438 L 16.535156 22.398438 L 16.535156 28.800781 Z M 20.175781 28.800781 L 18.042969 28.800781 L 27.855469 22.398438 L 28.800781 22.398438 L 28.800781 23.175781 Z M 28.800781 24.449219 L 28.800781 28.800781 L 22.128906 28.800781 Z M 17.601562 27.816406 L 17.601562 22.398438 L 25.902344 22.398438 Z M 30.933594 28.800781 L 29.867188 28.800781 L 29.867188 22.398438 L 30.933594 22.398438 Z M 30.933594 21.332031 L 1.066406 21.332031 L 1.066406 19.90625 L 14.671875 1.066406 L 17.328125 1.066406 L 30.933594 19.90625 Z M 30.933594 21.332031 "/>
<path style=" stroke:none;fill-rule:nonzero;fill:rgb(255,255,255);fill-opacity:1;" d="M 15.273438 3.03125 C 15.261719 3.023438 15.257812 3.011719 15.246094 3.003906 C 15.230469 2.992188 15.210938 2.984375 15.195312 2.980469 C 15.132812 2.941406 15.0625 2.917969 14.988281 2.914062 C 14.96875 2.90625 14.953125 2.902344 14.933594 2.902344 C 14.917969 2.902344 14.90625 2.910156 14.894531 2.910156 C 14.753906 2.921875 14.625 2.988281 14.53125 3.09375 C 14.523438 3.105469 14.507812 3.109375 14.5 3.121094 L 2.730469 19.421875 C 2.613281 19.582031 2.597656 19.796875 2.6875 19.976562 C 2.777344 20.15625 2.960938 20.265625 3.164062 20.265625 L 14.933594 20.265625 C 15.074219 20.265625 15.210938 20.210938 15.308594 20.109375 C 15.410156 20.011719 15.464844 19.875 15.464844 19.734375 L 15.464844 3.433594 C 15.464844 3.421875 15.460938 3.40625 15.457031 3.394531 C 15.445312 3.253906 15.378906 3.125 15.273438 3.03125 Z M 14.398438 19.199219 L 4.207031 19.199219 L 14.398438 5.085938 Z M 14.398438 19.199219 "/>
<path style=" stroke:none;fill-rule:nonzero;fill:rgb(255,255,255);fill-opacity:1;" d="M 17.066406 2.902344 C 17.046875 2.902344 17.03125 2.90625 17.011719 2.914062 C 16.9375 2.917969 16.871094 2.941406 16.808594 2.976562 C 16.789062 2.984375 16.769531 2.992188 16.753906 3.003906 C 16.742188 3.011719 16.738281 3.023438 16.726562 3.03125 C 16.621094 3.125 16.554688 3.253906 16.542969 3.394531 C 16.539062 3.40625 16.535156 3.421875 16.535156 3.433594 L 16.535156 19.734375 C 16.535156 19.875 16.589844 20.011719 16.691406 20.109375 C 16.789062 20.210938 16.925781 20.265625 17.066406 20.265625 L 28.835938 20.265625 C 29.039062 20.265625 29.222656 20.15625 29.3125 19.976562 C 29.402344 19.796875 29.386719 19.582031 29.269531 19.421875 L 17.5 3.121094 C 17.492188 3.109375 17.476562 3.105469 17.46875 3.09375 C 17.375 2.988281 17.246094 2.921875 17.105469 2.910156 C 17.09375 2.910156 17.082031 2.902344 17.066406 2.902344 Z M 17.601562 5.085938 L 27.792969 19.199219 L 17.601562 19.199219 Z M 17.601562 5.085938 "/>
</g>
</svg>
