<svg height="32pt" viewBox="0 0 32 32" width="32pt" xmlns="http://www.w3.org/2000/svg"><g fill="#fff"><path d="m31.898438 19.421875-13.867188-19.199219c-.097656-.1406248-.261719-.222656-.429688-.222656h-3.203124c-.167969 0-.332032.0820312-.429688.222656l-13.867188 19.199219c-.0664058.089844-.101562.199219-.101562.3125v11.730469c0 .144531.0546875.277344.15625.378906.101562.101562.234375.15625.378906.15625h30.929688c.144531 0 .277344-.054688.378906-.15625s.15625-.234375.15625-.378906v-11.730469c0-.113281-.035156-.222656-.101562-.3125zm-30.832032 2.976563h1.066406v6.402343h-1.066406zm29.867188 8.535156h-29.867188v-1.066406h29.867188zm-16.976563-2.132813h-2.132812l-8.625-5.625v-.777343h.945312zm-7.859375-6.402343h8.300782v5.417968zm3.773438 6.402343h-6.671875v-4.351562zm5.59375 0v-6.402343h1.070312v6.402343zm4.710937 0h-2.132812l9.8125-6.402343h.945312v.777343zm8.625-4.351562v4.351562h-6.671875zm-11.199219 3.367187v-5.417968h8.300782zm13.332032.984375h-1.066406v-6.402343h1.066406zm0-7.46875h-29.867188v-1.425781l13.605469-18.839844h2.65625l13.605469 18.839844zm0 0"/><path d="m15.273438 3.03125c-.011719-.007812-.015626-.019531-.027344-.027344-.015625-.011718-.035156-.019531-.050782-.023437-.0625-.039063-.132812-.0625-.207031-.066407-.019531-.007812-.035156-.011718-.054687-.011718-.015625 0-.027344.007812-.039063.007812-.140625.011719-.269531.078125-.363281.183594-.007812.011719-.023438.015625-.03125.027344l-11.769531 16.300781c-.117188.160156-.132813.375-.042969.554687.089844.179688.273438.289063.476562.289063h11.769532c.140625 0 .277344-.054687.375-.15625.101562-.097656.15625-.234375.15625-.375v-16.300781c0-.011719-.003906-.027344-.007813-.039063-.011719-.140625-.078125-.269531-.183593-.363281zm-.875 16.167969h-10.191407l10.191407-14.113281zm0 0"/><path d="m17.066406 2.902344c-.019531 0-.035156.003906-.054687.011718-.074219.003907-.140625.027344-.203125.0625-.019532.007813-.039063.015626-.054688.027344-.011718.007813-.015625.019532-.027344.027344-.105468.09375-.171874.222656-.183593.363281-.003907.011719-.007813.027344-.007813.039063v16.300781c0 .140625.054688.277344.15625.375.097656.101563.234375.15625.375.15625h11.769532c.203124 0 .386718-.109375.476562-.289063.089844-.179687.074219-.394531-.042969-.554687l-11.769531-16.300781c-.007812-.011719-.023438-.015625-.03125-.027344-.09375-.105469-.222656-.171875-.363281-.183594-.011719 0-.023438-.007812-.039063-.007812zm.535156 2.183594 10.191407 14.113281h-10.191407zm0 0"/></g></svg>