<svg height="12pt" viewBox="0 0 12 12" width="12pt" xmlns="http://www.w3.org/2000/svg"><g fill="#3273f5"><path d="m6.34375 5.203125c-.132812.128906-.132812.34375 0 .472656.542969.546875.542969 1.429688 0 1.972657l-2.859375 2.859374c-.542969.546876-1.429687.546876-1.972656 0l-.429688-.429687c-.546875-.542969-.546875-1.429687 0-1.972656l2.859375-2.859375c.128906-.132813.128906-.34375 0-.472656-.132812-.132813-.34375-.132813-.476562 0l-2.859375 2.855468c-.390625.390625-.605469.910156-.605469 1.464844 0 .550781.214844 1.070312.605469 1.460938l.429687.429687c.402344.402344.933594.601563 1.460938.601563.53125 0 1.0625-.199219 1.464844-.601563l2.855468-2.859375c.804688-.804688.804688-2.117188 0-2.921875-.128906-.132813-.339844-.132813-.472656 0zm0 0"/><path d="m11.394531 1.445312-.429687-.429687c-.804688-.804687-2.117188-.804687-2.921875 0l-2.859375 2.859375c-.804688.804688-.804688 2.117188 0 2.921875.132812.132813.34375.132813.476562 0 .132813-.128906.132813-.34375 0-.472656-.546875-.546875-.546875-1.429688 0-1.972657l2.859375-2.859374c.542969-.546876 1.425781-.546876 1.972657 0l.429687.429687c.542969.542969.542969 1.429687 0 1.972656l-2.859375 2.859375c-.132812.132813-.132812.34375 0 .472656.066406.066407.152344.101563.238281.101563.082031 0 .167969-.03125.234375-.101563l2.859375-2.855468c.390625-.390625.605469-.910156.605469-1.464844 0-.550781-.214844-1.070312-.605469-1.460938zm0 0"/></g></svg>