<?xml version="1.0" encoding="UTF-8"?>
<svg xmlns="http://www.w3.org/2000/svg" xmlns:xlink="http://www.w3.org/1999/xlink" width="12pt" height="12pt" viewBox="0 0 12 12" version="1.1">
<g id="surface1">
<path style=" stroke:none;fill-rule:nonzero;fill:rgb(19.607843%,45.098039%,96.078431%);fill-opacity:1;" d="M 6.34375 5.203125 C 6.210938 5.332031 6.210938 5.546875 6.34375 5.675781 C 6.886719 6.222656 6.886719 7.105469 6.34375 7.648438 L 3.484375 10.507812 C 2.941406 11.054688 2.054688 11.054688 1.511719 10.507812 L 1.082031 10.078125 C 0.535156 9.535156 0.535156 8.648438 1.082031 8.105469 L 3.941406 5.246094 C 4.070312 5.113281 4.070312 4.902344 3.941406 4.773438 C 3.808594 4.640625 3.597656 4.640625 3.464844 4.773438 L 0.605469 7.628906 C 0.214844 8.019531 0 8.539062 0 9.09375 C 0 9.644531 0.214844 10.164062 0.605469 10.554688 L 1.035156 10.984375 C 1.4375 11.386719 1.96875 11.585938 2.496094 11.585938 C 3.027344 11.585938 3.558594 11.386719 3.960938 10.984375 L 6.816406 8.125 C 7.621094 7.320312 7.621094 6.007812 6.816406 5.203125 C 6.6875 5.070312 6.476562 5.070312 6.34375 5.203125 Z M 6.34375 5.203125 "/>
<path style=" stroke:none;fill-rule:nonzero;fill:rgb(19.607843%,45.098039%,96.078431%);fill-opacity:1;" d="M 11.394531 1.445312 L 10.964844 1.015625 C 10.160156 0.210938 8.847656 0.210938 8.042969 1.015625 L 5.183594 3.875 C 4.378906 4.679688 4.378906 5.992188 5.183594 6.796875 C 5.316406 6.929688 5.527344 6.929688 5.660156 6.796875 C 5.792969 6.667969 5.792969 6.453125 5.660156 6.324219 C 5.113281 5.777344 5.113281 4.894531 5.660156 4.351562 L 8.519531 1.492188 C 9.0625 0.945312 9.945312 0.945312 10.492188 1.492188 L 10.921875 1.921875 C 11.464844 2.464844 11.464844 3.351562 10.921875 3.894531 L 8.0625 6.753906 C 7.929688 6.886719 7.929688 7.097656 8.0625 7.226562 C 8.128906 7.292969 8.214844 7.328125 8.300781 7.328125 C 8.382812 7.328125 8.46875 7.296875 8.535156 7.226562 L 11.394531 4.371094 C 11.785156 3.980469 12 3.460938 12 2.90625 C 12 2.355469 11.785156 1.835938 11.394531 1.445312 Z M 11.394531 1.445312 "/>
</g>
</svg>
