<svg height="32pt" viewBox="0 0 32 32" width="32pt" xmlns="http://www.w3.org/2000/svg"><g fill="#fff"><path d="m7.804688 5.472656c.261718-.261718.261718-.683594 0-.945312-.261719-.257813-.683594-.257813-.941407 0-.261719.261718-.261719.683594 0 .945312.257813.257813.679688.257813.941407 0zm0 0"/><path d="m32 18.332031c0-.367187-.296875-.664062-.667969-.664062v-1.335938c.371094 0 .667969-.296875.667969-.664062 0-.367188-.296875-.667969-.667969-.667969v-1.332031c.371094 0 .667969-.300781.667969-.667969s-.296875-.667969-.667969-.667969v-1.332031c.371094 0 .667969-.300781.667969-.667969 0-.367187-.296875-.664062-.667969-.664062v-1.335938c.371094 0 .667969-.296875.667969-.664062 0-.367188-.296875-.667969-.667969-.667969v-1.332031c.371094 0 .667969-.300781.667969-.667969s-.296875-.667969-.667969-.667969v-1.332031c.371094 0 .667969-.300781.667969-.667969 0-.367187-.296875-.664062-.667969-.664062h-24.664062v.011719c-1.617188.0625-3.121094.34375-4.296875.816406-1.527344.609375-2.371094 1.5-2.371094 2.503906v22c0 1.003906.84375 1.890625 2.371094 2.503906 1.335937.535156 3.097656.828125 4.960937.828125 1.867188 0 3.628907-.292969 4.964844-.828125 1.527344-.613281 2.371094-1.5 2.371094-2.503906h16.664062c.371094 0 .667969-.300781.667969-.667969 0-.367187-.296875-.664062-.667969-.664062v-1.335938c.371094 0 .667969-.296875.667969-.664062 0-.371094-.296875-.667969-.667969-.667969v-1.332031c.371094 0 .667969-.300781.667969-.667969s-.296875-.667969-.667969-.667969v-1.332031c.371094 0 .667969-.300781.667969-.667969zm-29.132812-14.597656c1.179687-.472656 2.769531-.734375 4.464843-.734375 1.699219 0 3.285157.261719 4.46875.734375.917969.367187 1.515625.855469 1.53125 1.25-.023437.152344-.441406 2.015625-6 2.015625-5.558593 0-5.972656-1.863281-6-2.015625.019531-.394531.613281-.882813 1.535157-1.25zm-1.535157 8.582031c.003907.011719 0 .015625 0 .015625zm0 7.335938c.003907.007812 0 .015625 0 .015625zm12 7.347656c0 .394531-.601562.894531-1.53125 1.265625-1.183593.472656-2.769531.734375-4.46875.734375-1.695312 0-3.28125-.261719-4.464843-.734375-.933594-.371094-1.535157-.871094-1.535157-1.265625v-5.296875c1.253907.859375 3.269531 1.296875 6 1.296875 2.734375 0 4.75-.4375 6-1.296875zm0-7.355469c-.015625.113281-.371093 2.023438-6 2.023438-5.625 0-5.984375-1.910157-6-2.023438v-5.273437c1.253907.859375 3.269531 1.296875 6 1.296875 2.734375 0 4.75-.4375 6-1.296875zm0-7.332031c-.015625.113281-.371093 2.019531-6 2.019531-5.625 0-5.984375-1.90625-6-2.019531v-5.273438c1.253907.859376 3.269531 1.292969 6 1.292969 2.734375 0 4.75-.433593 6-1.292969zm16.667969 13.355469h-15.332031v-6.667969h15.332031zm0-8h-15.332031v-6.667969h15.332031zm0-8h-15.332031v-4.667969c0-.753906-.476563-1.445312-1.363281-2h16.695312zm0 0"/></g></svg>