<?xml version="1.0" encoding="UTF-8"?>
<svg xmlns="http://www.w3.org/2000/svg" xmlns:xlink="http://www.w3.org/1999/xlink" width="32pt" height="32pt" viewBox="0 0 32 32" version="1.1">
<g id="surface1">
<path style=" stroke:none;fill-rule:nonzero;fill:rgb(255%,255%,255%);fill-opacity:1;" d="M 7.804688 5.472656 C 8.066406 5.210938 8.066406 4.789062 7.804688 4.527344 C 7.542969 4.269531 7.121094 4.269531 6.863281 4.527344 C 6.601562 4.789062 6.601562 5.210938 6.863281 5.472656 C 7.121094 5.730469 7.542969 5.730469 7.804688 5.472656 Z M 7.804688 5.472656 "/>
<path style=" stroke:none;fill-rule:nonzero;fill:rgb(255%,255%,255%);fill-opacity:1;" d="M 32 18.332031 C 32 17.964844 31.703125 17.667969 31.332031 17.667969 L 31.332031 16.332031 C 31.703125 16.332031 32 16.035156 32 15.667969 C 32 15.300781 31.703125 15 31.332031 15 L 31.332031 13.667969 C 31.703125 13.667969 32 13.367188 32 13 C 32 12.632812 31.703125 12.332031 31.332031 12.332031 L 31.332031 11 C 31.703125 11 32 10.699219 32 10.332031 C 32 9.964844 31.703125 9.667969 31.332031 9.667969 L 31.332031 8.332031 C 31.703125 8.332031 32 8.035156 32 7.667969 C 32 7.300781 31.703125 7 31.332031 7 L 31.332031 5.667969 C 31.703125 5.667969 32 5.367188 32 5 C 32 4.632812 31.703125 4.332031 31.332031 4.332031 L 31.332031 3 C 31.703125 3 32 2.699219 32 2.332031 C 32 1.964844 31.703125 1.667969 31.332031 1.667969 L 6.667969 1.667969 L 6.667969 1.679688 C 5.050781 1.742188 3.546875 2.023438 2.371094 2.496094 C 0.84375 3.105469 0 3.996094 0 5 L 0 27 C 0 28.003906 0.84375 28.890625 2.371094 29.503906 C 3.707031 30.039062 5.46875 30.332031 7.332031 30.332031 C 9.199219 30.332031 10.960938 30.039062 12.296875 29.503906 C 13.824219 28.890625 14.667969 28.003906 14.667969 27 L 31.332031 27 C 31.703125 27 32 26.699219 32 26.332031 C 32 25.964844 31.703125 25.667969 31.332031 25.667969 L 31.332031 24.332031 C 31.703125 24.332031 32 24.035156 32 23.667969 C 32 23.296875 31.703125 23 31.332031 23 L 31.332031 21.667969 C 31.703125 21.667969 32 21.367188 32 21 C 32 20.632812 31.703125 20.332031 31.332031 20.332031 L 31.332031 19 C 31.703125 19 32 18.699219 32 18.332031 Z M 2.867188 3.734375 C 4.046875 3.261719 5.636719 3 7.332031 3 C 9.03125 3 10.617188 3.261719 11.800781 3.734375 C 12.71875 4.101562 13.316406 4.589844 13.332031 4.984375 C 13.308594 5.136719 12.890625 7 7.332031 7 C 1.773438 7 1.359375 5.136719 1.332031 4.984375 C 1.351562 4.589844 1.945312 4.101562 2.867188 3.734375 Z M 1.332031 12.316406 C 1.335938 12.328125 1.332031 12.332031 1.332031 12.332031 Z M 1.332031 19.652344 C 1.335938 19.660156 1.332031 19.667969 1.332031 19.667969 Z M 13.332031 27 C 13.332031 27.394531 12.730469 27.894531 11.800781 28.265625 C 10.617188 28.738281 9.03125 29 7.332031 29 C 5.636719 29 4.050781 28.738281 2.867188 28.265625 C 1.933594 27.894531 1.332031 27.394531 1.332031 27 L 1.332031 21.703125 C 2.585938 22.5625 4.601562 23 7.332031 23 C 10.066406 23 12.082031 22.5625 13.332031 21.703125 Z M 13.332031 19.644531 C 13.316406 19.757812 12.960938 21.667969 7.332031 21.667969 C 1.707031 21.667969 1.347656 19.757812 1.332031 19.644531 L 1.332031 14.371094 C 2.585938 15.230469 4.601562 15.667969 7.332031 15.667969 C 10.066406 15.667969 12.082031 15.230469 13.332031 14.371094 Z M 13.332031 12.3125 C 13.316406 12.425781 12.960938 14.332031 7.332031 14.332031 C 1.707031 14.332031 1.347656 12.425781 1.332031 12.3125 L 1.332031 7.039062 C 2.585938 7.898438 4.601562 8.332031 7.332031 8.332031 C 10.066406 8.332031 12.082031 7.898438 13.332031 7.039062 Z M 30 25.667969 L 14.667969 25.667969 L 14.667969 19 L 30 19 Z M 30 17.667969 L 14.667969 17.667969 L 14.667969 11 L 30 11 Z M 30 9.667969 L 14.667969 9.667969 L 14.667969 5 C 14.667969 4.246094 14.191406 3.554688 13.304688 3 L 30 3 Z M 30 9.667969 "/>
</g>
</svg>
