<svg fill="#fff" height="24pt" viewBox="0 0 24 24" width="24pt" xmlns="http://www.w3.org/2000/svg"><path d="m10.570312 0c-5.828124 0-10.570312 4.742188-10.570312 10.570312 0 5.828126 4.742188 10.566407 10.570312 10.566407 5.828126 0 10.566407-4.738281 10.566407-10.566407 0-5.828124-4.738281-10.570312-10.566407-10.570312zm0 19.1875c-4.753906 0-8.617187-3.867188-8.617187-8.617188 0-4.753906 3.863281-8.617187 8.617187-8.617187 4.75 0 8.617188 3.863281 8.617188 8.617187 0 4.75-3.867188 8.617188-8.617188 8.617188zm0 0"/><path d="m23.714844 22.335938-5.59375-5.59375c-.382813-.382813-1-.382813-1.378906 0-.382813.378906-.382813.996093 0 1.378906l5.59375 5.59375c.1875.191406.4375.285156.6875.285156s.5-.09375.691406-.285156c.378906-.382813.378906-1 0-1.378906zm0 0"/></svg>