<svg height="32pt" viewBox="0 0 32 32" width="32pt" xmlns="http://www.w3.org/2000/svg"><g fill="#fff"><path d="m1.1875 12.902344c.210938.25.515625.40625.839844.425781h.078125c.195312 0 .390625-.050781.5625-.144531v8.402344c.003906 1.039062.84375 1.878906 1.882812 1.878906h10.898438l-3.105469 3.589844c-1.078125 1.25-.945312 3.136718.304688 4.21875 1.25 1.078124 3.136718.941406 4.214843-.308594l6.398438-7.402344c2.355469.644531 4.875-.003906 6.628906-1.699219 1.753906-1.695312 2.484375-4.191406 1.921875-6.566406-.089844-.378906-.382812-.675781-.761719-.769531-.371093-.09375-.765625.035156-1.015625.324218l-2.964844 3.429688-3.136718-.058594-.511719-3.097656 2.964844-3.429688c.253906-.289062.320312-.695312.175781-1.050781-.144531-.359375-.484375-.605469-.871094-.636719-.6875-.058593-1.382812-.011718-2.058594.140626l-2.296874-2.089844v-4.71875c0-.667969-.539063-1.207032-1.207032-1.207032h-2.386718c-.667969 0-1.207032.539063-1.207032 1.207032v.359375l-3.722656-3.382813c-.457031-.421875-1.160156-.421875-1.617188 0l-10.792968 9.800782c-.4921878.453124-.539063 1.214843-.105469 1.726562zm8.414062 9.496094v-5.863282c0-.296875.238282-.535156.535157-.535156h3.730469c.296874 0 .535156.238281.535156.535156v5.863282zm5.867188 0v-5.863282c0-.886718-.714844-1.601562-1.601562-1.601562h-3.730469c-.882813 0-1.601563.714844-1.601563 1.601562v5.863282h-3.984375c-.449219 0-.8125-.363282-.816406-.8125v-9.316407l8.269531-7.507812 8.09375 7.355469c-.082031.085937-.167968.160156-.242187.25-1.746094 2.011718-2.175781 4.847656-1.109375 7.289062l-2.375 2.742188zm9.617188-11.355469c.148437 0 .296874.003906.441406.015625l-3.070313 3.554687c-.105469.121094-.148437.28125-.125.4375l.625 3.78125c.039063.253907.257813.441407.515625.449219l3.832032.070312c.160156 0 .308593-.066406.414062-.1875l3.074219-3.554687c.464843 2.054687-.214844 4.199219-1.777344 5.617187-1.558594 1.414063-3.757813 1.878907-5.761719 1.21875-.203125-.066406-.429687-.003906-.570312.160157l-6.628906 7.664062c-.449219.519531-1.140626.757813-1.816407.628907-.671875-.128907-1.226562-.609376-1.453125-1.257813-.222656-.648437-.085937-1.367187.363282-1.886719l6.628906-7.664062c.140625-.160156.171875-.394532.074218-.585938-.90625-1.8125-.808593-3.964844.257813-5.6875 1.066406-1.726562 2.949219-2.773437 4.976563-2.773437zm-7.484376-7.703125c.003907-.078125.0625-.136719.140626-.140625h2.386718c.078125.003906.136719.0625.140625.140625v3.75l-2.667969-2.421875zm-16.480468 7.5625 10.792968-9.800782c.050782-.046874.128907-.046874.179688 0l10.351562 9.40625c-.554687.230469-1.074218.53125-1.550781.898438l-8.53125-7.753906c-.203125-.1875-.515625-.1875-.71875 0l-8.816406 8h-.003906l-.636719.578125c-.023438.023437-.054688.035156-.089844.035156s-.070312-.019531-.09375-.050781l-.894531-1.058594c-.058594-.074219-.054687-.183594.011719-.253906zm0 0"/><path d="m15.386719 27.3125-.976563 1.140625c-.183594.222656-.152344.554687.066406.742187s.550782.164063.742188-.050781l.980469-1.140625c.183593-.222656.152343-.554687-.066407-.742187-.222656-.1875-.550781-.164063-.746093.050781zm0 0" fill-rule="evenodd"/></g></svg>