<svg height="32pt" viewBox="0 0 32 32" width="32pt" xmlns="http://www.w3.org/2000/svg"><g fill="#fff"><path d="m10.5 8.5c0 1.101562.898438 2 2 2s2-.898438 2-2-.898438-2-2-2-2 .898438-2 2zm3 0c0 .550781-.449219 1-1 1s-1-.449219-1-1 .449219-1 1-1 1 .449219 1 1zm0 0"/><path d="m31.5 15.5v-3h-1.234375l-4-6h-7.058594l-5.5-5.5c-.644531-.644531-1.769531-.644531-2.414062 0l-10.441407 10.441406c-.226562.226563-.351562.527344-.351562.851563 0 .664062.542969 1.207031 1.207031 1.207031h.792969v11h-.5c-.828125 0-1.5.671875-1.5 1.5v4c0 .828125.671875 1.5 1.5 1.5h12.152344l3-2h8.640625l.558593.558594c.285157.285156.660157.441406 1.0625.441406h2.585938c.828125 0 1.5-.671875 1.5-1.5v-2c0-.652344-.417969-1.199219-1-1.40625v-10.09375zm-1-1h-8v-1h8zm-5 14h-8v-1h8zm-12-3v1h-7c-.550781 0-1 .449219-1 1v1c0 .550781.449219 1 1 1h7v1h-9v-5zm-3-1h-4v-8h4zm3 4h-7v-1h7zm1-2.566406 2 1.332031v1.46875l-2 1.332031zm11.234375-18.433594 3.332031 5h-4.582031c.007813-.066406.015625-.136719.015625-.207031 0-.324219-.125-.625-.351562-.851563l-3.941407-3.941406zm-24.234375 4.792969c0-.054688.023438-.109375.058594-.144531l10.441406-10.441407c.132812-.132812.3125-.207031.5-.207031s.367188.074219.5.207031l10.441406 10.441407c.035156.035156.058594.089843.058594.144531 0 .113281-.09375.207031-.207031.207031h-.914063l-9.878906-9.878906-9.878906 9.878906h-.914063c-.113281 0-.207031-.09375-.207031-.207031zm19.464844.207031h-16.929688l8.464844-8.464844zm-17.464844 1h18v13h-4.347656l-3-2h-2.652344v-9h-6v9h-2zm-2 16.5v-4c0-.277344.222656-.5.5-.5h1.5v5h-1.5c-.277344 0-.5-.222656-.5-.5zm29-1c0 .277344-.222656.5-.5.5h-2.585938c-.132812 0-.257812-.050781-.355468-.148438l-.558594-.558593v-1.585938l.558594-.558593c.097656-.097657.222656-.148438.355468-.148438h2.585938c.277344 0 .5.222656.5.5zm-1-3.5h-2.085938c-.398437 0-.777343.15625-1.0625.441406l-.558593.558594h-3.292969v-11h7zm0 0"/><path d="m19.5 15.5h-7v7h7zm-1 3h-2v-2h2zm-3-2v2h-2v-2zm-2 3h2v2h-2zm3 2v-2h2v2zm0 0"/><path d="m28.5 23.5v-6h-5v6zm-4-5h3v4h-3zm0 0"/></g></svg>