<?xml version="1.0" encoding="UTF-8"?>
<svg xmlns="http://www.w3.org/2000/svg" xmlns:xlink="http://www.w3.org/1999/xlink" width="32pt" height="32pt" viewBox="0 0 32 32" version="1.1">
<g id="surface1">
<path style=" stroke:none;fill-rule:nonzero;fill:rgb(255,255,255);fill-opacity:1;" d="M 1.1875 12.902344 C 1.398438 13.152344 1.703125 13.308594 2.027344 13.328125 L 2.105469 13.328125 C 2.300781 13.328125 2.496094 13.277344 2.667969 13.183594 L 2.667969 21.585938 C 2.671875 22.625 3.511719 23.464844 4.550781 23.464844 L 15.449219 23.464844 L 12.34375 27.054688 C 11.265625 28.304688 11.398438 30.191406 12.648438 31.273438 C 13.898438 32.351562 15.785156 32.214844 16.863281 30.964844 L 23.261719 23.5625 C 25.617188 24.207031 28.136719 23.558594 29.890625 21.863281 C 31.644531 20.167969 32.375 17.671875 31.8125 15.296875 C 31.722656 14.917969 31.429688 14.621094 31.050781 14.527344 C 30.679688 14.433594 30.285156 14.5625 30.035156 14.851562 L 27.070312 18.28125 L 23.933594 18.222656 L 23.421875 15.125 L 26.386719 11.695312 C 26.640625 11.40625 26.707031 11 26.5625 10.644531 C 26.417969 10.285156 26.078125 10.039062 25.691406 10.007812 C 25.003906 9.949219 24.308594 9.996094 23.632812 10.148438 L 21.335938 8.058594 L 21.335938 3.339844 C 21.335938 2.671875 20.796875 2.132812 20.128906 2.132812 L 17.742188 2.132812 C 17.074219 2.132812 16.535156 2.671875 16.535156 3.339844 L 16.535156 3.699219 L 12.8125 0.316406 C 12.355469 -0.105469 11.652344 -0.105469 11.195312 0.316406 L 0.402344 10.117188 C -0.0898438 10.570312 -0.136719 11.332031 0.296875 11.84375 Z M 9.601562 22.398438 L 9.601562 16.535156 C 9.601562 16.238281 9.839844 16 10.136719 16 L 13.867188 16 C 14.164062 16 14.402344 16.238281 14.402344 16.535156 L 14.402344 22.398438 Z M 15.46875 22.398438 L 15.46875 16.535156 C 15.46875 15.648438 14.753906 14.933594 13.867188 14.933594 L 10.136719 14.933594 C 9.253906 14.933594 8.535156 15.648438 8.535156 16.535156 L 8.535156 22.398438 L 4.550781 22.398438 C 4.101562 22.398438 3.738281 22.035156 3.734375 21.585938 L 3.734375 12.269531 L 12.003906 4.761719 L 20.097656 12.117188 C 20.015625 12.203125 19.929688 12.277344 19.855469 12.367188 C 18.109375 14.378906 17.679688 17.214844 18.746094 19.65625 L 16.371094 22.398438 Z M 25.085938 11.042969 C 25.234375 11.042969 25.382812 11.046875 25.527344 11.058594 L 22.457031 14.613281 C 22.351562 14.734375 22.308594 14.894531 22.332031 15.050781 L 22.957031 18.832031 C 22.996094 19.085938 23.214844 19.273438 23.472656 19.28125 L 27.304688 19.351562 C 27.464844 19.351562 27.613281 19.285156 27.71875 19.164062 L 30.792969 15.609375 C 31.257812 17.664062 30.578125 19.808594 29.015625 21.226562 C 27.457031 22.640625 25.257812 23.105469 23.253906 22.445312 C 23.050781 22.378906 22.824219 22.441406 22.683594 22.605469 L 16.054688 30.269531 C 15.605469 30.789062 14.914062 31.027344 14.238281 30.898438 C 13.566406 30.769531 13.011719 30.289062 12.785156 29.640625 C 12.5625 28.992188 12.699219 28.273438 13.148438 27.753906 L 19.777344 20.089844 C 19.917969 19.929688 19.949219 19.695312 19.851562 19.503906 C 18.945312 17.691406 19.042969 15.539062 20.109375 13.816406 C 21.175781 12.089844 23.058594 11.042969 25.085938 11.042969 Z M 17.601562 3.339844 C 17.605469 3.261719 17.664062 3.203125 17.742188 3.199219 L 20.128906 3.199219 C 20.207031 3.203125 20.265625 3.261719 20.269531 3.339844 L 20.269531 7.089844 L 17.601562 4.667969 Z M 1.121094 10.902344 L 11.914062 1.101562 C 11.964844 1.054688 12.042969 1.054688 12.09375 1.101562 L 22.445312 10.507812 C 21.890625 10.738281 21.371094 11.039062 20.894531 11.40625 L 12.363281 3.652344 C 12.160156 3.464844 11.847656 3.464844 11.644531 3.652344 L 2.828125 11.652344 L 2.824219 11.652344 L 2.1875 12.230469 C 2.164062 12.253906 2.132812 12.265625 2.097656 12.265625 C 2.0625 12.265625 2.027344 12.246094 2.003906 12.214844 L 1.109375 11.15625 C 1.050781 11.082031 1.054688 10.972656 1.121094 10.902344 Z M 1.121094 10.902344 "/>
<path style=" stroke:none;fill-rule:evenodd;fill:rgb(255,255,255);fill-opacity:1;" d="M 15.386719 27.3125 L 14.410156 28.453125 C 14.226562 28.675781 14.257812 29.007812 14.476562 29.195312 C 14.695312 29.382812 15.027344 29.359375 15.21875 29.144531 L 16.199219 28.003906 C 16.382812 27.78125 16.351562 27.449219 16.132812 27.261719 C 15.910156 27.074219 15.582031 27.097656 15.386719 27.3125 Z M 15.386719 27.3125 "/>
</g>
</svg>
