<svg height="32pt" viewBox="0 0 32 32" width="32pt" xmlns="http://www.w3.org/2000/svg"><path d="m31 8.5c.277344 0 .5-.222656.5-.5s-.222656-.5-.5-.5h-.5v-1h.5c.277344 0 .5-.222656.5-.5s-.222656-.5-.5-.5h-30c-.277344 0-.5.222656-.5.5s.222656.5.5.5h.5v1h-.5c-.277344 0-.5.222656-.5.5s.222656.5.5.5h.5v1h-.5c-.277344 0-.5.222656-.5.5s.222656.5.5.5h.5v1h-.5c-.277344 0-.5.222656-.5.5s.222656.5.5.5h.5v1h-.5c-.277344 0-.5.222656-.5.5s.222656.5.5.5h.5v1h-.5c-.277344 0-.5.222656-.5.5s.222656.5.5.5h.5v1h-.5c-.277344 0-.5.222656-.5.5s.222656.5.5.5h.5v1h-.5c-.277344 0-.5.222656-.5.5s.222656.5.5.5h.5v1h-.5c-.277344 0-.5.222656-.5.5s.222656.5.5.5h.5v1h-.5c-.277344 0-.5.222656-.5.5s.222656.5.5.5h.5v1h-.5c-.277344 0-.5.222656-.5.5s.222656.5.5.5h30c.277344 0 .5-.222656.5-.5s-.222656-.5-.5-.5h-.5v-1h.5c.277344 0 .5-.222656.5-.5s-.222656-.5-.5-.5h-.5v-1h.5c.277344 0 .5-.222656.5-.5s-.222656-.5-.5-.5h-.5v-1h.5c.277344 0 .5-.222656.5-.5s-.222656-.5-.5-.5h-.5v-1h.5c.277344 0 .5-.222656.5-.5s-.222656-.5-.5-.5h-.5v-1h.5c.277344 0 .5-.222656.5-.5s-.222656-.5-.5-.5h-.5v-1h.5c.277344 0 .5-.222656.5-.5s-.222656-.5-.5-.5h-.5v-1h.5c.277344 0 .5-.222656.5-.5s-.222656-.5-.5-.5h-.5v-1h.5c.277344 0 .5-.222656.5-.5s-.222656-.5-.5-.5h-.5v-1zm-11.5-2h1v4.808594l-1-1zm-6 0h5v2.808594l-2.144531-2.148438c-.195313-.195312-.515625-.195312-.710938 0l-2.144531 2.148438zm-2 0h1v3.808594l-1 1zm-8.5 19h-.5v-19h.5zm7.5 0h-6.5v-19h6.5v5.808594l-3.339844 3.335937c-.09375.09375-.144531.222657-.144531.355469s.050781.261719.144531.355469l3.339844 3.335937zm2 0h-1v-4.808594l1 1zm6 0h-5v-2.808594l2.144531 2.148438c.195313.195312.515625.195312.710938 0l2.144531-2.148438zm2 0h-1v-3.808594l1-1zm-4.5-1.722656-7.777344-7.777344 7.777344-7.777344 7.777344 7.777344zm12 1.722656h-6.5v-5.808594l3.339844-3.335937c.09375-.09375.144531-.222657.144531-.355469s-.050781-.261719-.144531-.355469l-3.339844-3.335937v-5.808594h6.5zm1.5 0h-.5v-19h.5zm0 0" fill="#fff"/></svg>