<svg height="20pt" viewBox="0 0 20 20" width="20pt" xmlns="http://www.w3.org/2000/svg"><path d="m19.21875 8.113281-5.332031-5.332031c-1.039063-1.039062-2.734375-1.039062-3.773438 0-.503906.503906-.78125 1.171875-.78125 1.882812 0 .714844.277344 1.382813.78125 1.886719l3.449219 3.449219-3.449219 3.449219c-.503906.503906-.78125 1.171875-.78125 1.882812 0 .710938.277344 1.382813.78125 1.886719.503907.503906 1.175781.78125 1.886719.78125s1.382812-.277344 1.886719-.78125l5.332031-5.335938c.503906-.5.78125-1.171874.78125-1.882812s-.277344-1.382812-.78125-1.886719zm-.941406 2.828125-5.335938 5.332032c-.503906.507812-1.378906.507812-1.882812 0-.519532-.519532-.519532-1.363282 0-1.882813l4.390625-4.390625-4.390625-4.390625c-.253906-.253906-.390625-.585937-.390625-.945313 0-.355468.136719-.6875.390625-.941406.257812-.257812.601562-.390625.941406-.390625s.683594.132813.941406.390625l5.335938 5.332032c.25.253906.390625.589843.390625.945312s-.140625.691406-.390625.941406zm0 0" fill="#d6d6d6"/><path d="m9.886719 8.113281-5.335938-5.332031c-1.039062-1.039062-2.730469-1.039062-3.769531 0-.503906.503906-.78125 1.171875-.78125 1.882812 0 .714844.277344 1.382813.78125 1.886719l3.449219 3.449219-3.449219 3.449219c-.503906.503906-.78125 1.171875-.78125 1.882812 0 .710938.277344 1.382813.78125 1.886719s1.171875.78125 1.886719.78125c.710937 0 1.378906-.277344 1.882812-.78125l5.335938-5.335938c.503906-.5.78125-1.171874.78125-1.882812s-.277344-1.382812-.78125-1.886719zm-.945313 2.828125-5.332031 5.332032c-.503906.507812-1.378906.507812-1.886719 0-.519531-.519532-.519531-1.363282 0-1.882813l4.390625-4.390625-4.390625-4.390625c-.25-.253906-.390625-.585937-.390625-.945313 0-.355468.140625-.6875.390625-.941406.261719-.257812.601563-.390625.945313-.390625.339843 0 .679687.132813.941406.390625l5.332031 5.332032c.253906.253906.390625.589843.390625.945312s-.136719.691406-.390625.941406zm0 0" fill="#fff"/></svg>