<svg height="32pt" viewBox="0 0 32 32" width="32pt" xmlns="http://www.w3.org/2000/svg"><g fill="#fff"><path d="m29.382812 23.265625-2.089843-2.089844 2.089843-2.09375c.25-.246093.25-.652343 0-.898437l-2.136718-2.136719 2.085937-2.085937c.25-.25.25-.65625 0-.902344l-12.871093-12.871094c-.25-.25-.652344-.25-.902344 0l-12.902344 12.902344c-.121094.121094-.1875.28125-.1875.453125 0 .167969.066406.328125.1875.449219l2.082031 2.082031-2.089843 2.089843c-.25.25-.25.652344 0 .902344l2.082031 2.082032-2.113281 2.113281c-.25.25-.25.652343 0 .902343l2.121093 2.121094-2.089843 2.089844c-.25.25-.25.652344 0 .902344l2.539062 2.535156c.121094.125.285156.1875.449219.1875.164062 0 .324219-.0625.449219-.1875l9.925781-9.921875 9.867187 9.863281c.117188.121094.28125.1875.449219.1875s.332031-.066406.449219-.1875l2.535156-2.53125c.246094-.25.246094-.652344 0-.902344l-2.042969-2.042968 2.113281-2.113282c.25-.246093.25-.652343 0-.898437zm-1.351562-4.632813-1.640625 1.640626-9.488281-9.492188 1.636718-1.636719zm-.050781-5.125-1.636719 1.636719-9.433594-9.4375 1.632813-1.632812zm-23.972657.035157 12-12.003907 1.632813 1.632813-12 12.003906zm-.007812 5.074219 12.007812-12.007813 1.632813 1.632813-12.007813 12.003906zm-.03125 5.097656 12.03125-12.03125 1.667969 1.671875-12.027344 12.027343zm1.667969 6.746094-1.636719-1.636719 12.007812-12.003907 1.636719 1.632813zm22.324219-1.691407-1.632813 1.632813-9.414063-9.414063 1.628907-1.632812zm-1.59375-3.394531-9.457032-9.457031 1.660156-1.664063 9.460938 9.460938zm0 0"/><path d="m26.839844 13.0625-3.027344-3.027344c-.25-.25-.652344-.25-.902344 0-.246094.25-.246094.652344 0 .902344l3.03125 3.027344c.121094.125.285156.1875.449219.1875s.324219-.0625.449219-.1875c.25-.25.25-.652344 0-.902344zm0 0"/><path d="m22.441406 8.664062-.296875-.296874c-.25-.25-.652343-.25-.902343 0-.25.246093-.25.652343 0 .898437l.300781.300781c.121093.125.285156.1875.449219.1875.164062 0 .324218-.0625.449218-.1875.25-.25.25-.652344 0-.902344zm0 0"/></g></svg>