<?xml version="1.0" encoding="UTF-8"?>
<svg xmlns="http://www.w3.org/2000/svg" xmlns:xlink="http://www.w3.org/1999/xlink" width="32pt" height="32pt" viewBox="0 0 32 32" version="1.1">
<g id="surface1">
<path style=" stroke:none;fill-rule:nonzero;fill:rgb(255%,255%,255%);fill-opacity:1;" d="M 31.304688 0 L 0.695312 0 C 0.3125 0 0 0.3125 0 0.695312 L 0 31.304688 C 0 31.6875 0.3125 32 0.695312 32 L 31.304688 32 C 31.6875 32 32 31.6875 32 31.304688 L 32 0.695312 C 32 0.3125 31.6875 0 31.304688 0 Z M 24.230469 1.390625 L 30.132812 1.390625 L 27.542969 3.984375 L 24.097656 7.425781 L 21.148438 4.476562 Z M 12.292969 13.328125 L 9.339844 16.28125 L 5.898438 12.839844 C 5.898438 12.835938 5.894531 12.835938 5.894531 12.835938 L 1.472656 8.410156 L 4.421875 5.460938 L 7.863281 8.902344 C 7.863281 8.902344 7.867188 8.902344 7.867188 8.902344 Z M 9.339844 8.410156 L 12.292969 5.460938 L 15.734375 8.902344 C 15.734375 8.902344 15.738281 8.902344 15.738281 8.90625 L 20.164062 13.328125 L 17.210938 16.28125 Z M 9.832031 17.757812 L 13.277344 14.3125 L 16.226562 17.265625 L 8.355469 25.136719 L 5.40625 22.183594 Z M 17.703125 17.757812 L 21.148438 14.3125 L 24.097656 17.265625 L 16.226562 25.136719 L 13.277344 22.183594 Z M 21.640625 12.839844 C 21.636719 12.839844 21.636719 12.839844 21.636719 12.839844 L 17.210938 8.410156 L 20.164062 5.460938 L 28.03125 13.328125 L 25.082031 16.28125 Z M 16.359375 1.390625 L 22.261719 1.390625 L 19.671875 3.984375 L 16.226562 7.425781 L 13.277344 4.476562 Z M 8.488281 1.390625 L 14.394531 1.390625 L 11.800781 3.984375 L 8.355469 7.425781 L 5.40625 4.476562 Z M 1.390625 1.390625 L 6.523438 1.390625 L 1.390625 6.523438 Z M 1.390625 10.300781 L 4.421875 13.332031 L 1.390625 16.359375 Z M 1.390625 18.328125 L 5.40625 14.3125 L 8.355469 17.265625 L 3.929688 21.691406 L 1.476562 24.148438 L 1.390625 24.230469 Z M 1.390625 30.609375 L 1.390625 28.007812 L 3.992188 30.609375 Z M 5.960938 30.609375 L 1.472656 26.121094 L 4.421875 23.167969 L 5.589844 24.335938 L 7.863281 26.613281 C 7.863281 26.613281 7.863281 26.613281 7.867188 26.613281 L 11.863281 30.609375 Z M 13.828125 30.609375 L 9.339844 26.121094 L 12.292969 23.167969 L 15.734375 26.613281 L 19.734375 30.609375 Z M 21.699219 30.609375 L 17.210938 26.121094 L 20.164062 23.167969 L 23.605469 26.613281 L 27.601562 30.609375 Z M 30.609375 30.609375 L 29.570312 30.609375 L 25.082031 26.121094 L 28.035156 23.167969 L 30.609375 25.742188 Z M 30.609375 23.777344 L 29.015625 22.183594 L 30.609375 20.59375 Z M 30.609375 18.625 L 24.097656 25.136719 L 21.148438 22.183594 L 25.574219 17.757812 L 29.015625 14.3125 L 30.609375 15.90625 Z M 30.609375 13.9375 L 29.507812 12.839844 C 29.507812 12.839844 29.507812 12.839844 29.507812 12.835938 L 25.082031 8.410156 L 28.035156 5.460938 L 30.609375 8.035156 Z M 30.609375 6.066406 L 29.015625 4.476562 L 30.609375 2.882812 Z M 30.609375 6.066406 "/>
</g>
</svg>
