<svg height="32pt" viewBox="0 0 32 32" width="32pt" xmlns="http://www.w3.org/2000/svg"><path d="m31.304688 0h-30.609376c-.382812 0-.695312.3125-.695312.695312v30.609376c0 .382812.3125.695312.695312.695312h30.609376c.382812 0 .695312-.3125.695312-.695312v-30.609376c0-.382812-.3125-.695312-.695312-.695312zm-7.074219 1.390625h5.902343l-2.589843 2.59375-3.445313 3.441406-2.949218-2.949219zm-11.9375 11.9375-2.953125 2.953125-3.441406-3.441406c0-.003906-.003907-.003906-.003907-.003906l-4.421875-4.425782 2.949219-2.949218 3.441406 3.441406h.003907zm-2.953125-4.917969 2.953125-2.949218 3.441406 3.441406s.003906 0 .003906.003906l4.425781 4.421875-2.953124 2.953125zm.492187 9.347656 3.445313-3.445312 2.949218 2.953125-7.871093 7.871094-2.949219-2.953125zm7.871094 0 3.445313-3.445312 2.949218 2.953125-7.871094 7.871094-2.949218-2.953125zm3.9375-4.917968c-.003906 0-.003906 0-.003906 0l-4.425781-4.429688 2.953124-2.949218 7.867188 7.867187-2.949219 2.953125zm-5.28125-11.449219h5.902344l-2.589844 2.59375-3.445313 3.441406-2.949218-2.949219zm-7.871094 0h5.90625l-2.59375 2.59375-3.445312 3.441406-2.949219-2.949219zm-7.097656 0h5.132813l-5.132813 5.132813zm0 8.910156 3.03125 3.03125-3.03125 3.027344zm0 8.027344 4.015625-4.015625 2.949219 2.953125-4.425781 4.425781-2.453126 2.457032-.085937.082031zm0 12.28125v-2.601563l2.601563 2.601563zm4.570313 0-4.488282-4.488281 2.949219-2.953125 1.167969 1.167969 2.273437 2.277343h.003907l3.996093 3.996094zm7.867187 0-4.488281-4.488281 2.953125-2.953125 3.441406 3.445312 4 3.996094zm7.871094 0-4.488281-4.488281 2.953124-2.953125 3.441407 3.445312 3.996093 3.996094zm8.910156 0h-1.039063l-4.488281-4.488281 2.953125-2.953125 2.574219 2.574219zm0-6.832031-1.59375-1.59375 1.59375-1.589844zm0-5.152344-6.511719 6.511719-2.949218-2.953125 4.425781-4.425782 3.441406-3.445312 1.59375 1.59375zm0-4.6875-1.101563-1.097656s0 0 0-.003906l-4.425781-4.425782 2.953125-2.949218 2.574219 2.574218zm0-7.871094-1.59375-1.589844 1.59375-1.59375zm0 0" fill="#fff"/></svg>