<?xml version="1.0" encoding="UTF-8"?>
<svg xmlns="http://www.w3.org/2000/svg" xmlns:xlink="http://www.w3.org/1999/xlink" width="32pt" height="32pt" viewBox="0 0 32 32" version="1.1">
<g id="surface1">
<path style=" stroke:none;fill-rule:nonzero;fill:rgb(255%,255%,255%);fill-opacity:1;" d="M 29.382812 23.265625 L 27.292969 21.175781 L 29.382812 19.082031 C 29.632812 18.835938 29.632812 18.429688 29.382812 18.183594 L 27.246094 16.046875 L 29.332031 13.960938 C 29.582031 13.710938 29.582031 13.304688 29.332031 13.058594 L 16.460938 0.1875 C 16.210938 -0.0625 15.808594 -0.0625 15.558594 0.1875 L 2.65625 13.089844 C 2.535156 13.210938 2.46875 13.371094 2.46875 13.542969 C 2.46875 13.710938 2.535156 13.871094 2.65625 13.992188 L 4.738281 16.074219 L 2.648438 18.164062 C 2.398438 18.414062 2.398438 18.816406 2.648438 19.066406 L 4.730469 21.148438 L 2.617188 23.261719 C 2.367188 23.511719 2.367188 23.914062 2.617188 24.164062 L 4.738281 26.285156 L 2.648438 28.375 C 2.398438 28.625 2.398438 29.027344 2.648438 29.277344 L 5.1875 31.8125 C 5.308594 31.9375 5.472656 32 5.636719 32 C 5.800781 32 5.960938 31.9375 6.085938 31.8125 L 16.011719 21.890625 L 25.878906 31.753906 C 25.996094 31.875 26.160156 31.941406 26.328125 31.941406 C 26.496094 31.941406 26.660156 31.875 26.777344 31.753906 L 29.3125 29.222656 C 29.558594 28.972656 29.558594 28.570312 29.3125 28.320312 L 27.269531 26.277344 L 29.382812 24.164062 C 29.632812 23.917969 29.632812 23.511719 29.382812 23.265625 Z M 28.03125 18.632812 L 26.390625 20.273438 L 16.902344 10.78125 L 18.539062 9.144531 Z M 27.980469 13.507812 L 26.34375 15.144531 L 16.910156 5.707031 L 18.542969 4.074219 Z M 4.007812 13.542969 L 16.007812 1.539062 L 17.640625 3.171875 L 5.640625 15.175781 Z M 4 18.617188 L 16.007812 6.609375 L 17.640625 8.242188 L 5.632812 20.246094 Z M 3.96875 23.714844 L 16 11.683594 L 17.667969 13.355469 L 5.640625 25.382812 Z M 5.636719 30.460938 L 4 28.824219 L 16.007812 16.820312 L 17.644531 18.453125 Z M 27.960938 28.769531 L 26.328125 30.402344 L 16.914062 20.988281 L 18.542969 19.355469 Z M 26.367188 25.375 L 16.910156 15.917969 L 18.570312 14.253906 L 28.03125 23.714844 Z M 26.367188 25.375 "/>
<path style=" stroke:none;fill-rule:nonzero;fill:rgb(255%,255%,255%);fill-opacity:1;" d="M 26.839844 13.0625 L 23.8125 10.035156 C 23.5625 9.785156 23.160156 9.785156 22.910156 10.035156 C 22.664062 10.285156 22.664062 10.6875 22.910156 10.9375 L 25.941406 13.964844 C 26.0625 14.089844 26.226562 14.152344 26.390625 14.152344 C 26.554688 14.152344 26.714844 14.089844 26.839844 13.964844 C 27.089844 13.714844 27.089844 13.3125 26.839844 13.0625 Z M 26.839844 13.0625 "/>
<path style=" stroke:none;fill-rule:nonzero;fill:rgb(255%,255%,255%);fill-opacity:1;" d="M 22.441406 8.664062 L 22.144531 8.367188 C 21.894531 8.117188 21.492188 8.117188 21.242188 8.367188 C 20.992188 8.613281 20.992188 9.019531 21.242188 9.265625 L 21.542969 9.566406 C 21.664062 9.691406 21.828125 9.753906 21.992188 9.753906 C 22.15625 9.753906 22.316406 9.691406 22.441406 9.566406 C 22.691406 9.316406 22.691406 8.914062 22.441406 8.664062 Z M 22.441406 8.664062 "/>
</g>
</svg>
