<svg height="24pt" viewBox="0 0 24 24" width="24pt" xmlns="http://www.w3.org/2000/svg"><path d="m23.347656 17.613281-3.351562-3.347656c-1.195313-1.199219-3.226563-.71875-3.707032.835937-.359374 1.078126-1.554687 1.675782-2.632812 1.433594-2.390625-.597656-5.621094-3.707031-6.21875-6.21875-.359375-1.074218.359375-2.273437 1.4375-2.632812 1.554688-.476563 2.03125-2.511719.835938-3.707032l-3.351563-3.347656c-.957031-.839844-2.390625-.839844-3.226563 0l-2.273437 2.273438c-2.273437 2.390625.238281 8.730468 5.859375 14.351562 5.625 5.621094 11.964844 8.253906 14.355469 5.863282l2.273437-2.273438c.835938-.957031.835938-2.394531 0-3.230469zm0 0" fill="#fff"/></svg>