<svg height="32pt" viewBox="0 0 32 32" width="32pt" xmlns="http://www.w3.org/2000/svg"><g fill="#fff"><path d="m21.257812 9.15625c-.539062-.699219-1.542968-.828125-2.242187-.289062l-5.65625 4.351562c-.960937-1.601562-1.519531-3.410156-1.628906-5.273438-.507813-5.074218-.980469-7.945312-4.796875-7.945312h-6.398438c-.296875 0-.535156.238281-.535156.535156v30.929688c0 .296875.238281.535156.535156.535156h21.332032c.261718 0 .480468-.1875.523437-.445312.15625-1.027344.242187-2.0625.257813-3.101563l.566406.734375c.257812.335938.640625.558594 1.0625.609375.070312.011719.136718.015625.207031.015625.355469 0 .695313-.117188.976563-.332031l5.914062-4.554688c.699219-.539062.832031-1.542969.292969-2.246093zm.144532 21.777344h-1.535156c.234374-1.050782.367187-2.125.398437-3.199219 0-.296875-.238281-.535156-.53125-.535156-.296875 0-.535156.238281-.535156.535156-.039063 1.078125-.179688 2.148437-.425781 3.199219h-17.707032v-29.867188h5.867188c2.660156 0 3.1875 1.488282 3.734375 6.988282.253906 2.515624.863281 4.375 1.953125 5.980468-.242188.535156-.171875 1.160156.183594 1.628906l8.769531 11.390626c.042969 1.296874-.015625 2.59375-.171875 3.878906zm9.324218-6.851563-5.917968 4.550781c-.234375.179688-.566406.136719-.746094-.09375l-10.410156-13.527343c-.179688-.234375-.136719-.566407.09375-.746094l5.917968-4.554687c.234376-.179688.570313-.136719.75.097656l10.410157 13.523437c.175781.234375.132812.570313-.097657.75zm0 0"/><path d="m23.046875 15.855469c-.359375-.46875-1.027344-.554688-1.492187-.195313l-.652344-.84375c-.34375-.449218-.855469-.742187-1.414063-.816406-.5625-.070312-1.128906.082031-1.578125.425781l-.421875.328125c-.15625.113282-.234375.300782-.210937.492188.023437.191406.148437.355468.328125.429687.179687.070313.382812.042969.53125-.078125l.425781-.328125c.222656-.171875.507812-.246093.785156-.210937.28125.035156.535156.183594.707032.40625l.652343.847656c-.222656.171875-.371093.425781-.40625.707031-.035156.28125.039063.5625.210938.789063l4.230469 5.492187c.539062.699219 1.542968.832031 2.242187.292969s.832031-1.542969.292969-2.246094zm3.289063 6.894531c-.234376.179688-.570313.132812-.75-.097656l-4.226563-5.496094.84375-.648438 4.230469 5.492188c.179687.234375.136718.570312-.097656.75zm0 0"/><path d="m9.363281 7.714844c-.023437-1.011719-.125-2.023438-.308593-3.019532-.621094-3.117187-5.195313-2.582031-5.386719-2.558593-.191407.023437-.355469.144531-.433594.320312-.074219.179688-.046875.382813.070313.535157.113281.152343.304687.230468.496093.203124.039063-.003906 3.777344-.445312 4.210938 1.710938.167969.941406.265625 1.898438.285156 2.855469.066406 1.449219.128906 2.816406.824219 4.210937.085937.167969.257812.28125.445312.292969.191406.011719.375-.078125.480469-.238281.101563-.160156.117187-.363282.03125-.53125-.597656-1.191406-.652344-2.390625-.714844-3.78125zm0 0"/></g></svg>