<?xml version="1.0" encoding="UTF-8"?>
<svg xmlns="http://www.w3.org/2000/svg" xmlns:xlink="http://www.w3.org/1999/xlink" width="32pt" height="32pt" viewBox="0 0 32 32" version="1.1">
<g id="surface1">
<path style=" stroke:none;fill-rule:nonzero;fill:rgb(255,255,255);fill-opacity:1;" d="M 29.847656 17.238281 L 29.847656 15.507812 C 29.847656 14.230469 28.808594 13.1875 27.527344 13.1875 L 22.363281 13.1875 L 22.363281 9.636719 L 22.554688 9.746094 C 22.792969 9.886719 23.054688 9.957031 23.320312 9.957031 C 23.453125 9.957031 23.585938 9.9375 23.71875 9.902344 C 24.113281 9.796875 24.445312 9.542969 24.652344 9.191406 L 25.058594 8.488281 C 25.480469 7.757812 25.230469 6.816406 24.496094 6.390625 L 13.90625 0.261719 C 13.308594 -0.0859375 12.5625 -0.0859375 11.964844 0.261719 L 1.371094 6.390625 C 0.640625 6.816406 0.390625 7.757812 0.8125 8.488281 L 1.21875 9.1875 C 1.425781 9.542969 1.753906 9.796875 2.152344 9.902344 C 2.546875 10.007812 2.960938 9.953125 3.3125 9.746094 L 3.507812 9.636719 L 3.507812 20.726562 C 3.507812 20.984375 3.714844 21.195312 3.976562 21.195312 L 15.53125 21.195312 C 15.957031 21.753906 16.625 22.113281 17.378906 22.113281 L 24.773438 22.113281 C 25.03125 22.113281 25.242188 21.90625 25.242188 21.644531 C 25.242188 21.386719 25.03125 21.175781 24.773438 21.175781 L 17.378906 21.175781 C 16.617188 21.175781 16 20.558594 16 19.796875 L 16 15.507812 C 16 14.746094 16.617188 14.125 17.378906 14.125 L 27.527344 14.125 C 28.289062 14.125 28.910156 14.746094 28.910156 15.507812 L 28.910156 19.796875 C 28.910156 20.558594 28.289062 21.175781 27.527344 21.175781 L 26.648438 21.175781 C 26.390625 21.175781 26.179688 21.386719 26.179688 21.644531 C 26.179688 21.90625 26.390625 22.113281 26.648438 22.113281 L 27.527344 22.113281 C 28.808594 22.113281 29.847656 21.074219 29.847656 19.796875 L 29.847656 18.230469 C 30.207031 18.402344 30.457031 18.773438 30.457031 19.199219 L 30.457031 21.609375 C 30.457031 22.203125 29.972656 22.6875 29.378906 22.6875 L 23.898438 22.6875 C 22.84375 22.6875 21.984375 23.546875 21.984375 24.601562 L 21.984375 25.378906 L 21.703125 25.378906 C 20.835938 25.378906 20.128906 26.085938 20.128906 26.953125 L 20.128906 30.425781 C 20.128906 31.292969 20.835938 32 21.703125 32 L 23.207031 32 C 24.074219 32 24.78125 31.292969 24.78125 30.425781 L 24.78125 26.953125 C 24.78125 26.085938 24.074219 25.378906 23.207031 25.378906 L 22.921875 25.378906 L 22.921875 24.601562 C 22.921875 24.0625 23.359375 23.625 23.898438 23.625 L 29.378906 23.625 C 30.488281 23.625 31.394531 22.722656 31.394531 21.609375 L 31.394531 19.199219 C 31.394531 18.25 30.734375 17.449219 29.847656 17.238281 Z M 4.445312 20.257812 L 4.445312 9.09375 L 7.96875 7.054688 C 8.195312 6.921875 8.269531 6.636719 8.140625 6.414062 C 8.011719 6.1875 7.722656 6.113281 7.5 6.242188 L 2.84375 8.9375 C 2.707031 9.015625 2.546875 9.039062 2.394531 8.996094 C 2.238281 8.957031 2.109375 8.859375 2.03125 8.71875 L 1.625 8.019531 C 1.460938 7.734375 1.558594 7.367188 1.839844 7.203125 L 12.433594 1.070312 C 12.742188 0.890625 13.128906 0.890625 13.4375 1.070312 L 24.027344 7.203125 C 24.3125 7.367188 24.410156 7.734375 24.246094 8.019531 L 23.839844 8.71875 C 23.757812 8.859375 23.632812 8.957031 23.476562 8.996094 C 23.324219 9.039062 23.164062 9.015625 23.023438 8.9375 L 13.167969 3.230469 C 13.023438 3.148438 12.84375 3.148438 12.699219 3.230469 L 9.121094 5.304688 C 8.894531 5.433594 8.820312 5.71875 8.949219 5.945312 C 9.078125 6.167969 9.367188 6.246094 9.589844 6.117188 L 12.933594 4.179688 L 21.425781 9.09375 L 21.425781 13.1875 L 17.628906 13.1875 L 17.628906 10.097656 C 17.628906 9.109375 16.824219 8.304688 15.835938 8.304688 L 10.035156 8.304688 C 9.046875 8.304688 8.242188 9.109375 8.242188 10.097656 L 8.242188 15.660156 C 8.242188 16.648438 9.046875 17.453125 10.035156 17.453125 L 15.0625 17.453125 L 15.0625 19.796875 C 15.0625 19.953125 15.078125 20.109375 15.109375 20.257812 Z M 10.882812 14.808594 L 10.882812 13.347656 L 12.464844 13.347656 L 12.464844 14.808594 Z M 14.984375 10.945312 L 14.984375 12.410156 L 13.402344 12.410156 L 13.402344 10.945312 Z M 12.464844 12.410156 L 10.882812 12.410156 L 10.882812 10.945312 L 12.464844 10.945312 Z M 13.402344 13.347656 L 14.984375 13.347656 L 14.984375 14.808594 L 13.402344 14.808594 Z M 15.921875 13.707031 L 15.921875 10.476562 C 15.921875 10.21875 15.714844 10.007812 15.453125 10.007812 L 10.414062 10.007812 C 10.15625 10.007812 9.945312 10.21875 9.945312 10.476562 L 9.945312 15.277344 C 9.945312 15.535156 10.15625 15.746094 10.414062 15.746094 L 15.0625 15.746094 L 15.0625 16.515625 L 10.035156 16.515625 C 9.5625 16.515625 9.179688 16.128906 9.179688 15.660156 L 9.179688 10.097656 C 9.179688 9.625 9.5625 9.242188 10.035156 9.242188 L 15.835938 9.242188 C 16.304688 9.242188 16.691406 9.625 16.691406 10.097656 L 16.691406 13.292969 C 16.40625 13.382812 16.148438 13.523438 15.921875 13.707031 Z M 23.84375 26.953125 L 23.84375 30.425781 C 23.84375 30.777344 23.558594 31.0625 23.207031 31.0625 L 21.703125 31.0625 C 21.351562 31.0625 21.066406 30.777344 21.066406 30.425781 L 21.066406 26.953125 C 21.066406 26.601562 21.351562 26.316406 21.703125 26.316406 L 23.207031 26.316406 C 23.558594 26.316406 23.84375 26.601562 23.84375 26.953125 Z M 23.84375 26.953125 "/>
</g>
</svg>
