<svg height="32pt" viewBox="0 0 32 32" width="32pt" xmlns="http://www.w3.org/2000/svg"><path d="m29.847656 17.238281v-1.730469c0-1.277343-1.039062-2.320312-2.320312-2.320312h-5.164063v-3.550781l.191407.109375c.238281.140625.5.210937.765624.210937.132813 0 .265626-.019531.398438-.054687.394531-.105469.726562-.359375.933594-.710938l.40625-.703125c.421875-.730469.171875-1.671875-.5625-2.097656l-10.589844-6.128906c-.597656-.3476565-1.34375-.3476565-1.941406 0l-10.59375 6.128906c-.730469.425781-.980469 1.367187-.558594 2.097656l.40625.699219c.207031.355469.535156.609375.933594.714844.394531.105468.808594.050781 1.160156-.15625l.195312-.109375v11.089843c0 .257813.207032.46875.46875.46875h11.554688c.425781.558594 1.09375.917969 1.847656.917969h7.394532c.257812 0 .46875-.207031.46875-.46875 0-.257812-.210938-.46875-.46875-.46875h-7.394532c-.761718 0-1.378906-.617187-1.378906-1.378906v-4.289063c0-.761718.617188-1.382812 1.378906-1.382812h10.148438c.761718 0 1.382812.621094 1.382812 1.382812v4.289063c0 .761719-.621094 1.378906-1.382812 1.378906h-.878906c-.257813 0-.46875.210938-.46875.46875 0 .261719.210937.46875.46875.46875h.878906c1.28125 0 2.320312-1.039062 2.320312-2.316406v-1.566406c.359375.171875.609375.542969.609375.96875v2.410156c0 .59375-.484375 1.078125-1.078125 1.078125h-5.480468c-1.054688 0-1.914063.859375-1.914063 1.914062v.777344h-.28125c-.867187 0-1.574219.707032-1.574219 1.574219v3.472656c0 .867188.707032 1.574219 1.574219 1.574219h1.503906c.867188 0 1.574219-.707031 1.574219-1.574219v-3.472656c0-.867187-.707031-1.574219-1.574219-1.574219h-.285156v-.777344c0-.539062.4375-.976562.976563-.976562h5.480468c1.109375 0 2.015625-.902344 2.015625-2.015625v-2.410156c0-.949219-.660156-1.75-1.546875-1.960938zm-25.402344 3.019531v-11.164062l3.523438-2.039062c.226562-.132813.300781-.417969.171875-.640626-.128906-.226562-.417969-.300781-.640625-.171874l-4.65625 2.695312c-.136719.078125-.296875.101562-.449219.058594-.15625-.039063-.285156-.136719-.363281-.277344l-.40625-.699219c-.164062-.285156-.066406-.652343.214844-.816406l10.59375-6.132813c.308594-.179687.695312-.179687 1.003906 0l10.589844 6.132813c.285156.164063.382812.53125.21875.816406l-.40625.699219c-.082032.140625-.207032.238281-.363282.277344-.152343.042968-.3125.019531-.453124-.058594l-9.855469-5.707031c-.144531-.082031-.324219-.082031-.46875 0l-3.578125 2.074219c-.226563.128906-.300782.414062-.171875.640624.128906.222657.417969.300782.640625.171876l3.34375-1.9375 8.492187 4.914062v4.09375h-3.796875v-3.089844c0-.988281-.804687-1.792968-1.792968-1.792968h-5.800782c-.988281 0-1.792968.804687-1.792968 1.792968v5.5625c0 .988282.804687 1.792969 1.792968 1.792969h5.027344v2.34375c0 .15625.015625.3125.046875.460937zm6.4375-5.449218v-1.460938h1.582032v1.460938zm4.101563-3.863282v1.464844h-1.582031v-1.464844zm-2.519531 1.464844h-1.582032v-1.464844h1.582032zm.9375.9375h1.582031v1.460938h-1.582031zm2.519531.359375v-3.230469c0-.257812-.207031-.46875-.46875-.46875h-5.039063c-.257812 0-.46875.210938-.46875.46875v4.800782c0 .257812.210938.46875.46875.46875h4.648438v.769531h-5.027344c-.472656 0-.855468-.386719-.855468-.855469v-5.5625c0-.472656.382812-.855468.855468-.855468h5.800782c.46875 0 .855468.382812.855468.855468v3.195313c-.285156.089843-.542968.230469-.769531.414062zm7.921875 13.246094v3.472656c0 .351563-.285156.636719-.636719.636719h-1.503906c-.351563 0-.636719-.285156-.636719-.636719v-3.472656c0-.351563.285156-.636719.636719-.636719h1.503906c.351563 0 .636719.285156.636719.636719zm0 0" fill="#fff"/></svg>