<svg height="32pt" viewBox="0 0 32 32" width="32pt" xmlns="http://www.w3.org/2000/svg"><path d="m32 24.300781c0-.011719 0-.019531-.003906-.027343 0-.003907 0-.011719 0-.015626-.003906-.011718-.003906-.019531-.003906-.03125 0-.003906 0-.007812-.003907-.011718 0-.015625-.003906-.03125-.007812-.042969l-4.667969-18.667969c-.074219-.296875-.339844-.503906-.648438-.503906h-21.332031c-.304687 0-.570312.207031-.644531.503906l-4.6679688 18.667969c-.0039062.011719-.0039062.027344-.0078124.042969-.0039063.003906-.0039063.007812-.0039063.015625 0 .007812 0 .015625-.00390625.027343v.015626c0 .007812-.00390625.015624-.00390625.027343v.015625.015625 2c0 .214844.105469.417969.28125.542969s.402344.160156.605469.085938l3.597656-1.253907 3.628906 1.253907c.140625.050781.296875.050781.4375 0l3.613281-1.253907 3.617188 1.253907c.140625.050781.296875.050781.4375 0l3.613281-1.253907 3.613281 1.253907c.144532.050781.296876.050781.4375 0l3.617188-1.253907 3.613281 1.253907c.070313.027343.144531.039062.21875.039062.136719 0 .273438-.042969.386719-.125.175781-.125.28125-.328125.28125-.542969v-2c0-.003906 0-.007812 0-.015625 0-.003906 0-.011718 0-.015625zm-1.613281-1.003906-2.667969-.925781c-.140625-.050782-.296875-.050782-.4375 0l-3.054688 1.0625-.664062-5.3125 2.722656-.941406 2.820313.996093zm-2.78125-11.117187 1.113281 4.445312-2.207031-.78125c-.144531-.050781-.300781-.050781-.441407 0l-2.679687.925781-.578125-4.652343 2.285156-.800782zm-1.460938-5.847657 1.078125 4.304688-1.910156-.65625c-.144531-.046875-.296875-.046875-.4375.003906l-2.234375.78125-.554687-4.433594zm-9.476562 0h4.078125l.542968 4.355469-2.039062-.707031c-.140625-.046875-.296875-.046875-.4375.003906l-2.144531.746094zm-.003907 5.808594 2.367188-.824219 2.441406.84375.566406 4.519532-2.390624-.835938c-.140626-.050781-.296876-.050781-.4375 0l-2.546876.886719zm0 6 2.765626-.960937 2.792968.976562.648438 5.195312-2.816406-.980468c-.144532-.050782-.296876-.050782-.441407 0l-2.949219 1.023437zm-5.410156-11.808594h4.078125v4.398438l-2.144531-.746094c-.140625-.050781-.296875-.050781-.4375-.003906l-2.039062.707031zm4.078125 11.808594v5.253906l-2.945312-1.023437c-.140625-.050782-.296875-.050782-.4375 0l-2.820313.980468.648438-5.191406 2.792968-.980468zm-4.804687-5.980469 2.441406-.84375 2.363281.824219v4.589844l-2.542969-.886719c-.144531-.050781-.296874-.050781-.441406 0l-2.386718.835938zm-4.671875-5.828125h4.054687l-.550781 4.433594-2.230469-.78125c-.144531-.050781-.296875-.050781-.4375-.003906l-1.914062.65625zm-1.460938 5.847657 2.511719-.863282 2.28125.800782-.578125 4.652343-2.679687-.925781c-.144532-.050781-.296876-.050781-.441407 0l-2.207031.78125zm-1.5 5.996093 2.820313-.996093 2.722656.941406-.664062 5.3125-3.070313-1.0625c-.070313-.027344-.144531-.039063-.21875-.039063s-.148437.011719-.21875.039063l-2.652344.925781zm27.769531 7.21875-2.945312-1.023437c-.140625-.050782-.296875-.050782-.4375 0l-3.617188 1.253906-3.609374-1.253906c-.144532-.050782-.296876-.050782-.441407 0l-3.613281 1.253906-3.613281-1.253906c-.140625-.050782-.296875-.050782-.4375 0l-3.617188 1.257812-3.628906-1.257812c-.070313-.027344-.144531-.039063-.21875-.039063s-.148437.011719-.21875.039063l-2.933594 1.023437v-.589843l3.152344-1.097657 3.632813 1.253907v.003906c.007812 0 .011718.003906.019531.003906.011719.003906.027343.007812.039062.011719.007813 0 .015625.003906.023438.003906.011719.003906.027343.007813.039062.007813.003907 0 .007813 0 .011719.003906h.019531.015625c.015625.003906.03125.003906.050782.003906.007812 0 .019531 0 .03125-.003906h.023437c.011719 0 .023437-.003906.035156-.003906.007813 0 .015625 0 .023438-.003907.011719 0 .023437-.003906.035156-.007812.007813 0 .011719 0 .019531-.003907.011719-.003906.023438-.007812.035156-.007812.003907-.003906.007813-.003906.015626-.007812l3.609374-1.253907 3.617188 1.253907c0 .003906.003906.003906.007812.003906.011719.003906.019532.007812.027344.007812.011719.003906.023438.007813.03125.007813.011719.003906.019532.003906.03125.007812.011719 0 .023438.003907.035156.007813h.023438c.023438.003906.042969.003906.0625.003906s.042969 0 .0625-.003906h.023438c.011718-.003906.023437-.003906.035156-.007813.011718 0 .019531-.003906.03125-.007812.007812 0 .015625-.003907.027344-.007813.011718 0 .019531-.003906.03125-.007812.003906 0 .003906 0 .007812-.003906l3.613281-1.253907 3.613281 1.253907c.007813.003906.011719.003906.015626.007812.011718 0 .023437.003906.035156.007812.007812.003907.011718.003907.019531.003907.015625.003906.023437.007812.035156.007812.007813.003907.015625.003907.023438.003907.011719.003906.023437.003906.035156.003906.007813 0 .019531 0 .03125.003906h.023437c.019532 0 .035157 0 .050782-.003906h.015625.019531c.003906-.003906.003906-.003906.007812-.003906.015626 0 .03125-.003907.042969-.007813.007813 0 .015625-.003906.023438-.003906.011719-.003907.027343-.007813.039062-.011719.007813 0 .011719-.003906.019531-.007812l3.617188-1.253907 3.164062 1.101563zm0 0" fill="#fff"/></svg>