<svg height="32pt" viewBox="0 0 32 32" width="32pt" xmlns="http://www.w3.org/2000/svg"><g fill="#fff"><path d="m30.707031 0h-29.414062c-.355469 0-.640625.285156-.640625.636719v25.824219c0 3.054687 2.488281 5.539062 5.542968 5.539062 2.125 0 3.972657-1.203125 4.902344-2.960938.929688 1.757813 2.777344 2.960938 4.902344 2.960938s3.972656-1.203125 4.902344-2.960938c.929687 1.757813 2.777344 2.960938 4.902344 2.960938 3.054687 0 5.542968-2.484375 5.542968-5.539062v-25.824219c0-.351563-.285156-.636719-.640625-.636719zm-20.246093 26.460938c0 2.351562-1.914063 4.265624-4.265626 4.265624-2.351562 0-4.265624-1.914062-4.265624-4.265624v-5.039063c1.015624 1.226563 2.550781 2.007813 4.265624 2.007813 1.710938 0 3.246094-.78125 4.265626-2.007813zm0-8.609376v.035157c0 2.355469-1.914063 4.265625-4.265626 4.265625-2.351562 0-4.265624-1.910156-4.265624-4.265625v-5.109375c1.015624 1.226562 2.550781 2.007812 4.265624 2.007812 1.710938 0 3.246094-.78125 4.265626-2.007812zm0-8.605468c0 2.351562-1.914063 4.265625-4.265626 4.265625-2.351562 0-4.265624-1.914063-4.265624-4.265625v-7.972656h8.53125zm9.804687 17.214844c0 2.351562-1.914063 4.265624-4.265625 4.265624s-4.265625-1.914062-4.265625-4.265624v-5.039063c1.015625 1.226563 2.550781 2.007813 4.265625 2.007813s3.25-.78125 4.265625-2.007813zm0-8.609376v.035157c0 2.355469-1.914063 4.265625-4.265625 4.265625s-4.265625-1.910156-4.265625-4.265625v-5.109375c1.015625 1.226562 2.550781 2.007812 4.265625 2.007812s3.25-.78125 4.265625-2.007812zm0-8.605468c0 2.351562-1.914063 4.265625-4.265625 4.265625s-4.265625-1.914063-4.265625-4.265625v-7.972656h8.53125zm9.804687 17.214844c0 2.351562-1.914062 4.265624-4.265624 4.265624-2.351563 0-4.265626-1.914062-4.265626-4.265624v-5.039063c1.019532 1.226563 2.554688 2.007813 4.265626 2.007813 1.714843 0 3.25-.78125 4.265624-2.007813zm0-8.609376v.035157c0 2.355469-1.914062 4.265625-4.265624 4.265625-2.351563 0-4.265626-1.910156-4.265626-4.265625v-5.109375c1.019532 1.226562 2.554688 2.007812 4.265626 2.007812 1.714843 0 3.25-.78125 4.265624-2.007812zm0-8.605468c0 2.351562-1.914062 4.265625-4.265624 4.265625-2.351563 0-4.265626-1.914063-4.265626-4.265625v-7.972656h8.53125zm0 0"/><path d="m28.875 1.980469c-.351562 0-.636719.285156-.636719.636719v2.933593c0 .351563.285157.636719.636719.636719s.640625-.285156.640625-.636719v-2.933593c0-.351563-.289063-.636719-.640625-.636719zm0 0"/><path d="m28.875 6.824219c-.351562 0-.636719.285156-.636719.636719v.636718c0 .351563.285157.636719.636719.636719s.640625-.285156.640625-.636719v-.636718c0-.351563-.289063-.636719-.640625-.636719zm0 0"/></g></svg>