<?xml version="1.0" encoding="UTF-8"?>
<svg xmlns="http://www.w3.org/2000/svg" xmlns:xlink="http://www.w3.org/1999/xlink" width="32pt" height="32pt" viewBox="0 0 32 32" version="1.1">
<g id="surface1">
<path style=" stroke:none;fill-rule:nonzero;fill:rgb(255,255,255);fill-opacity:1;" d="M 32 24.300781 C 32 24.289062 32 24.28125 31.996094 24.273438 C 31.996094 24.269531 31.996094 24.261719 31.996094 24.257812 C 31.992188 24.246094 31.992188 24.238281 31.992188 24.226562 C 31.992188 24.222656 31.992188 24.21875 31.988281 24.214844 C 31.988281 24.199219 31.984375 24.183594 31.980469 24.171875 L 27.3125 5.503906 C 27.238281 5.207031 26.972656 5 26.664062 5 L 5.332031 5 C 5.027344 5 4.761719 5.207031 4.6875 5.503906 L 0.0195312 24.171875 C 0.015625 24.183594 0.015625 24.199219 0.0117188 24.214844 C 0.0078125 24.21875 0.0078125 24.222656 0.0078125 24.230469 C 0.0078125 24.238281 0.0078125 24.246094 0.00390625 24.257812 C 0.00390625 24.261719 0.00390625 24.269531 0.00390625 24.273438 C 0.00390625 24.28125 0 24.289062 0 24.300781 C 0 24.304688 0 24.3125 0 24.316406 C 0 24.324219 0 24.328125 0 24.332031 L 0 26.332031 C 0 26.546875 0.105469 26.75 0.28125 26.875 C 0.457031 27 0.683594 27.035156 0.886719 26.960938 L 4.484375 25.707031 L 8.113281 26.960938 C 8.253906 27.011719 8.410156 27.011719 8.550781 26.960938 L 12.164062 25.707031 L 15.78125 26.960938 C 15.921875 27.011719 16.078125 27.011719 16.21875 26.960938 L 19.832031 25.707031 L 23.445312 26.960938 C 23.589844 27.011719 23.742188 27.011719 23.882812 26.960938 L 27.5 25.707031 L 31.113281 26.960938 C 31.183594 26.988281 31.257812 27 31.332031 27 C 31.46875 27 31.605469 26.957031 31.71875 26.875 C 31.894531 26.75 32 26.546875 32 26.332031 L 32 24.332031 C 32 24.328125 32 24.324219 32 24.316406 C 32 24.3125 32 24.304688 32 24.300781 Z M 30.386719 23.296875 L 27.71875 22.371094 C 27.578125 22.320312 27.421875 22.320312 27.28125 22.371094 L 24.226562 23.433594 L 23.5625 18.121094 L 26.285156 17.179688 L 29.105469 18.175781 Z M 27.605469 12.179688 L 28.71875 16.625 L 26.511719 15.84375 C 26.367188 15.792969 26.210938 15.792969 26.070312 15.84375 L 23.390625 16.769531 L 22.8125 12.117188 L 25.097656 11.316406 Z M 26.144531 6.332031 L 27.222656 10.636719 L 25.3125 9.980469 C 25.167969 9.933594 25.015625 9.933594 24.875 9.984375 L 22.640625 10.765625 L 22.085938 6.332031 Z M 16.667969 6.332031 C 16.667969 6.332031 20.746094 6.332031 20.746094 6.332031 L 21.289062 10.6875 L 19.25 9.980469 C 19.109375 9.933594 18.953125 9.933594 18.8125 9.984375 L 16.667969 10.730469 Z M 16.664062 12.140625 L 19.03125 11.316406 L 21.472656 12.160156 L 22.039062 16.679688 L 19.648438 15.84375 C 19.507812 15.792969 19.351562 15.792969 19.210938 15.84375 L 16.664062 16.730469 Z M 16.664062 18.140625 L 19.429688 17.179688 L 22.222656 18.15625 L 22.871094 23.351562 L 20.054688 22.371094 C 19.910156 22.320312 19.757812 22.320312 19.613281 22.371094 L 16.664062 23.394531 Z M 11.253906 6.332031 L 15.332031 6.332031 L 15.332031 10.730469 L 13.1875 9.984375 C 13.046875 9.933594 12.890625 9.933594 12.75 9.980469 L 10.710938 10.6875 Z M 15.332031 18.140625 L 15.332031 23.394531 L 12.386719 22.371094 C 12.246094 22.320312 12.089844 22.320312 11.949219 22.371094 L 9.128906 23.351562 L 9.777344 18.160156 L 12.570312 17.179688 Z M 10.527344 12.160156 L 12.96875 11.316406 L 15.332031 12.140625 L 15.332031 16.730469 L 12.789062 15.84375 C 12.644531 15.792969 12.492188 15.792969 12.347656 15.84375 L 9.960938 16.679688 Z M 5.855469 6.332031 L 9.910156 6.332031 L 9.359375 10.765625 L 7.128906 9.984375 C 6.984375 9.933594 6.832031 9.933594 6.691406 9.980469 L 4.777344 10.636719 Z M 4.394531 12.179688 L 6.90625 11.316406 L 9.1875 12.117188 L 8.609375 16.769531 L 5.929688 15.84375 C 5.785156 15.792969 5.632812 15.792969 5.488281 15.84375 L 3.28125 16.625 Z M 2.894531 18.175781 L 5.714844 17.179688 L 8.4375 18.121094 L 7.773438 23.433594 L 4.703125 22.371094 C 4.632812 22.34375 4.558594 22.332031 4.484375 22.332031 C 4.410156 22.332031 4.335938 22.34375 4.265625 22.371094 L 1.613281 23.296875 Z M 30.664062 25.394531 L 27.71875 24.371094 C 27.578125 24.320312 27.421875 24.320312 27.28125 24.371094 L 23.664062 25.625 L 20.054688 24.371094 C 19.910156 24.320312 19.757812 24.320312 19.613281 24.371094 L 16 25.625 L 12.386719 24.371094 C 12.246094 24.320312 12.089844 24.320312 11.949219 24.371094 L 8.332031 25.628906 L 4.703125 24.371094 C 4.632812 24.34375 4.558594 24.332031 4.484375 24.332031 C 4.410156 24.332031 4.335938 24.34375 4.265625 24.371094 L 1.332031 25.394531 L 1.332031 24.804688 L 4.484375 23.707031 L 8.117188 24.960938 L 8.117188 24.964844 C 8.125 24.964844 8.128906 24.96875 8.136719 24.96875 C 8.148438 24.972656 8.164062 24.976562 8.175781 24.980469 C 8.183594 24.980469 8.191406 24.984375 8.199219 24.984375 C 8.210938 24.988281 8.226562 24.992188 8.238281 24.992188 C 8.242188 24.992188 8.246094 24.992188 8.25 24.996094 C 8.257812 24.996094 8.265625 24.996094 8.269531 24.996094 C 8.273438 24.996094 8.277344 24.996094 8.285156 24.996094 C 8.300781 25 8.316406 25 8.335938 25 C 8.34375 25 8.355469 25 8.367188 24.996094 C 8.375 24.996094 8.382812 24.996094 8.390625 24.996094 C 8.402344 24.996094 8.414062 24.992188 8.425781 24.992188 C 8.433594 24.992188 8.441406 24.992188 8.449219 24.988281 C 8.460938 24.988281 8.472656 24.984375 8.484375 24.980469 C 8.492188 24.980469 8.496094 24.980469 8.503906 24.976562 C 8.515625 24.972656 8.527344 24.96875 8.539062 24.96875 C 8.542969 24.964844 8.546875 24.964844 8.554688 24.960938 L 12.164062 23.707031 L 15.78125 24.960938 C 15.78125 24.964844 15.785156 24.964844 15.789062 24.964844 C 15.800781 24.96875 15.808594 24.972656 15.816406 24.972656 C 15.828125 24.976562 15.839844 24.980469 15.847656 24.980469 C 15.859375 24.984375 15.867188 24.984375 15.878906 24.988281 C 15.890625 24.988281 15.902344 24.992188 15.914062 24.996094 C 15.921875 24.996094 15.929688 24.996094 15.9375 24.996094 C 15.960938 25 15.980469 25 16 25 C 16.019531 25 16.042969 25 16.0625 24.996094 C 16.070312 24.996094 16.078125 24.996094 16.085938 24.996094 C 16.097656 24.992188 16.109375 24.992188 16.121094 24.988281 C 16.132812 24.988281 16.140625 24.984375 16.152344 24.980469 C 16.160156 24.980469 16.167969 24.976562 16.179688 24.972656 C 16.191406 24.972656 16.199219 24.96875 16.210938 24.964844 C 16.214844 24.964844 16.214844 24.964844 16.21875 24.960938 L 19.832031 23.707031 L 23.445312 24.960938 C 23.453125 24.964844 23.457031 24.964844 23.460938 24.96875 C 23.472656 24.96875 23.484375 24.972656 23.496094 24.976562 C 23.503906 24.980469 23.507812 24.980469 23.515625 24.980469 C 23.53125 24.984375 23.539062 24.988281 23.550781 24.988281 C 23.558594 24.992188 23.566406 24.992188 23.574219 24.992188 C 23.585938 24.996094 23.597656 24.996094 23.609375 24.996094 C 23.617188 24.996094 23.628906 24.996094 23.640625 25 C 23.648438 25 23.65625 25 23.664062 25 C 23.683594 25 23.699219 25 23.714844 24.996094 C 23.71875 24.996094 23.726562 24.996094 23.730469 24.996094 C 23.738281 24.996094 23.742188 24.996094 23.75 24.996094 C 23.753906 24.992188 23.753906 24.992188 23.757812 24.992188 C 23.773438 24.992188 23.789062 24.988281 23.800781 24.984375 C 23.808594 24.984375 23.816406 24.980469 23.824219 24.980469 C 23.835938 24.976562 23.851562 24.972656 23.863281 24.96875 C 23.871094 24.96875 23.875 24.964844 23.882812 24.960938 L 27.5 23.707031 L 30.664062 24.808594 Z M 30.664062 25.394531 "/>
</g>
</svg>
