<svg fill="#0e4ed5" height="24pt" viewBox="0 0 24 24" width="24pt" xmlns="http://www.w3.org/2000/svg"><path d="m23.234375 21.859375-5.714844-5.941406c1.46875-1.746094 2.273438-3.941407 2.273438-6.226563 0-5.34375-4.34375-9.691406-9.6875-9.691406s-9.691407 4.347656-9.691407 9.691406c0 5.339844 4.347657 9.6875 9.691407 9.6875 2.003906 0 3.917969-.605468 5.550781-1.753906l5.753906 5.988281c.242188.25.566406.386719.914063.386719.328125 0 .636719-.125.875-.351562.5-.484376.515625-1.285157.035156-1.789063zm-13.128906-19.332031c3.949219 0 7.160156 3.214844 7.160156 7.164062 0 3.949219-3.210937 7.160156-7.160156 7.160156s-7.164063-3.210937-7.164063-7.160156c0-3.949218 3.214844-7.164062 7.164063-7.164062zm0 0"/></svg>