<?xml version="1.0" encoding="UTF-8"?>
<svg xmlns="http://www.w3.org/2000/svg" xmlns:xlink="http://www.w3.org/1999/xlink" width="12pt" height="12pt" viewBox="0 0 12 12" version="1.1" fill="#3273f5">
<g id="surface1">
<path d="M 11.574219 1.558594 C 11.523438 1.503906 11.445312 1.484375 11.375 1.511719 L 0.5 5.449219 C 0.425781 5.476562 0.375 5.546875 0.375 5.625 C 0.375 5.703125 0.425781 5.773438 0.5 5.800781 L 3.023438 6.703125 L 3.753906 10.351562 C 3.769531 10.433594 3.84375 10.496094 3.925781 10.5 L 3.9375 10.5 C 3.984375 10.5 4.03125 10.480469 4.066406 10.449219 C 4.066406 10.445312 6.527344 8.003906 6.527344 8.003906 L 8.570312 8.617188 C 8.664062 8.644531 8.761719 8.597656 8.796875 8.507812 L 11.609375 1.757812 C 11.640625 1.691406 11.625 1.613281 11.574219 1.558594 Z M 9.898438 2.445312 L 3.167969 6.355469 L 1.117188 5.625 Z M 3.976562 9.554688 L 3.398438 6.65625 L 9.542969 3.085938 L 4.753906 7.167969 C 4.730469 7.195312 4.710938 7.226562 4.695312 7.257812 Z M 4.34375 9.648438 L 5 7.546875 L 6.121094 7.882812 Z M 8.515625 8.210938 L 5.257812 7.230469 L 10.945312 2.382812 Z M 8.515625 8.210938 "/>
</g>
</svg>
