<svg fill="#222" height="24pt" viewBox="0 0 24 24" width="24pt" xmlns="http://www.w3.org/2000/svg"><path d="m18.265625 1.6875c-.152344-.152344-.378906-.195312-.574219-.113281-.199218.082031-.328125.273437-.328125.488281v2.820312c-2.855469.117188-4.285156 1.300782-4.503906 1.496094-1.441406 1.183594-2.425781 2.832032-2.785156 4.660156-.175781.882813-.210938 1.792969-.09375 2.6875.003906.007813.003906.019532.003906.027344l.113281.644532c.039063.21875.207032.386718.425782.429687.214843.039063.433593-.058594.546874-.25l.339844-.558594c1.035156-1.722656 2.324219-2.863281 3.832032-3.390625.679687-.242187 1.402343-.347656 2.121093-.3125v2.925782c0 .210937.128907.40625.328125.488281.199219.082031.425782.035156.578125-.117188l5.585938-5.617187c.207031-.207032.207031-.542969 0-.746094zm.15625 10.273438v-2.117188c0-.261719-.1875-.480469-.445313-.523438-.453124-.074218-1.660156-.1875-3.085937.3125-1.519531.53125-2.835937 1.578126-3.921875 3.121094 0-.507812.046875-1.011718.144531-1.507812.320313-1.625 1.136719-2.992188 2.425781-4.058594.011719-.007812.023438-.019531.035157-.027344.035156-.035156 1.378906-1.25 4.3125-1.226562h.003906c.292969 0 .53125-.238282.53125-.527344v-2.070312l4.3125 4.289062zm0 0"/><path d="m22.074219 17.105469c-.292969 0-.53125.238281-.53125.53125v2.234375c0 .875-.710938 1.585937-1.585938 1.585937h-17.3125c-.875 0-1.585937-.710937-1.585937-1.585937v-12.601563c0-.875.710937-1.585937 1.585937-1.585937h3.65625c.292969 0 .53125-.238282.53125-.527344 0-.292969-.238281-.53125-.53125-.53125h-3.65625c-1.460937.003906-2.644531 1.1875-2.644531 2.644531v12.601563c0 1.460937 1.183594 2.640625 2.644531 2.644531h17.3125c1.460938-.003906 2.644531-1.183594 2.644531-2.644531v-2.234375c0-.292969-.238281-.53125-.527343-.53125zm0 0"/></svg>