<svg height="32pt" viewBox="0 0 32 32" width="32pt" xmlns="http://www.w3.org/2000/svg"><g fill="#fff"><path d="m30.128906 30.546875h-28.855468c-.234376 0-.421876-.1875-.421876-.417969v-28.855468c0-.234376.1875-.421876.421876-.421876h28.855468c.230469 0 .417969.1875.417969.421876v28.855468c0 .230469-.1875.417969-.417969.417969zm-28.429687-.84375h28.003906v-28.003906h-28.003906zm0 0"/><path d="m1.273438 9.335938c-.203126 0-.382813-.144532-.414063-.347657-.042969-.195312.066406-.394531.25-.472656l7.125-2.878906.683594-4.433594c.039062-.21875.25-.375.480469-.335937.222656.039062.378906.242187.359374.46875l-.722656 4.671874c-.019531.144532-.121094.269532-.257812.324219l-7.347656 2.96875c-.046876.023438-.101563.035157-.15625.035157zm0 0"/><path d="m7.636719 14.421875c-.089844 0-.175781-.027344-.25-.074219l-6.363281-4.667968c-.195313-.144532-.230469-.410157-.09375-.597657.140624-.191406.40625-.230469.589843-.089843l6.203125 4.546874 5.6875-1.570312.320313-2.417969-5.335938-3.25c-.195312-.121093-.261719-.378906-.140625-.582031s.382813-.261719.582032-.140625l5.5625 3.398437c.148437.085938.222656.25.203124.414063l-.390624 2.96875c-.023438.171875-.136719.308594-.3125.355469l-6.144532 1.695312c-.042968.011719-.078125.011719-.117187.011719zm0 0"/><path d="m4.242188 20.15625c-.117188 0-.226563-.046875-.308594-.140625l-2.972656-3.175781c-.109376-.109375-.144532-.273438-.101563-.417969.046875-.152344.164063-.261719.316406-.292969.148438-.035156.304688.011719.410157.128906l2.582031 2.769532 3.105469-5.242188c.117187-.199218.375-.261718.578124-.140625.195313.121094.261719.371094.152344.574219l-3.394531 5.730469c-.070313.117187-.1875.1875-.320313.199219-.019531.007812-.03125.007812-.046874.007812zm0 0"/><path d="m5.753906 30.546875c-.175781 0-.332031-.105469-.394531-.273437-.058594-.164063-.011719-.355469.125-.46875l4.3125-3.671876-.433594-3.957031-4.972656-1.933593-2.777344 3.773437c-.140625.183594-.402343.21875-.585937.078125-.191406-.136719-.230469-.394531-.097656-.585938l2.964843-4.023437c.121094-.15625.320313-.21875.5-.152344l5.519531 2.152344c.148438.054687.253907.1875.265626.34375l.484374 4.433594c.011719.140625-.039062.277343-.148437.371093l-4.484375 3.820313c-.078125.0625-.175781.09375-.277344.09375zm0 0"/><path d="m15.699219 30.546875c-.085938 0-.171875-.023437-.242188-.070313l-5.460937-3.820312c-.128906-.085938-.199219-.234375-.191406-.390625.011718-.148437.109374-.289063.253906-.351563.136718-.0625.300781-.046874.425781.046876l5.460937 3.816406c.148438.109375.214844.300781.160157.476562-.058594.171875-.21875.292969-.40625.292969zm0 0"/><path d="m9.761719 22.300781c-.183594 0-.339844-.109375-.402344-.28125-.058594-.167969-.003906-.355469.128906-.46875l4.253907-3.496093-.378907-5.722657c-.011719-.234375.160157-.433593.402344-.445312.230469-.023438.429687.160156.445313.386719l.394531 5.945312c.003906.132812-.050781.265625-.160157.351562l-4.417968 3.632813c-.074219.0625-.167969.097656-.265625.097656zm0 0"/><path d="m14.179688 9.761719c-.203126 0-.386719-.152344-.414063-.363281-.035156-.207032.089844-.40625.289063-.472657l3.652343-1.140625-2.125-6.382812c-.078125-.21875.046875-.453125.269531-.535156.222657-.070313.460938.046874.539063.273437l2.257813 6.78125c.035156.113281.027343.230469-.027344.332031-.050782.101563-.140625.175782-.25.214844l-4.0625 1.269531c-.042969.015625-.085938.023438-.128906.023438zm0 0"/><path d="m22.0625 19.515625c-.015625 0-.03125 0-.042969 0l-7.882812-.84375c-.238281-.03125-.402344-.242187-.375-.472656.007812-.113281.0625-.214844.148437-.285157.085938-.074218.199219-.105468.3125-.089843l7.449219.796875.378906-6.148438-4.109375-4.113281c-.097656-.09375-.140625-.238281-.117187-.378906.027343-.128907.117187-.246094.25-.304688l7.308593-3.253906-.765624-3.042969c-.050782-.230468.085937-.457031.3125-.515625.222656-.054687.453124.085938.515624.308594l.851563 3.390625c.039063.203125-.058594.410156-.246094.492188l-7.070312 3.144531 3.804687 3.804687c.082032.089844.132813.207032.125.328125l-.425781 6.785157c-.011719.230468-.195313.398437-.421875.398437zm0 0"/><path d="m30.128906 5.730469c-.019531 0-.042968 0-.0625-.003907l-4.246094-.640624c-.234374-.03125-.390624-.253907-.355468-.480469.03125-.238281.25-.398438.484375-.359375l4.234375.640625c.226562.027343.382812.226562.363281.449219-.011719.222656-.203125.394531-.417969.394531zm0 0"/><path d="m26.308594 13.578125c-.03125 0-.0625-.003906-.09375-.011719l-3.820313-.84375c-.148437-.035156-.269531-.144531-.316406-.289062-.046875-.148438-.007813-.304688.089844-.417969.105469-.113281.261719-.15625.410156-.125l3.566406.792969 3.652344-4.46875c.152344-.175782.414063-.199219.59375-.050782.183594.144532.207031.414063.0625.59375l-3.816406 4.664063c-.085938.101563-.199219.15625-.328125.15625zm0 0"/><path d="m30.128906 20.792969c-.160156 0-.300781-.089844-.378906-.226563l-3.824219-7.210937c-.097656-.210938-.027343-.46875.183594-.578125.207031-.109375.464844-.03125.574219.175781l3.8125 7.214844c.078125.128906.070312.289062-.007813.414062-.074219.128907-.214843.210938-.359375.210938zm0 0"/><path d="m12.878906 28.578125c-.199218 0-.375-.144531-.417968-.335937-.039063-.203126.066406-.402344.246093-.476563l6.066407-2.628906 2.902343-6.21875c.054688-.121094.152344-.195313.273438-.234375.125-.03125.25-.007813.351562.058594l8.058594 5.519531c.132813.078125.214844.226562.199219.382812-.011719.15625-.101563.292969-.242188.363281-.136718.0625-.304687.042969-.429687-.050781l-7.652344-5.230469-2.75 5.914063c-.050781.09375-.125.167969-.21875.210937l-6.21875 2.695313c-.050781.023437-.113281.03125-.167969.03125zm0 0"/><path d="m22.0625 30.546875h-.015625c-.140625 0-.261719-.078125-.34375-.1875l-2.96875-4.675781c-.125-.191406-.0625-.457032.125-.578125.199219-.132813.46875-.078125.59375.125l2.648437 4.160156 5.210938-6.734375c.140625-.191406.40625-.21875.589844-.078125.191406.148437.21875.40625.078125.59375l-5.582031 7.214844c-.082032.101562-.203126.160156-.335938.160156zm0 0"/></g></svg>