<svg height="32pt" viewBox="0 0 32 32" width="32pt" xmlns="http://www.w3.org/2000/svg"><g fill="#fff"><path d="m6.667969 27.730469c.191406-.289063.464843-1.015625.609375-1.613281.144531-.597657-.074219-1.476563-.488282-1.949219l-1.664062-1.917969c-.410156-.472656-1.257812-.925781-1.878906-1.007812l-2.113282-.277344c-.625-.078125-1.132812.367187-1.132812.996094v5.136718c0 .628906.515625 1.144532 1.140625 1.144532l4.042969.011718c.628906.003906 1.296875-.234375 1.484375-.523437zm0 0"/><path d="m1.136719 20.21875.605469.058594c.625.0625 1.363281-.347656 1.644531-.910156l.117187-.238282c.28125-.5625.28125-1.367187.003906-1.789062-.28125-.421875-.9375-.71875-1.460937-.660156-.523437.058593-1.199219.339843-1.5.625-.300781.285156-.546875 1.03125-.546875 1.660156 0 .625.511719 1.191406 1.136719 1.253906zm0 0"/><path d="m4.539062 20.648438c.425782.144531 1.070313.679687 1.433594 1.1875l1.410156 1.976562c.363282.511719 1.171876.855469 1.792969.761719l1.328125-.199219c.621094-.089844 1.203125-.675781 1.292969-1.296875l.363281-2.484375c.089844-.621094-.289062-1.378906-.835937-1.683594l-2.339844-1.289062c-.546875-.300782-1.472656-.347656-2.046875-.101563l-.738281.316407c-.578125.246093-1.332031.878906-1.675781 1.402343l-.128907.195313c-.34375.527344-.277343 1.074218.144531 1.214844zm0 0"/><path d="m8.316406 28.242188h5.539063c.628906 0 .792969-.375.363281-.835938l-1.722656-1.839844c-.429688-.460937-1.285156-.738281-1.902344-.625l-1 .1875c-.617188.117188-1.332031.683594-1.585938 1.253906l-.367187.816407c-.257813.570312.046875 1.042969.675781 1.042969zm0 0"/><path d="m6.035156 12.199219-1.734375-.136719c-.625-.050781-1.320312.324219-1.542969.835938-.226562.507812-.105468 1.34375.261719 1.851562l.082031.113281c.367188.507813.878907 1.292969 1.132813 1.746094.257813.449219.945313.632813 1.53125.40625l.710937-.277344c.585938-.230469 1.363282-.792969 1.730469-1.253906.367188-.460937.367188-1.253906 0-1.765625l-.363281-.503906c-.367188-.507813-1.179688-.964844-1.808594-1.015625zm0 0"/><path d="m.527344 16.554688c.289062-.285157.929687-.582032 1.417968-.660157.492188-.078125.628907-.582031.304688-1.121093l-.242188-.398438c-.324218-.539062-.910156-1.027344-1.296874-1.085938-.390626-.058593-.710938.40625-.710938 1.035157v1.605469c0 .628906.238281.910156.527344.625zm0 0"/><path d="m.710938 12.363281c.386718.078125.964843-.179687 1.277343-.570312.3125-.394531 1.078125-.671875 1.703125-.617188l1.859375.160157c.625.054687 1.335938-.375 1.574219-.957032l.707031-1.707031c.242188-.578125-.03125-1.265625-.605469-1.523437l-2.050781-.917969c-.570312-.257813-1.476562-.195313-2.007812.140625l-.78125.492187c-.53125.335938-1.285157.402344-1.675781.148438-.390626-.257813-.710938.046875-.710938.675781v3.390625c0 .628906.320312 1.207031.710938 1.285156zm0 0"/><path d="m10.785156 14.8125c-.625-.0625-1.449218.269531-1.828125.734375-.378906.464844-.230469 1.085937.324219 1.375l3.105469 1.621094c.554687.289062 1.152343.871093 1.324219 1.292969.171874.421874.808593.625 1.410156.449218l2.308594-.679687c.601562-.175781.789062-.734375.414062-1.238281l-1.597656-2.160157c-.375-.503906-1.191406-.96875-1.816406-1.03125zm0 0"/><path d="m16.949219 28.253906 1.730469-.007812c.628906-.003906 1.507812-.367188 1.957031-.804688l1.453125-1.433594c.445312-.441406.484375-1.195312.082031-1.675781l-2.914063-3.492187c-.402343-.484375-1.230468-.75-1.839843-.589844l-3.542969.921875c-.609375.160156-1.183594.796875-1.28125 1.417969l-.097656.632812c-.09375.621094.167968 1.511719.585937 1.980469l1.96875 2.203125c.414063.46875 1.273438.847656 1.898438.847656zm0 0"/><path d="m25.074219 25.605469-.285157-.042969c-.617187-.097656-1.484374.191406-1.921874.644531l-1.175782 1.214844c-.4375.449219-.28125.820313.347656.820313h3.410157c.628906 0 1.140625-.152344 1.140625-.339844s-.085938-.742188-.195313-1.230469c-.105469-.492187-.703125-.972656-1.320312-1.066406zm0 0"/><path d="m19.679688 20.425781c.277343.414063.910156.429688 1.402343.042969l1.328125-1.046875c.496094-.390625.5-1.03125.011719-1.429687l-.863281-.699219c-.488282-.398438-1.34375-.488281-1.90625-.207031l-.105469.054687c-.5625.28125-.820313.832031-.574219 1.21875.242188.390625.390625.847656.324219 1.015625-.070313.164062.105469.640625.382813 1.050781zm0 0"/><path d="m24.589844 24.753906.476562.09375c.613282.117188 1.492188.097656 1.949219-.046875s.808594-.777343.777344-1.402343l-.050781-1.082032c-.03125-.628906-.519532-1.363281-1.085938-1.636718l-1.882812-.902344c-.566407-.269532-1.429688-.171875-1.921876.222656l-1.066406.855469c-.488281.390625-.554687 1.101562-.140625 1.574219l1.078125 1.246093c.410156.472657 1.253906.960938 1.867188 1.078125zm0 0"/><path d="m30.828125 20.132812-1.398437.585938c-.578126.253906-1.027344.96875-.972657 1.59375l.15625 1.9375c.054688.625-.382812 1.234375-.957031 1.351562-.574219.117188-.875.699219-.671875 1.292969l.113281.320313c.207032.59375.886719 1.070312 1.515625 1.066406l2.117188-.027344c.628906-.007812 1.238281-.527344 1.238281-1.15625v-6.277344c0-.628906-.566406-.9375-1.140625-.6875zm0 0"/><path d="m30.769531 15.390625-2.214843-.5625c-.609376-.160156-1.546876.011719-2.054688.375l-1.1875.847656c-.511719.363281-1.011719 1.148438-1.101562 1.742188-.09375.59375.304687 1.277343.886718 1.515625l1.695313.699218c.578125.238282 1.53125.246094 2.117187.011719l1.90625-.722656c.582032-.234375 1.152344-.9375 1.152344-1.5625v-.910156c0-.628907-.589844-1.273438-1.199219-1.433594zm0 0"/><path d="m25.347656 14.761719c.527344-.339844.460938-.738281-.148437-.886719l-2.566407-.632812c-.609374-.148438-1.519531.039062-2.019531.414062l-2.476562 1.871094c-.5.378906-.824219.921875-.714844 1.207031.105469.285156.65625.300781 1.226563.035156l1.234374-.570312c.566407-.265625 1.171876-.378907 1.335938-.25.167969.128906.707031.511719 1.199219.855469.488281.34375.988281.257812 1.109375-.195313.117187-.453125.648437-1.097656 1.179687-1.4375zm0 0"/><path d="m30.757812 10.300781-4.300781-.925781c-.613281-.132812-1.382812.210938-1.679687.765625l-.917969 1.679687c-.296875.554688-.046875 1.125.566406 1.269532l1.824219.4375c.613281.144531 1.601562.410156 2.203125.59375l2.328125.675781c.601562.179687 1.1875-.183594 1.1875-.8125v-2.300781c0-.628906-.597656-1.25-1.210938-1.382813zm0 0"/><path d="m22.308594 11.40625-.234375-.835938c-.167969-.601562-.777344-1.308593-1.351563-1.5625l-1.601562-.710937c-.574219-.257813-1.507813-.246094-2.074219.023437l-.691406.324219c-.570313.269531-.992188 1-.941407 1.625l.058594.722657c.050782.625.585938.996093 1.1875.820312l.5625-.167969c.605469-.175781 1.59375-.179687 2.199219-.015625l2.09375.574219c.609375.167969.964844-.191406.792969-.796875zm0 0"/><path d="m17.359375 12.34375-.714844.25c-.59375.207031-1.078125.730469-1.078125 1.160156 0 .433594.230469 1.011719.515625 1.285156.285157.273438.914063.171876 1.402344-.226562l1.929687-1.582031c.488282-.398438.464844-.84375-.046874-.992188-.511719-.148437-1.414063-.097656-2.007813.105469zm0 0"/><path d="m13.890625 11.363281-4.515625 1.160157c-.609375.15625-.832031.546874-.5.863281.335938.320312 1.121094.640625 1.746094.707031l2.835937.320312c.625.070313 1.195313-.386718 1.269531-1.007812l.136719-1.195312c.074219-.621094-.363281-1.003907-.972656-.847657zm0 0"/><path d="m14.207031 7.835938c-.144531-.609376-.769531-1.1875-1.390625-1.28125l-2.039062-.304688c-.621094-.089844-1.316406.3125-1.542969.894531l-1.28125 3.296875c-.226563.585938-.300781 1.203125-.160156 1.375s.746093.167969 1.347656-.007812l4.519531-1.320313c.601563-.175781.976563-.820312.832032-1.429687zm0 0"/><path d="m.628906 6.351562c.316406.183594 1.007813.0625 1.539063-.269531l.761719-.480469c.53125-.332031 1.257812-.53125 1.609374-.4375.355469.097657.792969-.195312.972657-.648437.179687-.453125-.1875-.824219-.816407-.824219h-3.554687c-.625 0-1.1289062.515625-1.1132812 1.140625v.035157c.015625.628906.2851562 1.296874.6015622 1.484374zm0 0"/><path d="m6.699219 6.171875.28125.105469c.585937.226562 1.316406.074218 1.621093-.335938.308594-.414062 1.0625-.652344 1.679688-.53125l.675781.132813c.617188.121093 1.03125-.246094.921875-.816407-.113281-.570312-.71875-1.035156-1.347656-1.035156h-2.78125c-.628906 0-1.359375.464844-1.628906 1.035156-.269532.570313-.007813 1.21875.578125 1.445313zm0 0"/><path d="m13.464844 3.691406c-.628906 0-1 .496094-.832032 1.097656l.027344.089844c.171875.601563.667969 1.097656 1.101563 1.097656.433593 0 .890625.488282 1.015625 1.085938.121094.597656.6875.875 1.257812.609375l1.089844-.503906c.570312-.261719 1.472656-.210938 2.007812.117187l.789063.484375c.535156.328125 1.097656.097657 1.25-.511719l.605469-2.457031c.152344-.609375-.238282-1.109375-.867188-1.109375zm0 0"/><path d="m23.875 8.6875-.324219.097656c-.601562.175782-.992187.8125-.871093 1.414063.125.601562.519531.671875.882812.160156l.75-1.058594c.359375-.515625.164062-.789062-.4375-.613281zm0 0"/><path d="m24.546875 7.703125c.613281-.144531 1.183594-.054687 1.273437.199219.089844.253906.515626.59375.941407.75.429687.15625.816406-.226563.855469-.855469l.195312-2.964844c.042969-.628906-.4375-1.140625-1.066406-1.140625h-2.703125c-.625 0-1.265625.5-1.421875 1.105469 0 0-.863282 3.390625-.863282 3.570313zm0 0"/><path d="m30.636719 3.691406h-.550781c-.628907 0-1.183594.511719-1.238282 1.136719l-.257812 3.140625c-.050782.625.414062 1.222656 1.035156 1.324219l1.125.171875c.617188.101562 1.222656-.328125 1.222656-.957032v-3.675781c-.003906-.625-.707031-1.140625-1.335937-1.140625zm0 0"/></g></svg>