<svg height="32pt" viewBox="0 0 32 32" width="32pt" xmlns="http://www.w3.org/2000/svg"><g fill="#fff"><path d="m8.421875 28.761719-8.296875-13.765625-.125-.21875v9.546875l8.152344 4.773437.582031.34375zm0 0"/><path d="m5.648438 20.527344 3.96875 6.589844 6.730468-9.675782zm0 0"/><path d="m5.570312 7.78125-.734374-.539062-3.828126 5.53125.738282 1.277343 2.902344 4.816407 11.835937-3.417969zm0 0"/><path d="m15.144531 2.285156-.167969-.703125-8.757812 4.351563.453125.332031 10.609375 7.453125zm0 0"/><path d="m20.210938 29.410156-2.097657-11.226562-7.464843 10.734375-.648438.886719 1.125.066406 8.644531.511718.621094.035157zm0 0"/><path d="m16.910156 1.609375.074219.308594 4.605469 24.664062 6.132812-12.460937.5625-1.199219zm0 0"/><path d="m29.609375 14.511719-.199219.429687-7.242187 14.71875-.160157.441406.214844-.144531 7.074219-4.792969 2.703125-5.707031zm0 0"/></g></svg>