<svg height="32pt" viewBox="0 0 32 32" width="32pt" xmlns="http://www.w3.org/2000/svg"><g fill="#fff"><path d="m14.804688 23.960938c.164062 0 .324218-.066407.4375-.183594.113281-.113282.179687-.273438.179687-.433594 0-.164062-.066406-.320312-.179687-.4375-.113282-.113281-.273438-.179688-.4375-.179688-.160157 0-.320313.066407-.433594.179688-.117188.117188-.179688.273438-.179688.4375 0 .160156.0625.320312.179688.433594.113281.117187.273437.183594.433594.183594zm0 0"/><path d="m27.71875 17.851562h-6.117188c-.34375 0-.617187.277344-.617187.617188v6.152344c0 .339844.273437.613281.617187.613281h6.117188c.339844 0 .617188-.273437.617188-.613281v-6.152344c0-.339844-.277344-.617188-.617188-.617188zm-5.503906 1.230469h1.828125v4.921875h-1.828125zm4.886718 4.921875h-1.824218v-4.921875h1.824218zm0 0"/><path d="m19.054688 7.960938h-6.109376c-.339843 0-.617187.277343-.617187.617187v6.152344c0 .339843.277344.613281.617187.613281h6.109376c.339843 0 .617187-.273438.617187-.613281v-6.152344c0-.339844-.277344-.617187-.617187-.617187zm-5.492188 1.234374h1.820312v4.917969h-1.820312zm4.875 4.917969h-1.820312v-4.917969h1.820312zm0 0"/><path d="m27.71875 7.960938h-6.117188c-.34375 0-.617187.277343-.617187.617187v6.152344c0 .339843.273437.613281.617187.613281h6.117188c.339844 0 .617188-.273438.617188-.613281v-6.152344c0-.339844-.277344-.617187-.617188-.617187zm-5.503906 1.234374h1.828125v4.917969h-1.828125zm4.886718 4.917969h-1.824218v-4.917969h1.824218zm0 0"/><path d="m10.46875 17.851562h-6.121094c-.339844 0-.617187.277344-.617187.617188v6.152344c0 .339844.277343.613281.617187.613281h6.121094c.339844 0 .613281-.273437.613281-.613281v-6.152344c0-.339844-.273437-.617188-.613281-.617188zm-5.503906 1.230469h1.828125v4.921875h-1.828125zm4.886718 4.921875h-1.828124v-4.921875h1.828124zm0 0"/><path d="m10.46875 7.960938h-6.121094c-.339844 0-.617187.277343-.617187.617187v6.152344c0 .339843.277343.613281.617187.613281h6.121094c.339844 0 .613281-.273438.613281-.613281v-6.152344c0-.339844-.273437-.617187-.613281-.617187zm-5.503906 1.234374h1.828125v4.917969h-1.828125zm4.886718 4.917969h-1.828124v-4.917969h1.828124zm0 0"/><path d="m31.382812 27.71875h-.597656v-23.441406c.304688-.039063.539063-.296875.539063-.613282 0-.339843-.273438-.617187-.613281-.617187h-29.472657c-.339843 0-.617187.277344-.617187.617187 0 .332032.261718.601563.59375.617188v23.4375h-.597656c-.339844 0-.617188.277344-.617188.617188 0 .339843.277344.617187.617188.617187h30.765624c.339844 0 .617188-.277344.617188-.617187 0-.339844-.277344-.617188-.617188-.617188zm-28.9375-23.4375h27.109376v23.4375h-9.882813v-9.25c0-.339844-.277344-.617188-.617187-.617188h-6.109376c-.339843 0-.617187.277344-.617187.617188v9.25h-9.882813zm15.992188 23.4375h-4.875v-8.636719h4.875zm0 0"/><path d="m4.347656 6.746094h23.253906c.339844 0 .613282-.277344.613282-.617188s-.273438-.617187-.613282-.617187h-23.253906c-.339844 0-.617187.277343-.617187.617187s.277343.617188.617187.617188zm0 0"/></g></svg>