<?xml version="1.0" encoding="UTF-8"?>
<svg xmlns="http://www.w3.org/2000/svg" xmlns:xlink="http://www.w3.org/1999/xlink" width="32pt" height="32pt" viewBox="0 0 32 32" version="1.1">
<g id="surface1">
<path style=" stroke:none;fill-rule:nonzero;fill:rgb(255,255,255);fill-opacity:1;" d="M 14.804688 23.960938 C 14.96875 23.960938 15.128906 23.894531 15.242188 23.777344 C 15.355469 23.664062 15.421875 23.503906 15.421875 23.34375 C 15.421875 23.179688 15.355469 23.023438 15.242188 22.90625 C 15.128906 22.792969 14.96875 22.726562 14.804688 22.726562 C 14.644531 22.726562 14.484375 22.792969 14.371094 22.90625 C 14.253906 23.023438 14.191406 23.179688 14.191406 23.34375 C 14.191406 23.503906 14.253906 23.664062 14.371094 23.777344 C 14.484375 23.894531 14.644531 23.960938 14.804688 23.960938 Z M 14.804688 23.960938 "/>
<path style=" stroke:none;fill-rule:nonzero;fill:rgb(255,255,255);fill-opacity:1;" d="M 27.71875 17.851562 L 21.601562 17.851562 C 21.257812 17.851562 20.984375 18.128906 20.984375 18.46875 L 20.984375 24.621094 C 20.984375 24.960938 21.257812 25.234375 21.601562 25.234375 L 27.71875 25.234375 C 28.058594 25.234375 28.335938 24.960938 28.335938 24.621094 L 28.335938 18.46875 C 28.335938 18.128906 28.058594 17.851562 27.71875 17.851562 Z M 22.214844 19.082031 L 24.042969 19.082031 L 24.042969 24.003906 L 22.214844 24.003906 Z M 27.101562 24.003906 L 25.277344 24.003906 L 25.277344 19.082031 L 27.101562 19.082031 Z M 27.101562 24.003906 "/>
<path style=" stroke:none;fill-rule:nonzero;fill:rgb(255,255,255);fill-opacity:1;" d="M 19.054688 7.960938 L 12.945312 7.960938 C 12.605469 7.960938 12.328125 8.238281 12.328125 8.578125 L 12.328125 14.730469 C 12.328125 15.070312 12.605469 15.34375 12.945312 15.34375 L 19.054688 15.34375 C 19.394531 15.34375 19.671875 15.070312 19.671875 14.730469 L 19.671875 8.578125 C 19.671875 8.238281 19.394531 7.960938 19.054688 7.960938 Z M 13.5625 9.195312 L 15.382812 9.195312 L 15.382812 14.113281 L 13.5625 14.113281 Z M 18.4375 14.113281 L 16.617188 14.113281 L 16.617188 9.195312 L 18.4375 9.195312 Z M 18.4375 14.113281 "/>
<path style=" stroke:none;fill-rule:nonzero;fill:rgb(255,255,255);fill-opacity:1;" d="M 27.71875 7.960938 L 21.601562 7.960938 C 21.257812 7.960938 20.984375 8.238281 20.984375 8.578125 L 20.984375 14.730469 C 20.984375 15.070312 21.257812 15.34375 21.601562 15.34375 L 27.71875 15.34375 C 28.058594 15.34375 28.335938 15.070312 28.335938 14.730469 L 28.335938 8.578125 C 28.335938 8.238281 28.058594 7.960938 27.71875 7.960938 Z M 22.214844 9.195312 L 24.042969 9.195312 L 24.042969 14.113281 L 22.214844 14.113281 Z M 27.101562 14.113281 L 25.277344 14.113281 L 25.277344 9.195312 L 27.101562 9.195312 Z M 27.101562 14.113281 "/>
<path style=" stroke:none;fill-rule:nonzero;fill:rgb(255,255,255);fill-opacity:1;" d="M 10.46875 17.851562 L 4.347656 17.851562 C 4.007812 17.851562 3.730469 18.128906 3.730469 18.46875 L 3.730469 24.621094 C 3.730469 24.960938 4.007812 25.234375 4.347656 25.234375 L 10.46875 25.234375 C 10.808594 25.234375 11.082031 24.960938 11.082031 24.621094 L 11.082031 18.46875 C 11.082031 18.128906 10.808594 17.851562 10.46875 17.851562 Z M 4.964844 19.082031 L 6.792969 19.082031 L 6.792969 24.003906 L 4.964844 24.003906 Z M 9.851562 24.003906 L 8.023438 24.003906 L 8.023438 19.082031 L 9.851562 19.082031 Z M 9.851562 24.003906 "/>
<path style=" stroke:none;fill-rule:nonzero;fill:rgb(255,255,255);fill-opacity:1;" d="M 10.46875 7.960938 L 4.347656 7.960938 C 4.007812 7.960938 3.730469 8.238281 3.730469 8.578125 L 3.730469 14.730469 C 3.730469 15.070312 4.007812 15.34375 4.347656 15.34375 L 10.46875 15.34375 C 10.808594 15.34375 11.082031 15.070312 11.082031 14.730469 L 11.082031 8.578125 C 11.082031 8.238281 10.808594 7.960938 10.46875 7.960938 Z M 4.964844 9.195312 L 6.792969 9.195312 L 6.792969 14.113281 L 4.964844 14.113281 Z M 9.851562 14.113281 L 8.023438 14.113281 L 8.023438 9.195312 L 9.851562 9.195312 Z M 9.851562 14.113281 "/>
<path style=" stroke:none;fill-rule:nonzero;fill:rgb(255,255,255);fill-opacity:1;" d="M 31.382812 27.71875 L 30.785156 27.71875 L 30.785156 4.277344 C 31.089844 4.238281 31.324219 3.980469 31.324219 3.664062 C 31.324219 3.324219 31.050781 3.046875 30.710938 3.046875 L 1.238281 3.046875 C 0.898438 3.046875 0.621094 3.324219 0.621094 3.664062 C 0.621094 3.996094 0.882812 4.265625 1.214844 4.28125 L 1.214844 27.71875 L 0.617188 27.71875 C 0.277344 27.71875 0 27.996094 0 28.335938 C 0 28.675781 0.277344 28.953125 0.617188 28.953125 L 31.382812 28.953125 C 31.722656 28.953125 32 28.675781 32 28.335938 C 32 27.996094 31.722656 27.71875 31.382812 27.71875 Z M 2.445312 4.28125 L 29.554688 4.28125 L 29.554688 27.71875 L 19.671875 27.71875 L 19.671875 18.46875 C 19.671875 18.128906 19.394531 17.851562 19.054688 17.851562 L 12.945312 17.851562 C 12.605469 17.851562 12.328125 18.128906 12.328125 18.46875 L 12.328125 27.71875 L 2.445312 27.71875 Z M 18.4375 27.71875 L 13.5625 27.71875 L 13.5625 19.082031 L 18.4375 19.082031 Z M 18.4375 27.71875 "/>
<path style=" stroke:none;fill-rule:nonzero;fill:rgb(255,255,255);fill-opacity:1;" d="M 4.347656 6.746094 L 27.601562 6.746094 C 27.941406 6.746094 28.214844 6.46875 28.214844 6.128906 C 28.214844 5.789062 27.941406 5.511719 27.601562 5.511719 L 4.347656 5.511719 C 4.007812 5.511719 3.730469 5.789062 3.730469 6.128906 C 3.730469 6.46875 4.007812 6.746094 4.347656 6.746094 Z M 4.347656 6.746094 "/>
</g>
</svg>
