<svg height="32pt" viewBox="0 0 32 32" width="32pt" xmlns="http://www.w3.org/2000/svg"><g fill="#fff"><path d="m31.375 0h-30.75c-.34375 0-.625.28125-.625.625v30.75c0 .34375.28125.625.625.625h30.75c.34375 0 .625-.28125.625-.625v-30.75c0-.34375-.28125-.625-.625-.625zm-30.125 1.25h29.5v9h-19.25v-4c0-.34375-.28125-.625-.625-.625s-.625.28125-.625.625v14.25h-9zm19.25 10.25v9h-9v-9zm-19.25 19.25v-9h19.25v9zm29.5 0h-9v-19.25h9zm0 0"/><path d="m10.875 4.0625c.34375 0 .625-.28125.625-.625s-.28125-.625-.625-.625-.625.28125-.625.625.28125.625.625.625zm0 0"/></g></svg>