<?xml version="1.0" encoding="UTF-8"?>
<svg xmlns="http://www.w3.org/2000/svg" xmlns:xlink="http://www.w3.org/1999/xlink" width="32pt" height="32pt" viewBox="0 0 32 32" version="1.1">
<g id="surface1">
<path style=" stroke:none;fill-rule:nonzero;fill:rgb(255, 255, 255);fill-opacity:1;" d="M 31.5 1.5 L 31.5 0.5 L 16 0.5 C 15.722656 0.5 15.5 0.722656 15.5 1 L 15.5 5 C 15.5 5.277344 15.722656 5.5 16 5.5 L 16.5 5.5 L 16.5 30.5 L 0.5 30.5 L 0.5 31.5 L 31.5 31.5 L 31.5 30.5 L 25.5 30.5 L 25.5 28 L 31.5 28 L 31.5 27 L 21.5 27 L 21.5 26 L 31.5 26 L 31.5 25 L 21 25 C 20.722656 25 20.5 25.222656 20.5 25.5 L 20.5 27.5 C 20.5 27.777344 20.722656 28 21 28 L 22.5 28 L 22.5 30.5 L 19.5 30.5 L 19.5 5.5 L 31.5 5.5 L 31.5 4.5 L 16.5 4.5 L 16.5 1.5 Z M 23.5 28 L 24.5 28 L 24.5 30.5 L 23.5 30.5 Z M 18.5 5.5 L 18.5 30.5 L 17.5 30.5 L 17.5 5.5 Z M 18.5 5.5 "/>
<path style=" stroke:none;fill-rule:nonzero;fill:rgb(255, 255, 255);fill-opacity:1;" d="M 10.5 16 C 10.5 14.941406 10.25 13.882812 9.777344 12.933594 L 9.449219 12.277344 C 9.277344 11.9375 8.722656 11.9375 8.554688 12.277344 L 8.222656 12.933594 C 7.75 13.882812 7.5 14.941406 7.5 16 C 7.5 16.121094 7.515625 16.242188 7.519531 16.359375 C 7.199219 16.121094 6.828125 15.941406 6.433594 15.84375 L 5.121094 15.515625 C 4.953125 15.472656 4.769531 15.523438 4.648438 15.648438 C 4.523438 15.769531 4.472656 15.949219 4.515625 16.121094 L 4.84375 17.4375 C 4.976562 17.972656 5.253906 18.464844 5.644531 18.855469 C 6.035156 19.246094 6.527344 19.523438 7.0625 19.65625 L 7.066406 19.65625 L 7.402344 19.742188 L 6.777344 20.054688 L 7.222656 20.949219 L 8.5 20.308594 L 8.5 21.5 L 5 21.5 C 4.722656 21.5 4.5 21.722656 4.5 22 L 4.5 24 C 4.5 24.277344 4.722656 24.5 5 24.5 L 5.546875 24.5 L 6.003906 29.050781 C 6.027344 29.304688 6.242188 29.5 6.5 29.5 L 11.5 29.5 C 11.757812 29.5 11.972656 29.304688 11.996094 29.050781 L 12.453125 24.5 L 13 24.5 C 13.277344 24.5 13.5 24.277344 13.5 24 L 13.5 22 C 13.5 21.722656 13.277344 21.5 13 21.5 L 9.5 21.5 L 9.5 20.308594 L 10.777344 20.945312 L 11.222656 20.050781 L 10.597656 19.738281 L 10.933594 19.65625 C 11.472656 19.523438 11.964844 19.246094 12.351562 18.851562 C 12.746094 18.464844 13.023438 17.972656 13.15625 17.433594 L 13.484375 16.121094 C 13.527344 15.949219 13.476562 15.769531 13.351562 15.648438 C 13.230469 15.523438 13.046875 15.472656 12.878906 15.515625 L 11.5625 15.84375 C 11.171875 15.941406 10.800781 16.117188 10.476562 16.359375 C 10.484375 16.242188 10.5 16.121094 10.5 16 Z M 11.046875 28.5 L 6.953125 28.5 L 6.554688 24.5 L 11.449219 24.5 Z M 12.5 23.5 L 5.5 23.5 L 5.5 22.5 L 12.5 22.5 Z M 9 13.632812 C 9.328125 14.375 9.5 15.1875 9.5 16 C 9.5 16.8125 9.328125 17.625 9 18.367188 C 8.671875 17.625 8.5 16.8125 8.5 16 C 8.5 15.1875 8.671875 14.375 9 13.632812 Z M 6.351562 18.148438 C 6.089844 17.882812 5.90625 17.554688 5.8125 17.191406 L 5.6875 16.6875 L 6.191406 16.8125 C 6.554688 16.90625 6.882812 17.089844 7.148438 17.351562 C 7.410156 17.617188 7.59375 17.945312 7.6875 18.308594 L 7.8125 18.8125 L 7.308594 18.6875 C 6.945312 18.59375 6.617188 18.410156 6.351562 18.148438 Z M 11.808594 16.8125 L 12.3125 16.6875 L 12.1875 17.191406 C 12.09375 17.554688 11.910156 17.882812 11.648438 18.148438 C 11.382812 18.410156 11.054688 18.59375 10.691406 18.6875 L 10.1875 18.8125 L 10.3125 18.308594 C 10.40625 17.945312 10.589844 17.617188 10.851562 17.351562 C 11.117188 17.089844 11.445312 16.90625 11.808594 16.8125 Z M 11.808594 16.8125 "/>
<path style=" stroke:none;fill-rule:nonzero;fill:rgb(255, 255, 255);fill-opacity:1;" d="M 2.5 7.5 L 9 7.5 C 10.378906 7.5 11.5 6.378906 11.5 5 C 11.5 3.621094 10.378906 2.5 9 2.5 C 8.78125 2.5 8.5625 2.53125 8.347656 2.589844 C 7.964844 1.363281 6.835938 0.5 5.5 0.5 C 3.84375 0.5 2.5 1.84375 2.5 3.5 C 1.398438 3.5 0.5 4.398438 0.5 5.5 C 0.5 6.601562 1.398438 7.5 2.5 7.5 Z M 2.5 4.5 C 2.636719 4.5 2.765625 4.527344 2.890625 4.578125 C 3.066406 4.652344 3.269531 4.621094 3.414062 4.5 C 3.558594 4.375 3.617188 4.179688 3.570312 3.996094 C 3.523438 3.804688 3.5 3.648438 3.5 3.5 C 3.5 2.398438 4.398438 1.5 5.5 1.5 C 6.539062 1.5 7.390625 2.285156 7.480469 3.332031 C 7.496094 3.503906 7.597656 3.65625 7.75 3.734375 C 7.90625 3.8125 8.089844 3.804688 8.234375 3.71875 C 8.476562 3.574219 8.734375 3.5 9 3.5 C 9.828125 3.5 10.5 4.171875 10.5 5 C 10.5 5.828125 9.828125 6.5 9 6.5 L 2.5 6.5 C 1.949219 6.5 1.5 6.050781 1.5 5.5 C 1.5 4.949219 1.949219 4.5 2.5 4.5 Z M 2.5 4.5 "/>
</g>
</svg>
