<svg height="32pt" viewBox="0 0 32 32" width="32pt" xmlns="http://www.w3.org/2000/svg"><g fill="#fff"><path d="m24.5 30.5v-2.5h-1v2.5h-5v-25h-1v25h-17v1h31v-1zm0 0"/><path d="m19 4.5h11.5v-3h-14v3zm0 0"/><path d="m9.828125 18.1875-.257813 1.039062-.347656-.171874.105469-.210938c.441406-.882812.671875-1.855469.671875-2.84375s-.230469-1.960938-.671875-2.839844l-.328125-.660156-.328125.660156c-.441406.878906-.671875 1.851563-.671875 2.839844s.230469 1.960938.671875 2.839844l.105469.210937-.347656.175781-.257813-1.042968c-.113281-.445313-.34375-.855469-.671875-1.183594s-.738281-.558594-1.1875-.671875l-1.3125-.328125.328125 1.3125c.113281.449219.34375.859375.671875 1.1875s.738281.558594 1.1875.671875l.902344.226563-1.3125.65625.445312.894531 1.277344-.640625v1.191406h1v-1.191406l1.277344.636718.445312-.894531-1.308594-.652343.902344-.226563c.445313-.113281.855469-.34375 1.183594-.671875s.558594-.738281.671875-1.1875l.328125-1.3125-1.3125.328125c-.449219.113281-.859375.34375-1.1875.671875s-.558594.738281-.671875 1.1875zm0 0"/><path d="m5.5 22.5h7v1h-7zm0 0"/><path d="m11.046875 28.5.402344-4h-4.898438l.402344 4zm0 0"/><path d="m2.5 6.5h6.5c.828125 0 1.5-.671875 1.5-1.5s-.671875-1.5-1.5-1.5c-.265625 0-.523438.074219-.765625.21875-.144531.085938-.328125.09375-.484375.015625-.152344-.078125-.253906-.230469-.269531-.402344-.089844-1.046875-.941407-1.832031-1.980469-1.832031-1.101562 0-2 .898438-2 2 0 .148438.023438.304688.070312.496094.046876.183594-.011718.378906-.15625.503906-.144531.121094-.347656.152344-.523437.078125-.125-.050781-.253906-.078125-.390625-.078125-.550781 0-1 .449219-1 1s.449219 1 1 1zm0 0"/><path d="m23 27h7.5v-1h-9v1zm0 0"/></g></svg>