<svg height="32pt" viewBox="0 0 32 32" width="32pt" xmlns="http://www.w3.org/2000/svg"><g fill="#fff"><path d="m31.5 1.5v-1h-15.5c-.277344 0-.5.222656-.5.5v4c0 .277344.222656.5.5.5h.5v25h-16v1h31v-1h-6v-2.5h6v-1h-10v-1h10v-1h-10.5c-.277344 0-.5.222656-.5.5v2c0 .277344.222656.5.5.5h1.5v2.5h-3v-25h12v-1h-15v-3zm-8 26.5h1v2.5h-1zm-5-22.5v25h-1v-25zm0 0"/><path d="m10.5 16c0-1.058594-.25-2.117188-.722656-3.066406l-.328125-.65625c-.171875-.339844-.726563-.339844-.894531 0l-.332032.65625c-.472656.949218-.722656 2.007812-.722656 3.066406 0 .121094.015625.242188.019531.359375-.320312-.238281-.691406-.417969-1.085937-.515625l-1.3125-.328125c-.167969-.042969-.351563.007813-.472656.132813-.125.121093-.175782.300781-.132813.472656l.328125 1.316406c.132812.535156.410156 1.027344.800781 1.417969s.882813.667969 1.417969.800781h.003906l.335938.085938-.625.3125.445312.894531 1.277344-.640625v1.191406h-3.5c-.277344 0-.5.222656-.5.5v2c0 .277344.222656.5.5.5h.546875l.457031 4.550781c.023438.253907.238282.449219.496094.449219h5c.257812 0 .472656-.195312.496094-.449219l.457031-4.550781h.546875c.277344 0 .5-.222656.5-.5v-2c0-.277344-.222656-.5-.5-.5h-3.5v-1.191406l1.277344.636718.445312-.894531-.625-.3125.335938-.082031c.539062-.132812 1.03125-.410156 1.417968-.804688.394532-.386718.671876-.878906.804688-1.417968l.328125-1.3125c.042969-.171875-.007813-.351563-.132813-.472656-.121093-.125-.304687-.175782-.472656-.132813l-1.316406.328125c-.390625.097656-.761719.273438-1.085938.515625.007813-.117187.023438-.238281.023438-.359375zm.546875 12.5h-4.09375l-.398437-4h4.894531zm1.453125-5h-7v-1h7zm-3.5-9.867188c.328125.742188.5 1.554688.5 2.367188s-.171875 1.625-.5 2.367188c-.328125-.742188-.5-1.554688-.5-2.367188s.171875-1.625.5-2.367188zm-2.648438 4.515626c-.261718-.265626-.445312-.59375-.539062-.957032l-.125-.503906.503906.125c.363282.09375.691406.277344.957032.539062.261718.265626.445312.59375.539062.957032l.125.503906-.503906-.125c-.363282-.09375-.691406-.277344-.957032-.539062zm5.457032-1.335938.503906-.125-.125.503906c-.09375.363282-.277344.691406-.539062.957032-.265626.261718-.59375.445312-.957032.539062l-.503906.125.125-.503906c.09375-.363282.277344-.691406.539062-.957032.265626-.261718.59375-.445312.957032-.539062zm0 0"/><path d="m2.5 7.5h6.5c1.378906 0 2.5-1.121094 2.5-2.5s-1.121094-2.5-2.5-2.5c-.21875 0-.4375.03125-.652344.089844-.382812-1.226563-1.511718-2.089844-2.847656-2.089844-1.65625 0-3 1.34375-3 3-1.101562 0-2 .898438-2 2s.898438 2 2 2zm0-3c.136719 0 .265625.027344.390625.078125.175781.074219.378906.042969.523437-.078125.144532-.125.203126-.320312.15625-.503906-.046874-.191406-.070312-.347656-.070312-.496094 0-1.101562.898438-2 2-2 1.039062 0 1.890625.785156 1.980469 1.832031.015625.171875.117187.324219.269531.402344.15625.078125.339844.070313.484375-.015625.242187-.144531.5-.21875.765625-.21875.828125 0 1.5.671875 1.5 1.5s-.671875 1.5-1.5 1.5h-6.5c-.550781 0-1-.449219-1-1s.449219-1 1-1zm0 0"/></g></svg>