<?xml version="1.0" encoding="UTF-8"?>
<svg xmlns="http://www.w3.org/2000/svg" xmlns:xlink="http://www.w3.org/1999/xlink" width="32pt" height="32pt" viewBox="0 0 32 32" version="1.1">
<g id="surface1">
<path style=" stroke:none;fill-rule:nonzero;fill:rgb(255,255,255);fill-opacity:1;" d="M 24.5 30.5 L 24.5 28 L 23.5 28 L 23.5 30.5 L 18.5 30.5 L 18.5 5.5 L 17.5 5.5 L 17.5 30.5 L 0.5 30.5 L 0.5 31.5 L 31.5 31.5 L 31.5 30.5 Z M 24.5 30.5 "/>
<path style=" stroke:none;fill-rule:nonzero;fill:rgb(255,255,255);fill-opacity:1;" d="M 19 4.5 L 30.5 4.5 L 30.5 1.5 L 16.5 1.5 L 16.5 4.5 Z M 19 4.5 "/>
<path style=" stroke:none;fill-rule:nonzero;fill:rgb(255,255,255);fill-opacity:1;" d="M 9.828125 18.1875 L 9.570312 19.226562 L 9.222656 19.054688 L 9.328125 18.84375 C 9.769531 17.960938 10 16.988281 10 16 C 10 15.011719 9.769531 14.039062 9.328125 13.160156 L 9 12.5 L 8.671875 13.160156 C 8.230469 14.039062 8 15.011719 8 16 C 8 16.988281 8.230469 17.960938 8.671875 18.839844 L 8.777344 19.050781 L 8.429688 19.226562 L 8.171875 18.183594 C 8.058594 17.738281 7.828125 17.328125 7.5 17 C 7.171875 16.671875 6.761719 16.441406 6.3125 16.328125 L 5 16 L 5.328125 17.3125 C 5.441406 17.761719 5.671875 18.171875 6 18.5 C 6.328125 18.828125 6.738281 19.058594 7.1875 19.171875 L 8.089844 19.398438 L 6.777344 20.054688 L 7.222656 20.949219 L 8.5 20.308594 L 8.5 21.5 L 9.5 21.5 L 9.5 20.308594 L 10.777344 20.945312 L 11.222656 20.050781 L 9.914062 19.398438 L 10.816406 19.171875 C 11.261719 19.058594 11.671875 18.828125 12 18.5 C 12.328125 18.171875 12.558594 17.761719 12.671875 17.3125 L 13 16 L 11.6875 16.328125 C 11.238281 16.441406 10.828125 16.671875 10.5 17 C 10.171875 17.328125 9.941406 17.738281 9.828125 18.1875 Z M 9.828125 18.1875 "/>
<path style=" stroke:none;fill-rule:nonzero;fill:rgb(255,255,255);fill-opacity:1;" d="M 5.5 22.5 L 12.5 22.5 L 12.5 23.5 L 5.5 23.5 Z M 5.5 22.5 "/>
<path style=" stroke:none;fill-rule:nonzero;fill:rgb(255,255,255);fill-opacity:1;" d="M 11.046875 28.5 L 11.449219 24.5 L 6.550781 24.5 L 6.953125 28.5 Z M 11.046875 28.5 "/>
<path style=" stroke:none;fill-rule:nonzero;fill:rgb(255,255,255);fill-opacity:1;" d="M 2.5 6.5 L 9 6.5 C 9.828125 6.5 10.5 5.828125 10.5 5 C 10.5 4.171875 9.828125 3.5 9 3.5 C 8.734375 3.5 8.476562 3.574219 8.234375 3.71875 C 8.089844 3.804688 7.90625 3.8125 7.75 3.734375 C 7.597656 3.65625 7.496094 3.503906 7.480469 3.332031 C 7.390625 2.285156 6.539062 1.5 5.5 1.5 C 4.398438 1.5 3.5 2.398438 3.5 3.5 C 3.5 3.648438 3.523438 3.804688 3.570312 3.996094 C 3.617188 4.179688 3.558594 4.375 3.414062 4.5 C 3.269531 4.621094 3.066406 4.652344 2.890625 4.578125 C 2.765625 4.527344 2.636719 4.5 2.5 4.5 C 1.949219 4.5 1.5 4.949219 1.5 5.5 C 1.5 6.050781 1.949219 6.5 2.5 6.5 Z M 2.5 6.5 "/>
<path style=" stroke:none;fill-rule:nonzero;fill:rgb(255,255,255);fill-opacity:1;" d="M 23 27 L 30.5 27 L 30.5 26 L 21.5 26 L 21.5 27 Z M 23 27 "/>
</g>
</svg>
