<svg height="32pt" viewBox="0 0 32 32" width="32pt" xmlns="http://www.w3.org/2000/svg"><g fill="#fff"><path d="m5.332031 14.933594c.21875 0 .414063-.128906.496094-.328125s.039063-.429688-.117187-.585938c-.152344-.148437-.382813-.195312-.582032-.109375-.0625.023438-.125.0625-.175781.109375-.203125.210938-.203125.546875 0 .757813.050781.050781.113281.085937.175781.113281.066406.027344.132813.042969.203125.042969zm0 0"/><path d="m12.265625 0h-9.597656c-1.472657 0-2.667969 1.195312-2.667969 2.667969v9.597656c0 1.472656 1.195312 2.664063 2.667969 2.667969h1.066406c.292969 0 .53125-.238282.53125-.535156 0-.292969-.238281-.53125-.53125-.53125h-1.066406c-.886719 0-1.601563-.71875-1.601563-1.601563v-9.597656c0-.886719.714844-1.601563 1.601563-1.601563h9.597656c.882813 0 1.601563.714844 1.601563 1.601563v9.597656c0 .882813-.71875 1.601563-1.601563 1.601563h-5.332031c-.292969 0-.535156.238281-.535156.53125 0 .296874.242187.535156.535156.535156h5.332031c1.472656-.003906 2.664063-1.195313 2.667969-2.667969v-9.597656c-.003906-1.472657-1.195313-2.667969-2.667969-2.667969zm0 0"/><path d="m29.332031 0h-9.597656c-1.472656 0-2.664063 1.195312-2.667969 2.667969v9.597656c.003906 1.472656 1.195313 2.664063 2.667969 2.667969h9.597656c1.472657-.003906 2.667969-1.195313 2.667969-2.667969v-9.597656c0-1.472657-1.195312-2.667969-2.667969-2.667969zm1.601563 12.265625c0 .882813-.714844 1.601563-1.601563 1.601563h-9.597656c-.882813 0-1.601563-.71875-1.601563-1.601563v-9.597656c0-.886719.71875-1.601563 1.601563-1.601563h9.597656c.886719 0 1.601563.714844 1.601563 1.601563zm0 0"/><path d="m29.332031 17.066406h-9.597656c-1.472656.003906-2.664063 1.195313-2.667969 2.667969v9.597656c.003906 1.472657 1.195313 2.667969 2.667969 2.667969h9.597656c1.472657 0 2.667969-1.195312 2.667969-2.667969v-9.597656c0-1.472656-1.195312-2.664063-2.667969-2.667969zm1.601563 12.265625c0 .886719-.714844 1.601563-1.601563 1.601563h-9.597656c-.882813 0-1.601563-.714844-1.601563-1.601563v-9.597656c0-.882813.71875-1.601563 1.601563-1.601563h9.597656c.886719 0 1.601563.71875 1.601563 1.601563zm0 0"/><path d="m12.265625 17.066406h-9.597656c-1.472657.003906-2.667969 1.195313-2.667969 2.667969v9.597656c0 1.472657 1.195312 2.667969 2.667969 2.667969h9.597656c1.472656 0 2.664063-1.195312 2.667969-2.667969v-9.597656c-.003906-1.472656-1.195313-2.664063-2.667969-2.667969zm1.601563 12.265625c0 .886719-.71875 1.601563-1.601563 1.601563h-9.597656c-.886719 0-1.601563-.714844-1.601563-1.601563v-9.597656c0-.882813.714844-1.601563 1.601563-1.601563h9.597656c.882813 0 1.601563.71875 1.601563 1.601563zm0 0"/></g></svg>