<?xml version="1.0" encoding="UTF-8"?>
<svg xmlns="http://www.w3.org/2000/svg" xmlns:xlink="http://www.w3.org/1999/xlink" width="32pt" height="32pt" viewBox="0 0 32 32" version="1.1">
<g id="surface1">
<path style=" stroke:none;fill-rule:nonzero;fill:rgb(255%,255%,255%);fill-opacity:1;" d="M 2 30.5 L 30 30.5 C 30.277344 30.5 30.5 30.277344 30.5 30 L 30.5 16 C 30.5 15.722656 30.277344 15.5 30 15.5 L 16.5 15.5 L 16.5 2 C 16.5 1.722656 16.277344 1.5 16 1.5 L 2 1.5 C 1.722656 1.5 1.5 1.722656 1.5 2 L 1.5 30 C 1.5 30.277344 1.722656 30.5 2 30.5 Z M 15.5 21.472656 C 12.859375 21.230469 10.769531 19.140625 10.527344 16.5 L 15.5 16.5 Z M 15.5 22.480469 L 15.5 23.984375 C 11.476562 23.726562 8.273438 20.523438 8.015625 16.5 L 9.519531 16.5 C 9.769531 19.695312 12.304688 22.230469 15.5 22.480469 Z M 16.5 16.5 L 21.472656 16.5 C 21.230469 19.140625 19.140625 21.230469 16.5 21.472656 Z M 10.527344 15.5 C 10.769531 12.859375 12.859375 10.769531 15.5 10.527344 L 15.5 15.5 Z M 15.5 9.519531 C 12.304688 9.769531 9.769531 12.304688 9.519531 15.5 L 8.015625 15.5 C 8.273438 11.476562 11.476562 8.273438 15.5 8.015625 Z M 7.027344 16.5 C 7.285156 21.070312 10.929688 24.714844 15.5 24.972656 L 15.5 29.5 L 9.472656 29.5 C 9.21875 25.757812 6.242188 22.78125 2.5 22.527344 L 2.5 16.5 Z M 2.5 25.53125 C 4.585938 25.765625 6.234375 27.414062 6.46875 29.5 L 2.5 29.5 Z M 7.476562 29.5 C 7.234375 26.859375 5.140625 24.765625 2.5 24.523438 L 2.5 23.519531 C 5.695312 23.769531 8.230469 26.304688 8.480469 29.5 Z M 23.519531 29.5 C 23.769531 26.304688 26.304688 23.769531 29.5 23.519531 L 29.5 24.523438 C 26.859375 24.765625 24.765625 26.859375 24.523438 29.5 Z M 25.53125 29.5 C 25.765625 27.414062 27.414062 25.765625 29.5 25.53125 L 29.5 29.5 Z M 29.5 22.527344 C 25.757812 22.78125 22.78125 25.757812 22.527344 29.5 L 16.5 29.5 L 16.5 24.972656 C 21.070312 24.714844 24.714844 21.070312 24.972656 16.5 L 29.5 16.5 Z M 23.984375 16.5 C 23.726562 20.523438 20.523438 23.726562 16.5 23.984375 L 16.5 22.480469 C 19.695312 22.230469 22.230469 19.695312 22.480469 16.5 Z M 15.5 7.027344 C 10.929688 7.285156 7.285156 10.929688 7.027344 15.5 L 2.5 15.5 L 2.5 9.472656 C 6.242188 9.21875 9.21875 6.242188 9.472656 2.5 L 15.5 2.5 Z M 8.480469 2.5 C 8.230469 5.695312 5.695312 8.230469 2.5 8.480469 L 2.5 7.476562 C 5.140625 7.234375 7.234375 5.140625 7.476562 2.5 Z M 6.46875 2.5 C 6.234375 4.585938 4.585938 6.234375 2.5 6.46875 L 2.5 2.5 Z M 6.46875 2.5 "/>
<path style=" stroke:none;fill-rule:nonzero;fill:rgb(255%,255%,255%);fill-opacity:1;" d="M 17.800781 9.71875 L 18.253906 10.625 C 18.308594 10.734375 18.367188 10.839844 18.429688 10.945312 L 17.523438 13.851562 C 17.441406 14.113281 17.585938 14.394531 17.851562 14.476562 C 17.898438 14.492188 17.949219 14.5 18 14.5 C 18.050781 14.5 18.101562 14.492188 18.148438 14.476562 L 21.003906 13.585938 L 22.703125 14.605469 C 23.136719 14.863281 23.628906 15 24.128906 15 L 25.742188 15 C 27.273438 15 28.515625 13.757812 28.515625 12.226562 C 28.515625 11.875 28.449219 11.523438 28.316406 11.195312 L 28.039062 10.5 C 28.578125 9.128906 28.542969 7.597656 27.9375 6.253906 L 30.847656 3.347656 C 31.042969 3.152344 31.042969 2.835938 30.847656 2.640625 L 29.351562 1.148438 C 29.160156 0.953125 28.839844 0.953125 28.648438 1.148438 L 25.882812 3.910156 C 25.277344 3.523438 24.601562 3.261719 23.894531 3.140625 L 23.484375 3.074219 C 23.191406 3.023438 22.890625 3 22.59375 3 L 21.933594 3 C 19.367188 3.011719 17.296875 5.101562 17.3125 7.667969 C 17.316406 8.378906 17.480469 9.082031 17.800781 9.71875 Z M 20.230469 8.542969 C 20.570312 7.46875 21.566406 6.738281 22.691406 6.734375 C 22.773438 6.734375 22.859375 6.738281 22.945312 6.746094 C 23.367188 6.789062 23.769531 6.9375 24.117188 7.175781 L 23.148438 8.148438 L 23.851562 8.851562 L 24.824219 7.882812 C 25.0625 8.230469 25.210938 8.632812 25.253906 9.054688 C 25.371094 10.269531 24.621094 11.402344 23.457031 11.769531 L 18.761719 13.238281 Z M 27.109375 10.132812 L 27.035156 10.316406 C 26.988281 10.433594 26.988281 10.566406 27.035156 10.6875 L 27.386719 11.566406 C 27.753906 12.476562 27.3125 13.507812 26.402344 13.871094 C 26.191406 13.957031 25.96875 14 25.742188 14 L 24.128906 14 C 23.808594 14 23.492188 13.914062 23.21875 13.75 L 22.28125 13.1875 L 23.753906 12.726562 C 25.375 12.21875 26.414062 10.644531 26.25 8.953125 C 26.183594 8.304688 25.9375 7.6875 25.542969 7.167969 L 26.003906 6.707031 L 26.390625 7.097656 C 26.585938 7.289062 26.902344 7.289062 27.097656 7.097656 L 27.167969 7.027344 C 27.523438 8.035156 27.5 9.136719 27.109375 10.132812 Z M 29 2.207031 L 29.785156 2.992188 L 26.742188 6.035156 L 25.957031 5.25 Z M 19.148438 5.308594 C 19.835938 4.480469 20.855469 4 21.933594 4 L 22.59375 4 C 22.835938 4 23.078125 4.019531 23.320312 4.058594 L 23.730469 4.128906 C 24.230469 4.214844 24.714844 4.382812 25.160156 4.632812 L 24.898438 4.898438 C 24.703125 5.09375 24.703125 5.410156 24.898438 5.601562 L 25.292969 6 L 24.832031 6.460938 C 23.269531 5.269531 21.035156 5.574219 19.84375 7.136719 C 19.589844 7.46875 19.398438 7.84375 19.273438 8.242188 L 18.855469 9.589844 L 18.695312 9.269531 C 18.546875 8.976562 18.441406 8.660156 18.378906 8.335938 C 18.160156 7.261719 18.445312 6.144531 19.148438 5.304688 Z M 19.148438 5.308594 "/>
</g>
</svg>
