<svg height="32pt" viewBox="0 0 32 32" width="32pt" xmlns="http://www.w3.org/2000/svg"><g fill="#fff"><path d="m2 30.5h28c.277344 0 .5-.222656.5-.5v-14c0-.277344-.222656-.5-.5-.5h-13.5v-13.5c0-.277344-.222656-.5-.5-.5h-14c-.277344 0-.5.222656-.5.5v28c0 .277344.222656.5.5.5zm13.5-9.027344c-2.640625-.242187-4.730469-2.332031-4.972656-4.972656h4.972656zm0 1.007813v1.503906c-4.023438-.257813-7.226562-3.460937-7.484375-7.484375h1.503906c.25 3.195312 2.785157 5.730469 5.980469 5.980469zm1-5.980469h4.972656c-.242187 2.640625-2.332031 4.730469-4.972656 4.972656zm-5.972656-1c.242187-2.640625 2.332031-4.730469 4.972656-4.972656v4.972656zm4.972656-5.980469c-3.195312.25-5.730469 2.785157-5.980469 5.980469h-1.503906c.257813-4.023438 3.460937-7.226562 7.484375-7.484375zm-8.472656 6.980469c.257812 4.570312 3.902344 8.214844 8.472656 8.472656v4.527344h-6.027344c-.253906-3.742188-3.230468-6.71875-6.972656-6.972656v-6.027344zm-4.527344 9.03125c2.085938.234375 3.734375 1.882812 3.96875 3.96875h-3.96875zm4.976562 3.96875c-.242187-2.640625-2.335937-4.734375-4.976562-4.976562v-1.003907c3.195312.25 5.730469 2.785157 5.980469 5.980469zm16.042969 0c.25-3.195312 2.785157-5.730469 5.980469-5.980469v1.003907c-2.640625.242187-4.734375 2.335937-4.976562 4.976562zm2.011719 0c.234375-2.085938 1.882812-3.734375 3.96875-3.96875v3.96875zm3.96875-6.972656c-3.742188.253906-6.71875 3.230468-6.972656 6.972656h-6.027344v-4.527344c4.570312-.257812 8.214844-3.902344 8.472656-8.472656h4.527344zm-5.515625-6.027344c-.257813 4.023438-3.460937 7.226562-7.484375 7.484375v-1.503906c3.195312-.25 5.730469-2.785157 5.980469-5.980469zm-8.484375-9.472656c-4.570312.257812-8.214844 3.902344-8.472656 8.472656h-4.527344v-6.027344c3.742188-.253906 6.71875-3.230468 6.972656-6.972656h6.027344zm-7.019531-4.527344c-.25 3.195312-2.785157 5.730469-5.980469 5.980469v-1.003907c2.640625-.242187 4.734375-2.335937 4.976562-4.976562zm-2.011719 0c-.234375 2.085938-1.882812 3.734375-3.96875 3.96875v-3.96875zm0 0"/><path d="m17.800781 9.71875.453125.90625c.054688.109375.113282.214844.175782.320312l-.90625 2.90625c-.082032.261719.0625.542969.328124.625.046876.015626.097657.023438.148438.023438s.101562-.007812.148438-.023438l2.855468-.890624 1.699219 1.019531c.433594.257812.925781.394531 1.425781.394531h1.613282c1.53125 0 2.773437-1.242188 2.773437-2.773438 0-.351562-.066406-.703124-.199219-1.03125l-.277344-.695312c.539063-1.371094.503907-2.902344-.101562-4.246094l2.910156-2.90625c.195313-.195312.195313-.511718 0-.707031l-1.496094-1.492187c-.191406-.195313-.511718-.195313-.703124 0l-2.765626 2.761718c-.605468-.386718-1.28125-.648437-1.988281-.769531l-.410156-.066406c-.292969-.050781-.59375-.074219-.890625-.074219h-.660156c-2.566406.011719-4.636719 2.101562-4.621094 4.667969.003906.710937.167969 1.414062.488281 2.050781zm2.429688-1.175781c.339843-1.074219 1.335937-1.804688 2.460937-1.808594.082032 0 .167969.003906.253906.011719.421876.042968.824219.191406 1.171876.429687l-.96875.972657.703124.703124.972657-.96875c.238281.347657.386719.75.429687 1.171876.117188 1.214843-.632812 2.347656-1.796875 2.714843l-4.695312 1.46875zm6.878906 1.589843-.074219.183594c-.046875.117188-.046875.25 0 .371094l.351563.878906c.367187.910156-.074219 1.941406-.984375 2.304688-.210938.085937-.433594.128906-.660156.128906h-1.613282c-.320312 0-.636718-.085938-.910156-.25l-.9375-.5625 1.472656-.460938c1.621094-.507812 2.660156-2.082031 2.496094-3.773437-.066406-.648437-.3125-1.265625-.707031-1.785156l.460937-.460938.386719.390625c.195313.191406.511719.191406.707031 0l.070313-.070312c.355469 1.007812.332031 2.109375-.058594 3.105468zm1.890625-7.925781.785156.785157-3.042968 3.042968-.785157-.785156zm-9.851562 3.101563c.6875-.828125 1.707031-1.308594 2.785156-1.308594h.660156c.242188 0 .484375.019531.726562.058594l.410157.070312c.5.085938.984375.253906 1.429687.503906l-.261718.265626c-.195313.195312-.195313.511718 0 .703124l.394531.398438-.460938.460938c-1.5625-1.191407-3.796875-.886719-4.988281.675781-.253906.332031-.445312.707031-.570312 1.105469l-.417969 1.347656-.160157-.320313c-.148437-.292969-.253906-.609375-.316406-.933593-.21875-1.074219.066406-2.191407.769532-3.03125zm0 0"/></g></svg>