<svg height="32pt" viewBox="0 0 32 32" width="32pt" xmlns="http://www.w3.org/2000/svg"><path d="m31.429688 32h-30.859376c-.316406 0-.570312-.253906-.570312-.570312v-30.859376c0-.316406.253906-.570312.570312-.570312h30.859376c.316406 0 .570312.253906.570312.570312v30.859376c0 .316406-.253906.570312-.570312.570312zm-7.503907-1.136719h6.9375v-6.9375l-6.433593 6.433594c-.003907 0-.003907.003906-.003907.003906s-.003906 0-.003906.003907zm-8.859375 0h7.25l.902344-.902343-3.625-3.625zm-8.269531 0h6.660156l9.894531-9.894531-3.332031-3.328125zm-5.660156 0h4.050781l3.121094-3.121093-3.496094-3.496094-3.675781 3.671875zm19.261719-5.332031 3.625 3.625 6.839843-6.839844v-7.25zm-14.78125-2.089844 3.496093 3.496094 17.453125-17.453125-3.496094-3.496094-6.84375 6.839844v.003906zm-4.480469-4.773437v7.640625l3.269531-3.265625s.003906-.003907.003906-.003907c.003906-.003906.003906-.003906.007813-.007812l10.601562-10.601562-3.742187-3.742188zm19.6875-1.832031 3.332031 3.328124 6.6875-6.6875c.007812-.007812.011719-.011718.019531-.015624v-6.664063zm-19.6875-7.457032v7.691406l4.507812-4.4375-3.863281-3.859374zm1.476562-1.386718 3.84375 3.84375 10.828125-10.660157h-7.4375zm9.476563-.105469 3.734375 3.738281 10.484375-10.488281h-7.363282zm11.785156-2.703125 3.496094 3.496094 3.492187-3.492188v-4.050781h-2.945312zm-22.738281-4.046875v6.679687l.214843-.199218c.011719-.015626.023438-.03125.039063-.042969.019531-.023438.042969-.042969.066406-.058594l6.769531-6.378906zm0 0" fill="#fff"/></svg>