<?xml version="1.0" encoding="UTF-8"?>
<svg xmlns="http://www.w3.org/2000/svg" xmlns:xlink="http://www.w3.org/1999/xlink" width="32pt" height="32pt" viewBox="0 0 32 32" version="1.1">
<g id="surface1">
<path style=" stroke:none;fill-rule:nonzero;fill:rgb(255,255,255);fill-opacity:1;" d="M 31.429688 32 L 0.570312 32 C 0.253906 32 0 31.746094 0 31.429688 L 0 0.570312 C 0 0.253906 0.253906 0 0.570312 0 L 31.429688 0 C 31.746094 0 32 0.253906 32 0.570312 L 32 31.429688 C 32 31.746094 31.746094 32 31.429688 32 Z M 23.925781 30.863281 L 30.863281 30.863281 L 30.863281 23.925781 L 24.429688 30.359375 C 24.425781 30.359375 24.425781 30.363281 24.425781 30.363281 C 24.425781 30.363281 24.421875 30.363281 24.421875 30.367188 Z M 15.066406 30.863281 L 22.316406 30.863281 L 23.21875 29.960938 L 19.59375 26.335938 Z M 6.796875 30.863281 L 13.457031 30.863281 L 23.351562 20.96875 L 20.019531 17.640625 Z M 1.136719 30.863281 L 5.1875 30.863281 L 8.308594 27.742188 L 4.8125 24.246094 L 1.136719 27.917969 Z M 20.398438 25.53125 L 24.023438 29.15625 L 30.863281 22.316406 L 30.863281 15.066406 Z M 5.617188 23.441406 L 9.113281 26.9375 L 26.566406 9.484375 L 23.070312 5.988281 L 16.226562 12.828125 C 16.226562 12.832031 16.226562 12.832031 16.226562 12.832031 Z M 1.136719 18.667969 L 1.136719 26.308594 L 4.40625 23.042969 C 4.40625 23.042969 4.410156 23.039062 4.410156 23.039062 C 4.414062 23.035156 4.414062 23.035156 4.417969 23.03125 L 15.019531 12.429688 L 11.277344 8.6875 Z M 20.824219 16.835938 L 24.15625 20.164062 L 30.84375 13.476562 C 30.851562 13.46875 30.855469 13.464844 30.863281 13.460938 L 30.863281 6.796875 Z M 1.136719 9.378906 L 1.136719 17.070312 L 5.644531 12.632812 L 1.78125 8.773438 Z M 2.613281 7.992188 L 6.457031 11.835938 L 17.285156 1.175781 L 9.847656 1.175781 Z M 12.089844 7.886719 L 15.824219 11.625 L 26.308594 1.136719 L 18.945312 1.136719 Z M 23.875 5.183594 L 27.371094 8.679688 L 30.863281 5.1875 L 30.863281 1.136719 L 27.917969 1.136719 Z M 1.136719 1.136719 L 1.136719 7.816406 L 1.351562 7.617188 C 1.363281 7.601562 1.375 7.585938 1.390625 7.574219 C 1.410156 7.550781 1.433594 7.53125 1.457031 7.515625 L 8.226562 1.136719 Z M 1.136719 1.136719 "/>
</g>
</svg>
